<?xml version="1.0" encoding="UTF-8"?>
<svg version="1.1" xmlns="http://www.w3.org/2000/svg" width="66" height="66">
<path d="M0 0 C0.8559375 -0.01546875 1.711875 -0.0309375 2.59375 -0.046875 C10.03443875 -0.00177992 15.78653771 1.95050693 21.78125 6.36328125 C24.83841029 10.81079901 23.83466947 16.35852514 23.25 21.5 C21.75995277 27.53954053 19.3709854 30.87372496 14.27661133 34.34423828 C10.82913289 36.31031019 7.17031465 37.34083571 3.375 38.4375 C-2.5991184 40.28243056 -7.69929736 42.12576653 -12.6328125 46.10546875 C-18.8047744 50.17076469 -24.86756433 50.96195296 -32.125 50.8125 C-32.93066406 50.81572266 -33.73632812 50.81894531 -34.56640625 50.82226562 C-40.48223531 50.76776469 -40.48223531 50.76776469 -42.75 48.5 C-43.00386054 45.86693488 -43.12027927 43.38416627 -43.125 40.75 C-43.14949219 40.04617187 -43.17398438 39.34234375 -43.19921875 38.6171875 C-43.2379173 31.67724683 -40.00149703 27.50213384 -35.3125 22.5625 C-31.85198407 19.12810118 -28.29411743 17.10125432 -23.9375 14.9375 C-18.70096003 12.47696574 -18.70096003 12.47696574 -15.75 7.8125 C-15.42 6.719375 -15.09 5.62625 -14.75 4.5 C-10.4014103 -0.34432893 -6.08771172 -0.10806589 0 0 Z " fill="#D54D42" transform="translate(42.75,7.5)"/>
<path d="M0 0 C0.8559375 -0.01546875 1.711875 -0.0309375 2.59375 -0.046875 C10.03443875 -0.00177992 15.78653771 1.95050693 21.78125 6.36328125 C24.83841029 10.81079901 23.83466947 16.35852514 23.25 21.5 C21.75995277 27.53954053 19.3709854 30.87372496 14.27661133 34.34423828 C10.82913289 36.31031019 7.17031465 37.34083571 3.375 38.4375 C-2.5991184 40.28243056 -7.69929736 42.12576653 -12.6328125 46.10546875 C-18.8047744 50.17076469 -24.86756433 50.96195296 -32.125 50.8125 C-32.93066406 50.81572266 -33.73632812 50.81894531 -34.56640625 50.82226562 C-40.48223531 50.76776469 -40.48223531 50.76776469 -42.75 48.5 C-43.00386054 45.86693488 -43.12027927 43.38416627 -43.125 40.75 C-43.14949219 40.04617187 -43.17398438 39.34234375 -43.19921875 38.6171875 C-43.2379173 31.67724683 -40.00149703 27.50213384 -35.3125 22.5625 C-31.85198407 19.12810118 -28.29411743 17.10125432 -23.9375 14.9375 C-18.70096003 12.47696574 -18.70096003 12.47696574 -15.75 7.8125 C-15.42 6.719375 -15.09 5.62625 -14.75 4.5 C-10.4014103 -0.34432893 -6.08771172 -0.10806589 0 0 Z M-13.75 5.5 C-14.08 6.655 -14.41 7.81 -14.75 9 C-15.75 12.5 -15.75 12.5 -18.375 14.6875 C-20.0935898 15.61044638 -21.81854443 16.53001524 -23.60546875 17.3125 C-30.72653285 20.49636898 -37.75904959 26.09094517 -40.75 33.5 C-41.33333333 36.5 -41.33333333 36.5 -40.75 39.5 C-38.06425696 42.68931986 -36.30242405 43.41277515 -32.1875 44.0625 C-23.78154424 43.61841177 -15.95649725 38.70728414 -8.8125 34.625 C-1.6172998 30.70034535 6.29755959 29.20928978 14.25 27.5 C14.25 28.16 14.25 28.82 14.25 29.5 C13.26 29.5 12.27 29.5 11.25 29.5 C11.25 30.49 11.25 31.48 11.25 32.5 C15.70596642 31.13845471 17.79952923 29.47145263 20.25 25.5 C22.13331131 20.10319931 22.85728072 15.07190649 21.25 9.5 C17.83377944 4.31676881 13.30928233 3.25000324 7.51953125 2.0078125 C-4.01295897 0.18890836 -4.01295897 0.18890836 -13.75 5.5 Z " fill="#9C7A6F" transform="translate(42.75,7.5)"/>
<path d="M0 0 C1.32 0.66 2.64 1.32 4 2 C4 2.66 4 3.32 4 4 C4.66 4 5.32 4 6 4 C5.505 2.515 5.505 2.515 5 1 C5.66 1 6.32 1 7 1 C7 1.66 7 2.32 7 3 C9.475 3.495 9.475 3.495 12 4 C12.33 2.68 12.66 1.36 13 0 C14.5625 1.4375 14.5625 1.4375 16 4 C16.07128047 7.07694012 15.57164791 9.98353647 15 13 C14.773125 14.2375 14.54625 15.475 14.3125 16.75 C12.59228677 21.00957562 10.75850895 22.4160251 7 25 C6.34 25 5.68 25 5 25 C5 24.01 5 23.02 5 22 C5.99 22 6.98 22 8 22 C8 21.34 8 20.68 8 20 C-2.52060929 22.11908007 -11.55572057 24.72311035 -21 30 C-22.84914346 30.94736939 -24.70307751 31.88546804 -26.5625 32.8125 C-27.34753906 33.21082031 -28.13257812 33.60914063 -28.94140625 34.01953125 C-33.240469 36.06709244 -37.29452174 36.64997851 -42 36 C-45 34.375 -45 34.375 -47 32 C-47.72963136 28.27077303 -47.25377209 26.4863965 -45.5 23.125 C-39.7687071 15.48995596 -33.64264848 10.91365214 -25 7 C-23.31868158 6.02483532 -21.64203313 5.03995432 -20 4 C-19.62903226 9.56451613 -19.62903226 9.56451613 -21.4375 11.6875 C-21.953125 12.120625 -22.46875 12.55375 -23 13 C-23.33 13.99 -23.66 14.98 -24 16 C-23.34773438 15.86722656 -22.69546875 15.73445313 -22.0234375 15.59765625 C-17.3591713 14.65517178 -12.70131546 13.74231297 -8 13 C-8 13.66 -8 14.32 -8 15 C-9.25103516 15.36351562 -9.25103516 15.36351562 -10.52734375 15.734375 C-17.25630445 17.73841828 -23.68130283 19.93045202 -30 23 C-30.33 22.34 -30.66 21.68 -31 21 C-31.66 21 -32.32 21 -33 21 C-33 20.34 -33 19.68 -33 19 C-35.31 19.33 -37.62 19.66 -40 20 C-40.33 20.99 -40.66 21.98 -41 23 C-41.99 23 -42.98 23 -44 23 C-44 23.66 -44 24.32 -44 25 C-43.01 25 -42.02 25 -41 25 C-40.9175 25.94875 -40.835 26.8975 -40.75 27.875 C-40.34925077 31.10461791 -40.34925077 31.10461791 -37.9375 32.375 C-37.298125 32.58125 -36.65875 32.7875 -36 33 C-35.67 32.34 -35.34 31.68 -35 31 C-34.319375 30.87625 -33.63875 30.7525 -32.9375 30.625 C-28.15259458 29.60693502 -23.47788087 27.71434181 -20.2421875 23.9609375 C-17.18880732 21.29055971 -14.07656898 20.9725612 -10.1875 20.4375 C-4.65038299 19.63162851 -0.07885649 18.39668914 5 16 C1.7 15.67 -1.6 15.34 -5 15 C-5 14.34 -5 13.68 -5 13 C-1.7 12.34 1.6 11.68 5 11 C5 11.66 5 12.32 5 13 C6.32 13 7.64 13 9 13 C9 12.34 9 11.68 9 11 C7.1128125 10.9690625 7.1128125 10.9690625 5.1875 10.9375 C4.47980469 10.92589844 3.77210937 10.91429687 3.04296875 10.90234375 C0.79694539 10.91736783 0.79694539 10.91736783 -2 12 C-2.99 11.34 -3.98 10.68 -5 10 C-4.030625 9.7525 -3.06125 9.505 -2.0625 9.25 C1.06847068 8.35259966 1.06847068 8.35259966 2 6.125 C2 3.57952098 1.30913891 2.15622879 0 0 Z " fill="#F8D9CD" transform="translate(49,15)"/>
<path d="M0 0 C0.8559375 -0.01546875 1.711875 -0.0309375 2.59375 -0.046875 C10.03443875 -0.00177992 15.78653771 1.95050693 21.78125 6.36328125 C24.83841029 10.81079901 23.83466947 16.35852514 23.25 21.5 C21.75995277 27.53954053 19.3709854 30.87372496 14.27661133 34.34423828 C10.82913289 36.31031019 7.17031465 37.34083571 3.375 38.4375 C-2.5991184 40.28243056 -7.69929736 42.12576653 -12.6328125 46.10546875 C-18.8047744 50.17076469 -24.86756433 50.96195296 -32.125 50.8125 C-32.93066406 50.81572266 -33.73632812 50.81894531 -34.56640625 50.82226562 C-40.48223531 50.76776469 -40.48223531 50.76776469 -42.75 48.5 C-43.00386054 45.86693488 -43.12027927 43.38416627 -43.125 40.75 C-43.14949219 40.04617187 -43.17398438 39.34234375 -43.19921875 38.6171875 C-43.2379173 31.67724683 -40.00149703 27.50213384 -35.3125 22.5625 C-31.85198407 19.12810118 -28.29411743 17.10125432 -23.9375 14.9375 C-18.70096003 12.47696574 -18.70096003 12.47696574 -15.75 7.8125 C-15.42 6.719375 -15.09 5.62625 -14.75 4.5 C-10.4014103 -0.34432893 -6.08771172 -0.10806589 0 0 Z M-13.75 5.5 C-14.08 6.655 -14.41 7.81 -14.75 9 C-15.75 12.5 -15.75 12.5 -18.375 14.6875 C-20.0935898 15.61044638 -21.81854443 16.53001524 -23.60546875 17.3125 C-30.93217433 20.58831248 -36.22399594 25.90235785 -40.8125 32.4375 C-42.13778696 36.76677073 -42.3452315 41.00870779 -41.75 45.5 C-40.02773504 48.74849977 -40.02773504 48.74849977 -36.75 49.5 C-26.93969404 50.42082294 -20.10344301 48.29915506 -12.1875 42.5625 C-6.68801602 38.69666555 -1.86311858 37.2889623 4.5769043 35.93994141 C11.64411637 34.37861056 16.25376011 31.49435984 20.25 25.5 C22.04084798 20.09603768 22.85210665 15.05396971 21.25 9.5 C17.83377944 4.31676881 13.30928233 3.25000324 7.51953125 2.0078125 C-4.01295897 0.18890836 -4.01295897 0.18890836 -13.75 5.5 Z " fill="#0F0808" transform="translate(42.75,7.5)"/>
<path d="M0 0 C2.57842177 0.98052659 3.85030368 1.754832 5.49609375 3.94921875 C5.68359375 6.63671875 5.68359375 6.63671875 5.49609375 8.94921875 C3.51609375 8.28921875 1.53609375 7.62921875 -0.50390625 6.94921875 C-0.50390625 5.95921875 -0.50390625 4.96921875 -0.50390625 3.94921875 C0.15609375 3.61921875 0.81609375 3.28921875 1.49609375 2.94921875 C-1.2057368 1.59830347 -3.62198831 1.61063817 -6.62890625 1.38671875 C-8.27246094 1.26103516 -8.27246094 1.26103516 -9.94921875 1.1328125 C-10.79226562 1.07222656 -11.6353125 1.01164063 -12.50390625 0.94921875 C-12.17390625 2.26921875 -11.84390625 3.58921875 -11.50390625 4.94921875 C-14.47390625 4.45421875 -14.47390625 4.45421875 -17.50390625 3.94921875 C-17.50390625 4.93921875 -17.50390625 5.92921875 -17.50390625 6.94921875 C-16.84390625 6.61921875 -16.18390625 6.28921875 -15.50390625 5.94921875 C-13.50430613 5.90922675 -11.50343383 5.90575076 -9.50390625 5.94921875 C-9.17390625 7.59921875 -8.84390625 9.24921875 -8.50390625 10.94921875 C-9.16390625 10.61921875 -9.82390625 10.28921875 -10.50390625 9.94921875 C-10.50390625 9.28921875 -10.50390625 8.62921875 -10.50390625 7.94921875 C-12.15390625 7.94921875 -13.80390625 7.94921875 -15.50390625 7.94921875 C-14.54525116 10.27997804 -14.54525116 10.27997804 -11.50390625 11.94921875 C-12.30828125 11.78421875 -13.11265625 11.61921875 -13.94140625 11.44921875 C-16.23235055 10.91730036 -16.23235055 10.91730036 -17.50390625 10.94921875 C-17.50390625 12.26921875 -17.50390625 13.58921875 -17.50390625 14.94921875 C-18.64859375 14.85640625 -18.64859375 14.85640625 -19.81640625 14.76171875 C-22.54915937 14.6902379 -22.54915937 14.6902379 -24.31640625 16.44921875 C-24.70828125 16.94421875 -25.10015625 17.43921875 -25.50390625 17.94921875 C-24.84390625 18.60921875 -24.18390625 19.26921875 -23.50390625 19.94921875 C-26.14390625 19.94921875 -28.78390625 19.94921875 -31.50390625 19.94921875 C-31.17390625 18.62921875 -30.84390625 17.30921875 -30.50390625 15.94921875 C-29.84390625 15.94921875 -29.18390625 15.94921875 -28.50390625 15.94921875 C-28.52710938 15.36914062 -28.5503125 14.7890625 -28.57421875 14.19140625 C-28.68464624 9.41147342 -28.68962668 5.32065961 -26.50390625 0.94921875 C-18.68710266 -4.79039228 -8.78375674 -2.20468795 0 0 Z " fill="#E0796B" transform="translate(56.50390625,11.05078125)"/>
<path d="M0 0 C0.37096774 5.56451613 0.37096774 5.56451613 -1.4375 7.6875 C-1.953125 8.120625 -2.46875 8.55375 -3 9 C-3.33 9.99 -3.66 10.98 -4 12 C-3.34773438 11.86722656 -2.69546875 11.73445313 -2.0234375 11.59765625 C2.6408287 10.65517178 7.29868454 9.74231297 12 9 C12 9.66 12 10.32 12 11 C10.74896484 11.36351562 10.74896484 11.36351562 9.47265625 11.734375 C2.74369555 13.73841828 -3.68130283 15.93045202 -10 19 C-10.33 18.34 -10.66 17.68 -11 17 C-11.66 17 -12.32 17 -13 17 C-13 16.34 -13 15.68 -13 15 C-15.31 15.33 -17.62 15.66 -20 16 C-20.33 16.99 -20.66 17.98 -21 19 C-21.99 19 -22.98 19 -24 19 C-24 19.66 -24 20.32 -24 21 C-23.01 21 -22.02 21 -21 21 C-20.375 24.375 -20.375 24.375 -20 28 C-20.66 28.66 -21.32 29.32 -22 30 C-23.65 27.69 -25.3 25.38 -27 23 C-23.89489968 14.92673916 -17.36546595 8.88447741 -9.6875 5.125 C-8.88699219 4.77695312 -8.08648438 4.42890625 -7.26171875 4.0703125 C-5.06404128 3.03030624 -2.33156742 0 0 0 Z " fill="#CF6962" transform="translate(29,19)"/>
<path d="M0 0 C1.93719378 -0.05406122 3.87481921 -0.09282025 5.8125 -0.125 C6.89144531 -0.14820313 7.97039063 -0.17140625 9.08203125 -0.1953125 C12 0 12 0 15 2 C14.67 2.66 14.34 3.32 14 4 C13.01 4.33 12.02 4.66 11 5 C11 5.66 11 6.32 11 7 C10.34 7 9.68 7 9 7 C8.34 6.34 7.68 5.68 7 5 C7.226875 5.5775 7.45375 6.155 7.6875 6.75 C8 9 8 9 7.0625 11.25 C3.84616026 13.97901554 1.12871935 13.2707357 -3 13 C-2.67 13.66 -2.34 14.32 -2 15 C-9.28571429 18.57142857 -9.28571429 18.57142857 -14 17 C-11.47211993 14.20127563 -9.79588866 12.54226981 -6 12 C-5.67 10.68 -5.34 9.36 -5 8 C-4.34 8.33 -3.68 8.66 -3 9 C-3 8.34 -3 7.68 -3 7 C-1.35 6.67 0.3 6.34 2 6 C2.66 7.32 3.32 8.64 4 10 C3.67 8.68 3.34 7.36 3 6 C0.36 6 -2.28 6 -5 6 C-5.33 5.01 -5.66 4.02 -6 3 C-4.1875 2.375 -4.1875 2.375 -2 2 C-1.01 2.66 -0.02 3.32 1 4 C0.67 2.68 0.34 1.36 0 0 Z " fill="#8A4D3D" transform="translate(44,12)"/>
<path d="M0 0 C0 0.66 0 1.32 0 2 C-0.99 2 -1.98 2 -3 2 C-2.67 3.32 -2.34 4.64 -2 6 C-15.44874715 10.77676538 -15.44874715 10.77676538 -23 9 C-22.5 7.1875 -22.5 7.1875 -21 5 C-18.43682933 3.6733941 -15.75374798 2.84461599 -13 2 C-11.80375 1.608125 -10.6075 1.21625 -9.375 0.8125 C-6.10565681 0.0254359 -3.34627993 -0.16323317 0 0 Z " fill="#98796B" transform="translate(57,35)"/>
<path d="M0 0 C0.95712891 0.23396484 0.95712891 0.23396484 1.93359375 0.47265625 C2.75988281 0.66730469 3.58617187 0.86195312 4.4375 1.0625 C5.26121094 1.25972656 6.08492187 1.45695312 6.93359375 1.66015625 C7.61550781 1.77230469 8.29742187 1.88445313 9 2 C9.33 1.67 9.66 1.34 10 1 C15.52941176 0.76470588 15.52941176 0.76470588 18 2 C18 2.66 18 3.32 18 4 C17.21625 3.814375 16.4325 3.62875 15.625 3.4375 C13.02910225 2.74037734 13.02910225 2.74037734 11 4 C8.6670134 4.04022391 6.33293334 4.04320247 4 4 C6.52560108 4.84186703 8.57332877 5.26251314 11.1875 5.5625 C12.445625 5.706875 13.70375 5.85125 15 6 C11.26647112 10.20463662 6.16306394 11.74946028 0.6328125 12.1875 C-1.2458316 12.1875 -3.12414436 12.1023194 -5 12 C-4.01 11.67 -3.02 11.34 -2 11 C-2 9.68 -2 8.36 -2 7 C-2.66 6.67 -3.32 6.34 -4 6 C-2.35 6 -0.7 6 1 6 C0.67 5.01 0.34 4.02 0 3 C0 2.01 0 1.02 0 0 Z " fill="#E4796C" transform="translate(40,24)"/>
<path d="M0 0 C1.32 0.66 2.64 1.32 4 2 C4 2.66 4 3.32 4 4 C4.66 4 5.32 4 6 4 C5.67 3.01 5.34 2.02 5 1 C5.66 1 6.32 1 7 1 C7 1.66 7 2.32 7 3 C8.65 3.33 10.3 3.66 12 4 C12.33 2.68 12.66 1.36 13 0 C15.09749995 2.35968744 15.96905704 3.54616994 16.1875 6.75 C16.0946875 7.86375 16.0946875 7.86375 16 9 C15.01 9.495 15.01 9.495 14 10 C14 9.34 14 8.68 14 8 C13.01 8.99 12.02 9.98 11 11 C11.66 11.33 12.32 11.66 13 12 C12.01 13.485 12.01 13.485 11 15 C10.34 15 9.68 15 9 15 C9 13.68 9 12.36 9 11 C7.1128125 10.9690625 7.1128125 10.9690625 5.1875 10.9375 C4.47980469 10.92589844 3.77210937 10.91429687 3.04296875 10.90234375 C0.79694539 10.91736783 0.79694539 10.91736783 -2 12 C-2.99 11.34 -3.98 10.68 -5 10 C-4.030625 9.7525 -3.06125 9.505 -2.0625 9.25 C1.06847068 8.35259966 1.06847068 8.35259966 2 6.125 C2 3.57952098 1.30913891 2.15622879 0 0 Z " fill="#FCF1E8" transform="translate(49,15)"/>
<path d="M0 0 C0.33 0 0.66 0 1 0 C1.37096774 5.56451613 1.37096774 5.56451613 -0.4375 7.6875 C-0.953125 8.120625 -1.46875 8.55375 -2 9 C-2.33 9.99 -2.66 10.98 -3 12 C-2.34773438 11.86722656 -1.69546875 11.73445313 -1.0234375 11.59765625 C3.6408287 10.65517178 8.29868454 9.74231297 13 9 C13 9.66 13 10.32 13 11 C11.74896484 11.36351562 11.74896484 11.36351562 10.47265625 11.734375 C3.74369555 13.73841828 -2.68130283 15.93045202 -9 19 C-9.33 18.34 -9.66 17.68 -10 17 C-10.66 17 -11.32 17 -12 17 C-12 16.34 -12 15.68 -12 15 C-13.32 14.67 -14.64 14.34 -16 14 C-15.40832031 13.76925781 -14.81664062 13.53851563 -14.20703125 13.30078125 C-8.14846836 10.80026508 -3.57947587 8.38459116 -0.6875 2.1875 C-0.460625 1.465625 -0.23375 0.74375 0 0 Z " fill="#F8CABC" transform="translate(28,19)"/>
<path d="M0 0 C0.99 0.66 1.98 1.32 3 2 C3 2.66 3 3.32 3 4 C0.730384 5.14829977 -1.54060778 6.29371978 -3.8125 7.4375 C-4.45509766 7.76298828 -5.09769531 8.08847656 -5.75976562 8.42382812 C-11.23364828 11.1749505 -15.80518744 12.86775585 -22 12 C-25 10.3125 -25 10.3125 -27 8 C-27.3125 5.25 -27.3125 5.25 -27 3 C-26.113125 3.804375 -25.22625 4.60875 -24.3125 5.4375 C-21.61712968 7.7039159 -19.57936522 8.68417366 -16 9 C-15.67 8.34 -15.34 7.68 -15 7 C-14.319375 6.87625 -13.63875 6.7525 -12.9375 6.625 C-8.11765824 5.59950175 -3.50128967 3.50128967 0 0 Z " fill="#F9DFD0" transform="translate(29,39)"/>
<path d="M0 0 C0.99 0 1.98 0 3 0 C3.12375 0.7425 3.2475 1.485 3.375 2.25 C3.9569895 4.81075381 4.80421396 6.68814698 6 9 C6 9.66 6 10.32 6 11 C5.236875 10.938125 4.47375 10.87625 3.6875 10.8125 C0.95474688 10.74101915 0.95474688 10.74101915 -0.8125 12.5 C-1.204375 12.995 -1.59625 13.49 -2 14 C-1.34 14.66 -0.68 15.32 0 16 C-2.64 16 -5.28 16 -8 16 C-7.67 14.68 -7.34 13.36 -7 12 C-6.34 12 -5.68 12 -5 12 C-4.731875 11.319375 -4.46375 10.63875 -4.1875 9.9375 C-2.83946694 6.60289191 -1.42463702 3.30256763 0 0 Z " fill="#E86359" transform="translate(33,15)"/>
<path d="M0 0 C0.29132812 0.62519531 0.58265625 1.25039063 0.8828125 1.89453125 C2.23385119 4.44071956 3.5594515 5.49260239 6 7 C8.14733927 7.70514846 8.14733927 7.70514846 10 8 C10 8.66 10 9.32 10 10 C10.99 10.33 11.98 10.66 13 11 C13 11.66 13 12.32 13 13 C13.66 13.33 14.32 13.66 15 14 C13.41705218 14.05437607 11.83355744 14.09296271 10.25 14.125 C9.36828125 14.14820313 8.4865625 14.17140625 7.578125 14.1953125 C4.85093574 13.98870725 3.28684592 13.47305841 1 12 C-0.26237731 9.47524538 -0.09856404 7.68799534 -0.0625 4.875 C-0.05347656 3.96492188 -0.04445312 3.05484375 -0.03515625 2.1171875 C-0.02355469 1.41851562 -0.01195313 0.71984375 0 0 Z " fill="#876A61" transform="translate(1,43)"/>
<path d="M0 0 C19.02643196 -0.91083983 19.02643196 -0.91083983 25.828125 4.4375 C27.47472942 6.63297256 27.21628855 8.33244125 27 11 C25.02 10.34 23.04 9.68 21 9 C21 8.01 21 7.02 21 6 C21.66 5.67 22.32 5.34 23 5 C20.29816945 3.64908472 17.88191794 3.66141942 14.875 3.4375 C13.23144531 3.31181641 13.23144531 3.31181641 11.5546875 3.18359375 C10.71164063 3.12300781 9.86859375 3.06242188 9 3 C9.33 4.32 9.66 5.64 10 7 C9.01 6.67 8.02 6.34 7 6 C6.3125 3.9375 6.3125 3.9375 6 2 C4.35 2 2.7 2 1 2 C0.67 1.34 0.34 0.68 0 0 Z " fill="#C98079" transform="translate(35,9)"/>
<path d="M0 0 C0.66 0 1.32 0 2 0 C3.37833005 4.54848918 2.79555504 7.62821382 1 12 C-0.87152725 14.08005396 -2.65984097 15.39114066 -5 17 C-5.66 17 -6.32 17 -7 17 C-7 16.01 -7 15.02 -7 14 C-6.01 14 -5.02 14 -4 14 C-4 13.34 -4 12.68 -4 12 C-4.99 11.67 -5.98 11.34 -7 11 C-5.824375 10.1028125 -5.824375 10.1028125 -4.625 9.1875 C-1.85425677 7.08914751 -1.85425677 7.08914751 0 4 C0 2.68 0 1.36 0 0 Z " fill="#C1A59A" transform="translate(61,23)"/>
<path d="M0 0 C0.99 0.33 1.98 0.66 3 1 C2.43410156 1.47050781 1.86820313 1.94101562 1.28515625 2.42578125 C0.18494141 3.35970703 0.18494141 3.35970703 -0.9375 4.3125 C-2.03384766 5.23482422 -2.03384766 5.23482422 -3.15234375 6.17578125 C-5.23820366 7.95975519 -5.23820366 7.95975519 -6 11 C-6.99 11 -7.98 11 -9 11 C-9 11.66 -9 12.32 -9 13 C-8.01 13 -7.02 13 -6 13 C-5.375 16.375 -5.375 16.375 -5 20 C-5.66 20.66 -6.32 21.32 -7 22 C-8.65 19.69 -10.3 17.38 -12 15 C-9.55667769 8.647362 -4.88022597 4.60398677 0 0 Z " fill="#D97E72" transform="translate(14,27)"/>
<path d="M0 0 C0.66 0 1.32 0 2 0 C1.88122962 6.05728924 1.88122962 6.05728924 -0.34375 8.4375 C-4.00686058 11.10158042 -7.98886361 13.01370901 -12.06640625 14.953125 C-15.08312256 16.58641787 -17.45582494 18.71024245 -20 21 C-20 18 -20 18 -17.1875 15.1875 C-14.06198548 12.59357914 -10.81230833 10.81717365 -7.1875 9 C-2.83571478 6.78561993 -2.83571478 6.78561993 -0.3125 2.625 C-0.209375 1.75875 -0.10625 0.8925 0 0 Z " fill="#1A0E0C" transform="translate(27,13)"/>
<path d="M0 0 C2.31 0 4.62 0 7 0 C6.67 0.99 6.34 1.98 6 3 C3 4 3 4 2 4 C1.61781233 5.65614657 1.28604898 7.32457024 1 9 C1.33 9.33 1.66 9.66 2 10 C2 8.68 2 7.36 2 6 C2.66 6 3.32 6 4 6 C3.67 7.65 3.34 9.3 3 11 C3.66 11.33 4.32 11.66 5 12 C4.67 12.66 4.34 13.32 4 14 C1.525 13.01 1.525 13.01 -1 12 C-1 10.02 -1 8.04 -1 6 C-1.99 6 -2.98 6 -4 6 C-4 5.34 -4 4.68 -4 4 C-3.01 4 -2.02 4 -1 4 C-0.67 2.68 -0.34 1.36 0 0 Z " fill="#DA4E44" transform="translate(9,34)"/>
<path d="M0 0 C-1.48235762 2.96471523 -3.83824684 3.03664379 -6.80859375 4.078125 C-9.68173498 5.28679047 -11.93681218 6.99990778 -14.41796875 8.859375 C-18.83595835 12.04469096 -22.65020196 12.209796 -28 12 C-28 11.67 -28 11.34 -28 11 C-26.7625 10.67 -25.525 10.34 -24.25 10 C-18.76222599 8.21126354 -14.44574151 5.0997022 -9.796875 1.7421875 C-6.46321894 -0.33436362 -3.69393015 -1.84696507 0 0 Z " fill="#1A0E0B" transform="translate(44,45)"/>
<path d="M0 0 C1.49080078 0.02707031 1.49080078 0.02707031 3.01171875 0.0546875 C3.77097656 0.07789063 4.53023437 0.10109375 5.3125 0.125 C4.6525 0.785 3.9925 1.445 3.3125 2.125 C3.6425 2.785 3.9725 3.445 4.3125 4.125 C0.6825 4.125 -2.9475 4.125 -6.6875 4.125 C-7.78555807 8.76545375 -7.78555807 8.76545375 -7.6875 12.125 C-8.3475 12.785 -9.0075 13.445 -9.6875 14.125 C-10.79757084 9.46270246 -10.68179508 6.51244919 -8.6875 2.125 C-5.26655758 -0.15562828 -4.00562778 -0.09425007 0 0 Z " fill="#E29990" transform="translate(38.6875,9.875)"/>
<path d="M0 0 C0.886875 0.804375 1.77375 1.60875 2.6875 2.4375 C5.38287032 4.7039159 7.42063478 5.68417366 11 6 C11.33 5.34 11.66 4.68 12 4 C13.32 4 14.64 4 16 4 C15.67 4.99 15.34 5.98 15 7 C14.34 7 13.68 7 13 7 C13 7.66 13 8.32 13 9 C5.8605042 9.48403361 5.8605042 9.48403361 2 7.3125 C0 5 0 5 -0.3125 2.25 C-0.209375 1.5075 -0.10625 0.765 0 0 Z " fill="#EBC1B6" transform="translate(2,42)"/>
<path d="M0 0 C1.37187835 4.11563506 0.16823377 5.98435134 -1.65625 9.78125 C-5.1727684 15.58759433 -10.06049043 17.1825694 -16.4375 18.8125 C-18.28835313 19.22354836 -20.14157778 19.62465364 -22 20 C-21 18 -21 18 -18.70703125 17.10546875 C-17.75183594 16.80253906 -16.79664063 16.49960937 -15.8125 16.1875 C-10.82362618 14.42519652 -7.56663029 12.93243853 -4 9 C-2.99034211 6.63592299 -2.4992603 4.54622755 -2 2 C-1.34 2 -0.68 2 0 2 C0 1.34 0 0.68 0 0 Z " fill="#0D0302" transform="translate(65,26)"/>
<path d="M0 0 C1.93719378 -0.05406122 3.87481921 -0.09282025 5.8125 -0.125 C6.89144531 -0.14820313 7.97039063 -0.17140625 9.08203125 -0.1953125 C12 0 12 0 15 2 C14.67 2.66 14.34 3.32 14 4 C13.01 4.33 12.02 4.66 11 5 C11 5.66 11 6.32 11 7 C10.34 7 9.68 7 9 7 C8.34 6.01 7.68 5.02 7 4 C4.43717258 3.27034634 4.43717258 3.27034634 2 3 C2 2.34 2 1.68 2 1 C1.34 0.67 0.68 0.34 0 0 Z " fill="#E45A51" transform="translate(44,12)"/>
<path d="M0 0 C0.33 0 0.66 0 1 0 C1.3697479 5.54621849 1.3697479 5.54621849 -0.375 7.6875 C-1.179375 8.3371875 -1.179375 8.3371875 -2 9 C-2.99 10.485 -2.99 10.485 -4 12 C-4.66 11.67 -5.32 11.34 -6 11 C-6 11.66 -6 12.32 -6 13 C-6.99 13 -7.98 13 -9 13 C-9.33 13.99 -9.66 14.98 -10 16 C-12.97 15.505 -12.97 15.505 -16 15 C-13 13 -13 13 -9.5625 11.125 C-4.60451712 8.29037266 -1.83453385 5.50360154 0 0 Z " fill="#FBD0C4" transform="translate(28,19)"/>
<path d="M0 0 C0 0.66 0 1.32 0 2 C-4.62169588 5.85341397 -9.05350921 7.62834433 -15 8 C-14 5 -14 5 -11.85546875 3.61328125 C-10.97503906 3.18402344 -10.09460938 2.75476562 -9.1875 2.3125 C-7.87845703 1.65701172 -7.87845703 1.65701172 -6.54296875 0.98828125 C-4 0 -4 0 0 0 Z " fill="#D4A99C" transform="translate(36,45)"/>
<path d="M0 0 C2.97 0.495 2.97 0.495 6 1 C5.979375 1.804375 5.95875 2.60875 5.9375 3.4375 C5.70366379 5.93354885 5.70366379 5.93354885 7 7 C7.66 7.66 8.32 8.32 9 9 C6.625 10.0625 6.625 10.0625 4 11 C3.34 10.67 2.68 10.34 2 10 C2.33 8.35 2.66 6.7 3 5 C2.34 5 1.68 5 1 5 C1 6.32 1 7.64 1 9 C0.34 8.67 -0.32 8.34 -1 8 C-0.67 5.36 -0.34 2.72 0 0 Z " fill="#F37A6F" transform="translate(10,35)"/>
<path d="M0 0 C0.66 0 1.32 0 2 0 C2 0.66 2 1.32 2 2 C2.928125 2.0928125 2.928125 2.0928125 3.875 2.1875 C6 3 6 3 7.25 5.5625 C7.4975 6.366875 7.745 7.17125 8 8 C7.34 8.66 6.68 9.32 6 10 C6 9.34 6 8.68 6 8 C5.34 8 4.68 8 4 8 C3.67 7.01 3.34 6.02 3 5 C0.36 5 -2.28 5 -5 5 C-5.33 4.01 -5.66 3.02 -6 2 C-4.1875 1.375 -4.1875 1.375 -2 1 C-1.01 1.66 -0.02 2.32 1 3 C0.67 2.01 0.34 1.02 0 0 Z " fill="#CF382E" transform="translate(44,13)"/>
<path d="M0 0 C0 1.32 0 2.64 0 4 C-3.61973402 5.31626692 -6.09567131 6 -10 6 C-10 4.68 -10 3.36 -10 2 C-6.38026598 0.68373308 -3.90432869 0 0 0 Z " fill="#D65B51" transform="translate(38,31)"/>
<path d="M0 0 C0.95712891 0.23396484 0.95712891 0.23396484 1.93359375 0.47265625 C2.75988281 0.66730469 3.58617187 0.86195312 4.4375 1.0625 C5.26121094 1.25972656 6.08492187 1.45695312 6.93359375 1.66015625 C7.61550781 1.77230469 8.29742187 1.88445313 9 2 C9.33 1.67 9.66 1.34 10 1 C15.52941176 0.76470588 15.52941176 0.76470588 18 2 C18 2.66 18 3.32 18 4 C17.21625 3.814375 16.4325 3.62875 15.625 3.4375 C13.02910225 2.74037734 13.02910225 2.74037734 11 4 C9.12620395 4.07033769 7.24998898 4.0843022 5.375 4.0625 C4.37210938 4.05347656 3.36921875 4.04445313 2.3359375 4.03515625 C1.56507812 4.02355469 0.79421875 4.01195312 0 4 C0 2.66666667 0 1.33333333 0 0 Z " fill="#E0897B" transform="translate(40,24)"/>
<path d="M0 0 C0.99 1.32 1.98 2.64 3 4 C-4.28571429 7.57142857 -4.28571429 7.57142857 -9 6 C-6.43586719 3.16113868 -4.79323979 1.65400686 -1 1 C-0.67 0.67 -0.34 0.34 0 0 Z " fill="#D54339" transform="translate(39,23)"/>
<path d="M0 0 C-0.66 0 -1.32 0 -2 0 C-2 0.66 -2 1.32 -2 2 C-0.68 1.67 0.64 1.34 2 1 C-0.22732451 4.34098676 -1.24862913 4.90203779 -5 6 C-5.99 5.67 -6.98 5.34 -8 5 C-7.67 4.67 -7.34 4.34 -7 4 C-7.99 3.34 -8.98 2.68 -10 2 C-3.375 -1.125 -3.375 -1.125 0 0 Z " fill="#C93D34" transform="translate(30,35)"/>
<path d="M0 0 C2.31 0 4.62 0 7 0 C4.62216643 2.75328098 2.48801839 3.96944911 -1 5 C-3.3320802 5.07646165 -5.66845878 5.09143299 -8 5 C-7.67 4.34 -7.34 3.68 -7 3 C-5 2.66666667 -3 2.33333333 -1 2 C-0.67 1.34 -0.34 0.68 0 0 Z " fill="#CA4E45" transform="translate(48,30)"/>
<path d="M0 0 C-5.25 5.25 -5.25 5.25 -9 6 C-9.66 4.68 -10.32 3.36 -11 2 C-7.36576791 -0.32590854 -4.22911669 -0.16265833 0 0 Z " fill="#F6BCAF" transform="translate(41,36)"/>
<path d="M0 0 C1.9375 0.6875 1.9375 0.6875 4 2 C4.75 4.625 4.75 4.625 5 7 C5.66 6.67 6.32 6.34 7 6 C6 9 6 9 3.25 10.75 C-0.17896517 12.06883276 -1.57318882 12.10867421 -5 11 C-5 10.67 -5 10.34 -5 10 C-4.030625 9.7525 -3.06125 9.505 -2.0625 9.25 C1.06847068 8.35259966 1.06847068 8.35259966 2 6.125 C2 3.57952098 1.30913891 2.15622879 0 0 Z " fill="#FBCDBE" transform="translate(49,15)"/>
<path d="M0 0 C2.97 0.495 2.97 0.495 6 1 C6 2.32 6 3.64 6 5 C3.36 4.67 0.72 4.34 -2 4 C-1.34 2.68 -0.68 1.36 0 0 Z " fill="#886359" transform="translate(36,40)"/>
<path d="M0 0 C0.99 0.33 1.98 0.66 3 1 C2.43410156 1.47050781 1.86820313 1.94101562 1.28515625 2.42578125 C0.18494141 3.35970703 0.18494141 3.35970703 -0.9375 4.3125 C-2.03384766 5.23482422 -2.03384766 5.23482422 -3.15234375 6.17578125 C-5.23820366 7.95975519 -5.23820366 7.95975519 -6 11 C-6.99 11 -7.98 11 -9 11 C-9.33 11.99 -9.66 12.98 -10 14 C-10.33 13.34 -10.66 12.68 -11 12 C-3.70159453 3.55353075 -3.70159453 3.55353075 0 0 Z " fill="#E8C3BA" transform="translate(14,27)"/>
<path d="M0 0 C3.63 0.33 7.26 0.66 11 1 C11 1.66 11 2.32 11 3 C11.66 3.33 12.32 3.66 13 4 C9.7 4 6.4 4 3 4 C3 3.34 3 2.68 3 2 C2.01 1.67 1.02 1.34 0 1 C0 0.67 0 0.34 0 0 Z " fill="#7C625A" transform="translate(3,53)"/>
<path d="M0 0 C2.31 0 4.62 0 7 0 C6.67 0.99 6.34 1.98 6 3 C3 4 3 4 2 4 C1.01 4.66 0.02 5.32 -1 6 C-1.99 6 -2.98 6 -4 6 C-4 5.34 -4 4.68 -4 4 C-3.01 4 -2.02 4 -1 4 C-0.67 2.68 -0.34 1.36 0 0 Z " fill="#CB4B40" transform="translate(9,34)"/>
<path d="M0 0 C0.66 0.33 1.32 0.66 2 1 C1.67 1.66 1.34 2.32 1 3 C1.99 3 2.98 3 4 3 C3.67 3.66 3.34 4.32 3 5 C1.01014051 5.38932033 -0.99199544 5.71887936 -3 6 C-3.99 6.33 -4.98 6.66 -6 7 C-6.66 6.34 -7.32 5.68 -8 5 C-6.71475739 4.13619741 -5.42157581 3.28419631 -4.125 2.4375 C-3.04605469 1.72400391 -3.04605469 1.72400391 -1.9453125 0.99609375 C-1.30335937 0.66738281 -0.66140625 0.33867188 0 0 Z " fill="#A98579" transform="translate(33,41)"/>
<path d="M0 0 C0.33 0.66 0.66 1.32 1 2 C1.99 2 2.98 2 4 2 C3.67 2.99 3.34 3.98 3 5 C-0.96 4.67 -4.92 4.34 -9 4 C-9 3.34 -9 2.68 -9 2 C-6.03 1.34 -3.06 0.68 0 0 Z " fill="#EBB4A9" transform="translate(53,26)"/>
<path d="M0 0 C1.98 0.99 3.96 1.98 6 3 C6 4.98 6 6.96 6 9 C4.02 8.34 2.04 7.68 0 7 C0 6.01 0 5.02 0 4 C0.66 3.67 1.32 3.34 2 3 C1.34 2.67 0.68 2.34 0 2 C0 1.34 0 0.68 0 0 Z " fill="#D27168" transform="translate(56,11)"/>
<path d="M0 0 C1.98 0 3.96 0 6 0 C6.33 0.66 6.66 1.32 7 2 C9.52733235 2.65555119 9.52733235 2.65555119 12 3 C8.5647952 5.29013653 7.014669 5.17842973 3 5 C3.33 4.01 3.66 3.02 4 2 C2.68 1.34 1.36 0.68 0 0 Z " fill="#906E67" transform="translate(38,39)"/>
<path d="M0 0 C0.33 0 0.66 0 1 0 C1.375 2.1875 1.375 2.1875 1 5 C-0.82869674 7.08832653 -2.69052559 8.38336791 -5 10 C-5.66 10 -6.32 10 -7 10 C-7 9.01 -7 8.02 -7 7 C-6.01 6.67 -5.02 6.34 -4 6 C-2.6296945 4.02514795 -1.29327628 2.02613283 0 0 Z " fill="#D9B0A8" transform="translate(61,30)"/>
<path d="M0 0 C1.65 0 3.3 0 5 0 C4.67 0.99 4.34 1.98 4 3 C3.34 3 2.68 3 2 3 C2 3.66 2 4.32 2 5 C0.02 5 -1.96 5 -4 5 C-4 4.01 -4 3.02 -4 2 C-2.68 2 -1.36 2 0 2 C0 1.34 0 0.68 0 0 Z " fill="#F7CCBD" transform="translate(13,46)"/>
<path d="M0 0 C2.125 0.9375 2.125 0.9375 4 2 C0.6659053 4.19097652 -2.04179141 5.43454163 -6 6 C-2.25 1.125 -2.25 1.125 0 0 Z " fill="#D4665B" transform="translate(16,28)"/>
<path d="M0 0 C0.66 1.32 1.32 2.64 2 4 C-0.70879335 5.35439668 -3.00933268 5.06501451 -6 5 C-6 4.34 -6 3.68 -6 3 C-4.02 2.01 -2.04 1.02 0 0 Z " fill="#A57F74" transform="translate(53,37)"/>
<path d="M0 0 C2.64 0 5.28 0 8 0 C4.79663178 2.83374881 2.21912747 3.5205537 -2 4 C-1.34 2.68 -0.68 1.36 0 0 Z " fill="#A8877B" transform="translate(19,52)"/>
<path d="M0 0 C2.97 0.495 2.97 0.495 6 1 C6.33 2.32 6.66 3.64 7 5 C4.69 4.67 2.38 4.34 0 4 C0 2.68 0 1.36 0 0 Z " fill="#E69085" transform="translate(41,28)"/>
<path d="M0 0 C0.33 0.66 0.66 1.32 1 2 C0.34 2.66 -0.32 3.32 -1 4 C-0.34 4.66 0.32 5.32 1 6 C-1.64 6 -4.28 6 -7 6 C-2.25 1.125 -2.25 1.125 0 0 Z " fill="#E8776D" transform="translate(32,25)"/>
<path d="M0 0 C-4.625 4 -4.625 4 -8 4 C-7 1 -7 1 -5.125 -0.25 C-3 -1 -3 -1 0 0 Z " fill="#DA6C63" transform="translate(29,40)"/>
<path d="M0 0 C0.66 0.33 1.32 0.66 2 1 C1.34 1.66 0.68 2.32 0 3 C0 3.99 0 4.98 0 6 C-1.65 5.01 -3.3 4.02 -5 3 C-3 1 -3 1 0 0 Z " fill="#DA847B" transform="translate(21,24)"/>
<path d="M0 0 C0.66 0 1.32 0 2 0 C2 0.66 2 1.32 2 2 C2.66 2 3.32 2 4 2 C4 2.99 4 3.98 4 5 C2.35 5.66 0.7 6.32 -1 7 C-1 5.68 -1 4.36 -1 3 C-0.34 3 0.32 3 1 3 C0.67 2.01 0.34 1.02 0 0 Z " fill="#FDEBE6" transform="translate(54,16)"/>
<path d="M0 0 C1.32 1.32 2.64 2.64 4 4 C3.34 5.32 2.68 6.64 2 8 C2 7.34 2 6.68 2 6 C1.34 6 0.68 6 0 6 C0 4.02 0 2.04 0 0 Z " fill="#D1443A" transform="translate(48,15)"/>
<path d="M0 0 C-0.66 0 -1.32 0 -2 0 C-2 0.99 -2 1.98 -2 3 C-3.98 3 -5.96 3 -8 3 C-8 2.34 -8 1.68 -8 1 C-4.93251126 -0.86240388 -3.40254489 -1.2151946 0 0 Z " fill="#E54B43" transform="translate(36,34)"/>
<path d="M0 0 C5.75 -0.125 5.75 -0.125 8 1 C8 1.66 8 2.32 8 3 C7.236875 2.814375 6.47375 2.62875 5.6875 2.4375 C2.91032625 1.77180827 2.91032625 1.77180827 0 3 C0 2.01 0 1.02 0 0 Z " fill="#C67569" transform="translate(50,25)"/>
<path d="M0 0 C3.93846154 3.32307692 3.93846154 3.32307692 4.25 6.75 C4.1675 7.4925 4.085 8.235 4 9 C3.67 8.34 3.34 7.68 3 7 C2.34 7 1.68 7 1 7 C0.67 4.69 0.34 2.38 0 0 Z " fill="#DABFB5" transform="translate(61,15)"/>
<path d="M0 0 C0.33 0.99 0.66 1.98 1 3 C-0.32 4.32 -1.64 5.64 -3 7 C-3.99 6.34 -4.98 5.68 -6 5 C-4.02 3.35 -2.04 1.7 0 0 Z " fill="#BC978A" transform="translate(60,29)"/>
</svg>
