<?xml version="1.0" encoding="UTF-8"?>
<svg version="1.1" xmlns="http://www.w3.org/2000/svg" width="66" height="66">
<path d="M0 0 C1.43739513 -0.02712066 2.87493863 -0.04645067 4.3125 -0.0625 C5.51326172 -0.07990234 5.51326172 -0.07990234 6.73828125 -0.09765625 C9 0 9 0 12 1 C12.33 0.67 12.66 0.34 13 0 C15.33297433 -0.04092937 17.66705225 -0.04241723 20 0 C20 0.66 20 1.32 20 2 C20.60328125 2.08636719 21.2065625 2.17273438 21.828125 2.26171875 C28.35938034 3.40995558 28.35938034 3.40995558 31.375 6.1875 C35.79227891 13.83279042 37.66804464 21.14840858 37 30 C35.5 32.4375 35.5 32.4375 34 34 C34.763125 33.938125 35.52625 33.87625 36.3125 33.8125 C39 34 39 34 40.65234375 35.2265625 C42.37091627 37.48810431 42.3425874 38.75247247 42.25 41.5625 C42.23453125 42.34753906 42.2190625 43.13257813 42.203125 43.94140625 C42 46 42 46 41 48 C34.02795514 51.62010022 27.65708921 51.34708051 20 50 C17.65625 49.11328125 17.65625 49.11328125 16 48 C15.25 45.375 15.25 45.375 15 43 C12.525 43.495 12.525 43.495 10 44 C9.896875 44.928125 9.79375 45.85625 9.6875 46.8125 C8 50 8 50 5.41796875 51.06640625 C2.62300292 51.80909935 -0.15954736 52.45850903 -3 53 C-3 53.66 -3 54.32 -3 55 C-5.8125 55.625 -5.8125 55.625 -9 56 C-9.99 55.34 -10.98 54.68 -12 54 C-12 54.66 -12 55.32 -12 56 C-16.73512523 55.09906909 -19.96863576 52.71238305 -23 49 C-23.71276961 44.48579249 -23.20880274 40.99688114 -21 37 C-20.113125 36.195625 -19.22625 35.39125 -18.3125 34.5625 C-17.1678125 33.2940625 -17.1678125 33.2940625 -16 32 C-16.28674418 29.99279077 -16.63079809 27.99369031 -17 26 C-14.22043031 11.59291739 -14.22043031 11.59291739 -9.125 7.9375 C-8.09375 7.298125 -7.0625 6.65875 -6 6 C-4.88625 4.88625 -4.88625 4.88625 -3.75 3.75 C-3.1725 3.1725 -2.595 2.595 -2 2 C-1.34 2 -0.68 2 0 2 C0 1.34 0 0.68 0 0 Z " fill="#FAF392" transform="translate(23,5)"/>
<path d="M0 0 C1.43739513 -0.02712066 2.87493863 -0.04645067 4.3125 -0.0625 C5.51326172 -0.07990234 5.51326172 -0.07990234 6.73828125 -0.09765625 C9 0 9 0 12 1 C12.33 0.67 12.66 0.34 13 0 C15.33297433 -0.04092937 17.66705225 -0.04241723 20 0 C20 0.66 20 1.32 20 2 C20.60328125 2.08636719 21.2065625 2.17273438 21.828125 2.26171875 C28.35938034 3.40995558 28.35938034 3.40995558 31.375 6.1875 C35.79227891 13.83279042 37.66804464 21.14840858 37 30 C35.5 32.4375 35.5 32.4375 34 34 C34.763125 33.938125 35.52625 33.87625 36.3125 33.8125 C39 34 39 34 40.65234375 35.2265625 C42.37091627 37.48810431 42.3425874 38.75247247 42.25 41.5625 C42.23453125 42.34753906 42.2190625 43.13257813 42.203125 43.94140625 C42 46 42 46 41 48 C34.02795514 51.62010022 27.65708921 51.34708051 20 50 C17.65625 49.11328125 17.65625 49.11328125 16 48 C15.25 45.375 15.25 45.375 15 43 C13.02 42.67 11.04 42.34 9 42 C9 41.01 9 40.02 9 39 C9.99 39 10.98 39 12 39 C12 38.34 12 37.68 12 37 C13.32 37 14.64 37 16 37 C16 36.34 16 35.68 16 35 C16.99 35 17.98 35 19 35 C18.67 33.68 18.34 32.36 18 31 C17.34 31 16.68 31 16 31 C16.33 30.01 16.66 29.02 17 28 C17.99 28 18.98 28 20 28 C20 28.66 20 29.32 20 30 C20.66 30 21.32 30 22 30 C22 30.99 22 31.98 22 33 C23.98 31.68 25.96 30.36 28 29 C27.67 27.68 27.34 26.36 27 25 C29.31 25.33 31.62 25.66 34 26 C33.505 24.515 33.505 24.515 33 23 C32.34 23 31.68 23 31 23 C30.67 23.66 30.34 24.32 30 25 C30 23.35 30 21.7 30 20 C30.66 19.67 31.32 19.34 32 19 C32 18.34 32 17.68 32 17 C31.01 16.34 30.02 15.68 29 15 C29.66 14.34 30.32 13.68 31 13 C27.52263974 9.21965377 27.52263974 9.21965377 23 7 C22.67 7.99 22.34 8.98 22 10 C21.29875 9.525625 20.5975 9.05125 19.875 8.5625 C17.07507321 6.83429354 17.07507321 6.83429354 13.875 6.5 C11 6 11 6 9.5 4.4375 C7.97715632 2.66066747 7.97715632 2.66066747 4.9375 2.875 C3.968125 2.91625 2.99875 2.9575 2 3 C1.34 2.67 0.68 2.34 0 2 C0 1.34 0 0.68 0 0 Z " fill="#926D30" transform="translate(23,5)"/>
<path d="M0 0 C0.66 0.33 1.32 0.66 2 1 C0.90344712 2.31886772 -0.20253423 3.62990057 -1.3125 4.9375 C-1.92738281 5.66839844 -2.54226562 6.39929688 -3.17578125 7.15234375 C-5 9 -5 9 -8 10 C-8.33 11.65 -8.66 13.3 -9 15 C-7.68 14.67 -6.36 14.34 -5 14 C-5.66 13.67 -6.32 13.34 -7 13 C-6.67 12.01 -6.34 11.02 -6 10 C-4.02 10 -2.04 10 0 10 C0.33 12.31 0.66 14.62 1 17 C1.33 16.67 1.66 16.34 2 16 C4.0625 16.4375 4.0625 16.4375 6 17 C6 17.66 6 18.32 6 19 C3.69 19.33 1.38 19.66 -1 20 C-1.04510361 22.37897003 -1.04510361 22.37897003 0 25 C2.2308475 26.67849824 4.47405906 27.75999263 7 29 C6.67 29.99 6.34 30.98 6 32 C5.30132813 31.66742188 4.60265625 31.33484375 3.8828125 30.9921875 C0.60878147 29.86535297 -1.68535766 29.85775962 -5.125 30.125 C-6.15882812 30.18945312 -7.19265625 30.25390625 -8.2578125 30.3203125 C-11.13246488 30.76285494 -11.13246488 30.76285494 -12.8671875 33.0546875 C-13.24101562 33.69664063 -13.61484375 34.33859375 -14 35 C-13.01 35.33 -12.02 35.66 -11 36 C-11.061875 36.928125 -11.12375 37.85625 -11.1875 38.8125 C-11.31485238 41.94961168 -11.31485238 41.94961168 -9.625 43.6875 C-9.08875 44.120625 -8.5525 44.55375 -8 45 C-7.34 45.99 -6.68 46.98 -6 48 C-3.12680099 49.00674926 -3.12680099 49.00674926 0 49 C2.13344768 47.6083124 2.13344768 47.6083124 4 46 C5.32 46 6.64 46 8 46 C8.66 44.68 9.32 43.36 10 42 C10.33 42 10.66 42 11 42 C11 43.65 11 45.3 11 47 C9.3767313 47.6708712 7.75132422 48.33657029 6.125 49 C5.22007813 49.37125 4.31515625 49.7425 3.3828125 50.125 C1 51 1 51 -1 51 C-1 51.66 -1 52.32 -1 53 C-3.8125 53.625 -3.8125 53.625 -7 54 C-7.99 53.34 -8.98 52.68 -10 52 C-10 52.66 -10 53.32 -10 54 C-14.73512523 53.09906909 -17.96863576 50.71238305 -21 47 C-21.71276961 42.48579249 -21.20880274 38.99688114 -19 35 C-18.113125 34.195625 -17.22625 33.39125 -16.3125 32.5625 C-15.549375 31.716875 -14.78625 30.87125 -14 30 C-14.28674418 27.99279077 -14.63079809 25.99369031 -15 24 C-12.22043031 9.59291739 -12.22043031 9.59291739 -7.125 5.9375 C-6.09375 5.298125 -5.0625 4.65875 -4 4 C-2.63113049 2.70317626 -1.2830709 1.38176866 0 0 Z " fill="#3D260A" transform="translate(21,7)"/>
<path d="M0 0 C3.75 0.625 3.75 0.625 6.75 2.625 C6.75 3.285 6.75 3.945 6.75 4.625 C8.0803125 4.5321875 8.0803125 4.5321875 9.4375 4.4375 C13.09485017 4.64451982 14.79777151 5.541074 17.75 7.625 C18.08 6.965 18.41 6.305 18.75 5.625 C21.12948772 5.80125835 22.45225849 6.32219773 24.12890625 8.02734375 C25.37115486 9.53149092 26.56376056 11.07629851 27.75 12.625 C27.09 12.955 26.43 13.285 25.75 13.625 C26.74 14.285 27.73 14.945 28.75 15.625 C28.42 16.615 28.09 17.605 27.75 18.625 C27.09 18.625 26.43 18.625 25.75 18.625 C26.245 20.11 26.245 20.11 26.75 21.625 C27.74 21.295 28.73 20.965 29.75 20.625 C30.245 22.605 30.245 22.605 30.75 24.625 C28.9375 25.25 28.9375 25.25 26.75 25.625 C25.76 24.965 24.77 24.305 23.75 23.625 C24.245 22.14 24.245 22.14 24.75 20.625 C24.18796875 20.50253906 23.6259375 20.38007813 23.046875 20.25390625 C20.56013481 19.5730131 18.34485224 18.63147675 16 17.5625 C15.20078125 17.20027344 14.4015625 16.83804687 13.578125 16.46484375 C12.97484375 16.18769531 12.3715625 15.91054688 11.75 15.625 C11.75 16.285 11.75 16.945 11.75 17.625 C7.79 17.295 3.83 16.965 -0.25 16.625 C0.74 15.305 1.73 13.985 2.75 12.625 C3.41 12.625 4.07 12.625 4.75 12.625 C5.08 11.965 5.41 11.305 5.75 10.625 C6.41 10.315625 7.07 10.00625 7.75 9.6875 C10.09608221 8.7358154 10.09608221 8.7358154 10.75 5.625 C8.4068787 5.88061323 6.07156597 6.21770772 3.75 6.625 C3.42 7.285 3.09 7.945 2.75 8.625 C0.1875 9.25 0.1875 9.25 -2.25 9.625 C-2.25 9.955 -2.25 10.285 -2.25 10.625 C-3.31541016 10.69847656 -3.31541016 10.69847656 -4.40234375 10.7734375 C-5.32144531 10.84820312 -6.24054687 10.92296875 -7.1875 11 C-8.10402344 11.06960937 -9.02054688 11.13921875 -9.96484375 11.2109375 C-10.71894531 11.34757812 -11.47304687 11.48421875 -12.25 11.625 C-12.58 12.285 -12.91 12.945 -13.25 13.625 C-11.93 14.285 -10.61 14.945 -9.25 15.625 C-11.23 15.625 -13.21 15.625 -15.25 15.625 C-15.25 13.975 -15.25 12.325 -15.25 10.625 C-14.65703125 10.38007813 -14.0640625 10.13515625 -13.453125 9.8828125 C-10.88960656 8.41924346 -9.74462048 6.86285978 -8 4.5 C-5.45636007 1.4739456 -4.02676654 0.05921715 0 0 Z " fill="#ECBC6A" transform="translate(27.25,6.375)"/>
<path d="M0 0 C2.64 0 5.28 0 8 0 C7.67 1.32 7.34 2.64 7 4 C6.01 4 5.02 4 4 4 C3.67 4.66 3.34 5.32 3 6 C2.01 6.33 1.02 6.66 0 7 C-0.33 7.99 -0.66 8.98 -1 10 C2.3 10.66 5.6 11.32 9 12 C9 11.34 9 10.68 9 10 C12.11547441 10.67883043 14.85137721 11.74106902 17.75 13.0625 C18.54921875 13.42472656 19.3484375 13.78695313 20.171875 14.16015625 C20.77515625 14.43730469 21.3784375 14.71445312 22 15 C22 15.99 22 16.98 22 18 C21.34 18 20.68 18 20 18 C20.66 19.65 21.32 21.3 22 23 C17.25 26 17.25 26 15 26 C15 25.01 15 24.02 15 23 C14.34 23 13.68 23 13 23 C13 22.34 13 21.68 13 21 C11.68 21.33 10.36 21.66 9 22 C9 21.34 9 20.68 9 20 C4.38492226 18.95785309 4.38492226 18.95785309 0 20 C0 19.34 0 18.68 0 18 C-0.78375 18.474375 -1.5675 18.94875 -2.375 19.4375 C-3.88948678 20.33898023 -5.4235897 21.21179485 -7 22 C-8.32 21.01 -9.64 20.02 -11 19 C-10.67 17.35 -10.34 15.7 -10 14 C-7.69 14 -5.38 14 -3 14 C-3 13.34 -3 12.68 -3 12 C-4.32 11.67 -5.64 11.34 -7 11 C-7 11.66 -7 12.32 -7 13 C-7.66 12.67 -8.32 12.34 -9 12 C-9.1875 8.625 -9.1875 8.625 -9 5 C-5.5647952 2.70986347 -4.014669 2.82157027 0 3 C0 2.01 0 1.02 0 0 Z " fill="#F8CF6E" transform="translate(30,12)"/>
<path d="M0 0 C0.66 0.33 1.32 0.66 2 1 C1.01 2.485 1.01 2.485 0 4 C0.99 4.33 1.98 4.66 3 5 C2.938125 5.928125 2.87625 6.85625 2.8125 7.8125 C2.68514762 10.94961168 2.68514762 10.94961168 4.375 12.6875 C4.91125 13.120625 5.4475 13.55375 6 14 C6.99 15.485 6.99 15.485 8 17 C10.87319901 18.00674926 10.87319901 18.00674926 14 18 C16.13344768 16.6083124 16.13344768 16.6083124 18 15 C19.32 15 20.64 15 22 15 C22.66 13.68 23.32 12.36 24 11 C24.33 11 24.66 11 25 11 C25 12.65 25 14.3 25 16 C23.3767313 16.6708712 21.75132422 17.33657029 20.125 18 C19.22007813 18.37125 18.31515625 18.7425 17.3828125 19.125 C15 20 15 20 13 20 C13 20.66 13 21.32 13 22 C10.1875 22.625 10.1875 22.625 7 23 C6.01 22.34 5.02 21.68 4 21 C4 21.66 4 22.32 4 23 C-0.73512523 22.09906909 -3.96863576 19.71238305 -7 16 C-7.708393 11.513511 -7.24685602 7.95874632 -5 4 C-2.375 1.6875 -2.375 1.6875 0 0 Z " fill="#493310" transform="translate(7,38)"/>
<path d="M0 0 C1.98 0.99 3.96 1.98 6 3 C6 3.66 6 4.32 6 5 C6.66 5 7.32 5 8 5 C8 5.66 8 6.32 8 7 C10.64 7.33 13.28 7.66 16 8 C16 9.32 16 10.64 16 12 C15.34 12 14.68 12 14 12 C14.33 12.99 14.66 13.98 15 15 C15.99 14.67 16.98 14.34 18 14 C18.33 15.32 18.66 16.64 19 18 C17.1875 18.625 17.1875 18.625 15 19 C14.01 18.34 13.02 17.68 12 17 C12.33 16.01 12.66 15.02 13 14 C12.43796875 13.87753906 11.8759375 13.75507813 11.296875 13.62890625 C8.81013481 12.9480131 6.59485224 12.00647675 4.25 10.9375 C3.45078125 10.57527344 2.6515625 10.21304687 1.828125 9.83984375 C1.22484375 9.56269531 0.6215625 9.28554688 0 9 C0 9.66 0 10.32 0 11 C-3.96 10.67 -7.92 10.34 -12 10 C-11.01 8.68 -10.02 7.36 -9 6 C-8.34 6 -7.68 6 -7 6 C-6.67 5.34 -6.34 4.68 -6 4 C-4.02111039 3.27306096 -2.02045442 2.60183749 0 2 C0 1.34 0 0.68 0 0 Z " fill="#DBB05F" transform="translate(39,13)"/>
<path d="M0 0 C0.763125 0.20625 1.52625 0.4125 2.3125 0.625 C2.3125 1.285 2.3125 1.945 2.3125 2.625 C3.3025 2.955 4.2925 3.285 5.3125 3.625 C5.6425 4.285 5.9725 4.945 6.3125 5.625 C6.951875 5.439375 7.59125 5.25375 8.25 5.0625 C8.930625 4.918125 9.61125 4.77375 10.3125 4.625 C11.3125 5.625 11.3125 5.625 11.41015625 7.47265625 C11.37760417 9.5234375 11.34505208 11.57421875 11.3125 13.625 C9.9925 13.625 8.6725 13.625 7.3125 13.625 C7.6425 11.975 7.9725 10.325 8.3125 8.625 C7.6525 8.625 6.9925 8.625 6.3125 8.625 C6.3125 9.285 6.3125 9.945 6.3125 10.625 C5.6525 10.625 4.9925 10.625 4.3125 10.625 C4.3125 11.945 4.3125 13.265 4.3125 14.625 C1.98828125 14.3984375 1.98828125 14.3984375 -0.6875 13.625 C-2.26953125 11.6640625 -2.26953125 11.6640625 -3.5 9.25 C-3.91894531 8.45851563 -4.33789062 7.66703125 -4.76953125 6.8515625 C-5.6875 4.625 -5.6875 4.625 -5.6875 1.625 C-2.6875 -0.375 -2.6875 -0.375 0 0 Z " fill="#CDA55B" transform="translate(52.6875,37.375)"/>
<path d="M0 0 C1.9375 0.375 1.9375 0.375 4 1 C4.99 0.7215625 4.99 0.7215625 6 0.4375 C8.62473206 -0.13666014 9.75722562 0.63831556 12 2 C12 3.32 12 4.64 12 6 C12.66 6 13.32 6 14 6 C14.33 7.32 14.66 8.64 15 10 C14.01 10 13.02 10 12 10 C12 10.66 12 11.32 12 12 C10.37181054 11.77169299 8.7473651 11.51656424 7.125 11.25 C6.22007813 11.11078125 5.31515625 10.9715625 4.3828125 10.828125 C2 10 2 10 0.78125 8.03125 C0.5234375 7.3609375 0.265625 6.690625 0 6 C-1.5412312 4.29078411 -1.5412312 4.29078411 -3 3 C-1.75 1.4375 -1.75 1.4375 0 0 Z " fill="#FAF097" transform="translate(27,30)"/>
<path d="M0 0 C1.89213369 2.38573379 3.02391783 4.07175348 4 7 C6.50447516 8.21869929 6.50447516 8.21869929 9 9 C9 7.68 9 6.36 9 5 C9.66 5 10.32 5 11 5 C11 4.34 11 3.68 11 3 C11.66 3 12.32 3 13 3 C12.67 4.65 12.34 6.3 12 8 C13.32 8 14.64 8 16 8 C16 8.66 16 9.32 16 10 C12.12328894 12.67289025 8.20732397 12.01875653 3.75 11.625 C3.00492188 11.56828125 2.25984375 11.5115625 1.4921875 11.453125 C-0.33935108 11.31223742 -2.16981352 11.15748116 -4 11 C-4.66 8.03 -5.32 5.06 -6 2 C-4.02 1.34 -2.04 0.68 0 0 Z " fill="#8C6C35" transform="translate(48,43)"/>
<path d="M0 0 C4.47400242 -0.36275695 4.47400242 -0.36275695 6.8125 1.25 C8 3 8 3 8 7 C6.02 7.33 4.04 7.66 2 8 C2 8.99 2 9.98 2 11 C1.360625 11.28875 0.72125 11.5775 0.0625 11.875 C-2.15206079 12.82823451 -2.15206079 12.82823451 -3 15 C-1.35 15 0.3 15 2 15 C2 15.66 2 16.32 2 17 C-0.8125 17.3125 -0.8125 17.3125 -4 17 C-6.49088536 14.1769966 -6.9746968 12.44702321 -7.1875 8.6875 C-7.125625 7.800625 -7.06375 6.91375 -7 6 C-4.525 6.99 -4.525 6.99 -2 8 C-1.34 5.36 -0.68 2.72 0 0 Z " fill="#FEFDA0" transform="translate(18,38)"/>
<path d="M0 0 C0.33 0 0.66 0 1 0 C1 1.65 1 3.3 1 5 C-0.6232687 5.6708712 -2.24867578 6.33657029 -3.875 7 C-4.77992187 7.37125 -5.68484375 7.7425 -6.6171875 8.125 C-9 9 -9 9 -11 9 C-11 9.66 -11 10.32 -11 11 C-15.34709642 12.01095266 -18.07411104 12.29010189 -22 10 C-23.375 8.125 -23.375 8.125 -24 6 C-23.625 3.75 -23.625 3.75 -23 2 C-20 3 -20 3 -18 5 C-15.39244352 6.06672765 -12.80825459 6.74826403 -10 7 C-7.73242436 5.71649673 -7.73242436 5.71649673 -6 4 C-4.68 4 -3.36 4 -2 4 C-1.34 2.68 -0.68 1.36 0 0 Z " fill="#7F5D23" transform="translate(31,49)"/>
<path d="M0 0 C1.98 0 3.96 0 6 0 C6.33 0.66 6.66 1.32 7 2 C6.67 2.66 6.34 3.32 6 4 C5.01 4 4.02 4 3 4 C3 4.99 3 5.98 3 7 C3.66 7.33 4.32 7.66 5 8 C4.01 8.66 3.02 9.32 2 10 C1.566875 11.0209375 1.566875 11.0209375 1.125 12.0625 C0 14 0 14 -2.3125 14.625 C-3.6428125 14.810625 -3.6428125 14.810625 -5 15 C-5.845625 15.391875 -6.69125 15.78375 -7.5625 16.1875 C-10 17 -10 17 -12.3125 16.125 C-12.869375 15.75375 -13.42625 15.3825 -14 15 C-12.35 15 -10.7 15 -9 15 C-8.67 12.36 -8.34 9.72 -8 7 C-7.67 7.99 -7.34 8.98 -7 10 C-6.34 10 -5.68 10 -5 10 C-5 9.34 -5 8.68 -5 8 C-3.5459375 7.5978125 -3.5459375 7.5978125 -2.0625 7.1875 C-1.051875 6.795625 -0.04125 6.40375 1 6 C1.33 5.01 1.66 4.02 2 3 C2.66 3 3.32 3 4 3 C4 2.34 4 1.68 4 1 C2.68 1.33 1.36 1.66 0 2 C0 1.34 0 0.68 0 0 Z " fill="#F3D56A" transform="translate(29,40)"/>
<path d="M0 0 C1.175625 0.165 2.35125 0.33 3.5625 0.5 C-0.1875 2.5 -0.1875 2.5 -2.4375 2.5 C-2.4375 3.49 -2.4375 4.48 -2.4375 5.5 C-1.1175 5.5 0.2025 5.5 1.5625 5.5 C1.5625 6.16 1.5625 6.82 1.5625 7.5 C-0.4175 7.5 -2.3975 7.5 -4.4375 7.5 C-3.7775 8.16 -3.1175 8.82 -2.4375 9.5 C-2.4375 9.83 -2.4375 10.16 -2.4375 10.5 C-3.50291016 10.57347656 -3.50291016 10.57347656 -4.58984375 10.6484375 C-5.50894531 10.72320312 -6.42804687 10.79796875 -7.375 10.875 C-8.29152344 10.94460937 -9.20804688 11.01421875 -10.15234375 11.0859375 C-10.90644531 11.22257812 -11.66054687 11.35921875 -12.4375 11.5 C-12.7675 12.16 -13.0975 12.82 -13.4375 13.5 C-12.1175 14.16 -10.7975 14.82 -9.4375 15.5 C-11.4175 15.5 -13.3975 15.5 -15.4375 15.5 C-15.4375 13.85 -15.4375 12.2 -15.4375 10.5 C-14.84453125 10.25507813 -14.2515625 10.01015625 -13.640625 9.7578125 C-11.07710656 8.29424346 -9.93212048 6.73785978 -8.1875 4.375 C-5.56907682 1.22834828 -4.15811067 -0.04415693 0 0 Z " fill="#BF9954" transform="translate(27.4375,6.5)"/>
<path d="M0 0 C2.4375 0.875 2.4375 0.875 3.75 2.75 C4.4375 4.875 4.4375 4.875 4.4375 7.875 C3.1175 7.545 1.7975 7.215 0.4375 6.875 C0.4375 7.535 0.4375 8.195 0.4375 8.875 C0.4375 10.195 0.4375 11.515 0.4375 12.875 C-0.2225 12.875 -0.8825 12.875 -1.5625 12.875 C-2.23658308 11.60808493 -2.90150497 10.33629251 -3.5625 9.0625 C-4.119375 8.00095703 -4.119375 8.00095703 -4.6875 6.91796875 C-5.5625 4.875 -5.5625 4.875 -5.5625 1.875 C-2.5625 -0.125 -2.5625 -0.125 0 0 Z " fill="#F1C875" transform="translate(52.5625,37.125)"/>
<path d="M0 0 C0.66 0 1.32 0 2 0 C2 0.66 2 1.32 2 2 C2.66 2 3.32 2 4 2 C6.43160605 5.36683915 7 6.73350364 7 11 C7.61488281 10.97679687 8.22976562 10.95359375 8.86328125 10.9296875 C9.67152344 10.91164063 10.47976562 10.89359375 11.3125 10.875 C12.11300781 10.85179687 12.91351563 10.82859375 13.73828125 10.8046875 C16 11 16 11 19 13 C16.9160597 12.88556397 14.83283507 12.75804453 12.75 12.625 C11.58984375 12.55539063 10.4296875 12.48578125 9.234375 12.4140625 C6.27386755 12.03506034 4.43557336 11.68616617 2 10 C1.25 7.375 1.25 7.375 1 5 C0.01 5 -0.98 5 -2 5 C-1.125 1.125 -1.125 1.125 0 0 Z " fill="#402C0F" transform="translate(37,43)"/>
<path d="M0 0 C1.43739513 -0.02712066 2.87493863 -0.04645067 4.3125 -0.0625 C5.51326172 -0.07990234 5.51326172 -0.07990234 6.73828125 -0.09765625 C9 0 9 0 12 1 C12.33 0.67 12.66 0.34 13 0 C15.33297433 -0.04092937 17.66705225 -0.04241723 20 0 C20 0.66 20 1.32 20 2 C22.97 2.66 25.94 3.32 29 4 C29 4.99 29 5.98 29 7 C27.88367188 6.51789062 26.76734375 6.03578125 25.6171875 5.5390625 C20.78400012 3.72635097 16.24553435 3.48631596 11.125 3.375 C9.4399857 3.32409322 7.75507517 3.2695843 6.0703125 3.2109375 C5.33570801 3.19337402 4.60110352 3.17581055 3.84423828 3.15771484 C2 3 2 3 0 2 C0 1.34 0 0.68 0 0 Z " fill="#755928" transform="translate(23,5)"/>
<path d="M0 0 C2.375 1.25 2.375 1.25 3.375 4.25 C2.59125 4.37375 1.8075 4.4975 1 4.625 C-1.76557822 5.04117993 -1.76557822 5.04117993 -3.625 7.25 C-3.625 6.59 -3.625 5.93 -3.625 5.25 C-4.285 5.25 -4.945 5.25 -5.625 5.25 C-5.625 4.59 -5.625 3.93 -5.625 3.25 C-8.79166667 5.08333333 -8.79166667 5.08333333 -10.625 8.25 C-11.285 7.92 -11.945 7.59 -12.625 7.25 C-12.625 6.26 -12.625 5.27 -12.625 4.25 C-11.635 4.25 -10.645 4.25 -9.625 4.25 C-9.625 3.59 -9.625 2.93 -9.625 2.25 C-8.305 2.25 -6.985 2.25 -5.625 2.25 C-5.625 1.59 -5.625 0.93 -5.625 0.25 C-2.625 -0.75 -2.625 -0.75 0 0 Z " fill="#94743A" transform="translate(44.625,39.75)"/>
<path d="M0 0 C1.98 0 3.96 0 6 0 C6.33 2.31 6.66 4.62 7 7 C7.33 6.67 7.66 6.34 8 6 C10.0625 6.4375 10.0625 6.4375 12 7 C12 7.66 12 8.32 12 9 C6.63247863 10.34188034 6.63247863 10.34188034 3.6875 8.75 C2 7 2 7 1 4 C0.34 3.67 -0.32 3.34 -1 3 C-0.67 2.01 -0.34 1.02 0 0 Z " fill="#A27E3D" transform="translate(15,17)"/>
<path d="M0 0 C2.64 0 5.28 0 8 0 C7.67 1.32 7.34 2.64 7 4 C6.01 4 5.02 4 4 4 C3.67 4.66 3.34 5.32 3 6 C2.01 6.33 1.02 6.66 0 7 C-0.33 7.66 -0.66 8.32 -1 9 C-2.65 7.02 -4.3 5.04 -6 3 C-4.02 3 -2.04 3 0 3 C0 2.01 0 1.02 0 0 Z " fill="#FDF3B5" transform="translate(30,12)"/>
<path d="M0 0 C0.66 0.33 1.32 0.66 2 1 C2 1.66 2 2.32 2 3 C2.66 3 3.32 3 4 3 C5.01405257 4.32267727 6.01268258 5.65724831 7 7 C7.99 7.66 8.98 8.32 10 9 C3.375 11.125 3.375 11.125 0 10 C-0.74926071 6.33694766 -1.2380014 3.57644848 0 0 Z " fill="#251B07" transform="translate(7,27)"/>
<path d="M0 0 C0.66 1.32 1.32 2.64 2 4 C-0.97 6.475 -0.97 6.475 -4 9 C-5.32 8.01 -6.64 7.02 -8 6 C-7.67 4.35 -7.34 2.7 -7 1 C-3.535 0.505 -3.535 0.505 0 0 Z " fill="#F0C96C" transform="translate(27,25)"/>
<path d="M0 0 C9.99562363 -0.63019694 9.99562363 -0.63019694 14.1875 2 C15.0846875 2.99 15.0846875 2.99 16 4 C15.01 4 14.02 4 13 4 C12.67 4.99 12.34 5.98 12 7 C11.29875 6.525625 10.5975 6.05125 9.875 5.5625 C6.83918663 3.91260143 4.40831214 3.39631536 1 3 C0.67 2.01 0.34 1.02 0 0 Z " fill="#CA9C50" transform="translate(33,8)"/>
<path d="M0 0 C3.82581968 0.53136384 6.18130721 1.32224185 9 4 C9.609375 6.48046875 9.609375 6.48046875 9.75 9.1875 C9.80671875 10.08855469 9.8634375 10.98960938 9.921875 11.91796875 C9.96054687 12.94857422 9.96054687 12.94857422 10 14 C8.35 12.68 6.7 11.36 5 10 C5.66 9.34 6.32 8.68 7 8 C6.175 7.21625 5.35 6.4325 4.5 5.625 C2 3 2 3 2 1 C1.34 0.67 0.68 0.34 0 0 Z " fill="#A48143" transform="translate(47,10)"/>
<path d="M0 0 C2.125 0.9375 2.125 0.9375 4 2 C4 2.66 4 3.32 4 4 C4.78375 4.268125 5.5675 4.53625 6.375 4.8125 C9 6 9 6 11 9 C6.96479403 7.41037341 2.98188718 5.71767682 -1 4 C-1 4.66 -1 5.32 -1 6 C-3.92879371 5.37240135 -6.36095629 4.41377341 -9 3 C-7.88625 2.690625 -6.7725 2.38125 -5.625 2.0625 C-2.2054845 1.17673517 -2.2054845 1.17673517 0 0 Z " fill="#9E762D" transform="translate(40,18)"/>
<path d="M0 0 C3.375 0.25 3.375 0.25 7 1 C8.94241961 3.5335908 9 4.78187214 9 8 C9.66 8 10.32 8 11 8 C11 8.66 11 9.32 11 10 C7.6989701 9.40114059 5.78574977 8.30314403 3.25 6.125 C2.63640625 5.61195312 2.0228125 5.09890625 1.390625 4.5703125 C0 3 0 3 0 0 Z " fill="#33240D" transform="translate(0,51)"/>
<path d="M0 0 C1.9375 0.3125 1.9375 0.3125 4 1 C4.33 1.99 4.66 2.98 5 4 C5.66 4 6.32 4 7 4 C6.67 5.32 6.34 6.64 6 8 C4.68 8.33 3.36 8.66 2 9 C1.896875 8.360625 1.79375 7.72125 1.6875 7.0625 C1.460625 6.381875 1.23375 5.70125 1 5 C0.01 4.67 -0.98 4.34 -2 4 C-1.34 2.68 -0.68 1.36 0 0 Z " fill="#FDF7B2" transform="translate(40,23)"/>
<path d="M0 0 C3 1 3 1 5 3 C6.32392972 4.01241685 7.65599167 5.01439389 9 6 C5.77208445 8.1519437 4.71599191 8.20086443 1 8 C-0.42944945 5.64561267 -1.08661261 4.51967567 -0.625 1.75 C-0.41875 1.1725 -0.2125 0.595 0 0 Z " fill="#6C532C" transform="translate(8,51)"/>
<path d="M0 0 C0.33 0.66 0.66 1.32 1 2 C0.01 2.33 -0.98 2.66 -2 3 C-2.73323796 5.01508358 -2.73323796 5.01508358 -3 7 C-6.3125 7.6875 -6.3125 7.6875 -10 8 C-11.9375 6.5625 -11.9375 6.5625 -13 5 C-9.88772805 5 -7.05847848 5.45627049 -4 6 C-5.32 5.34 -6.64 4.68 -8 4 C-8 3.01 -8 2.02 -8 1 C-5.29120665 -0.35439668 -2.99066732 -0.06501451 0 0 Z " fill="#EDCD82" transform="translate(33,8)"/>
<path d="M0 0 C3.62528568 -0.20140476 5.86501708 0.14223235 9 2 C8.67 2.66 8.34 3.32 8 4 C5.4375 4.625 5.4375 4.625 3 5 C4.32 6.65 5.64 8.3 7 10 C5.35 10 3.7 10 2 10 C0.39644899 6.49223216 -0.22036864 3.85645121 0 0 Z " fill="#6A502A" transform="translate(10,25)"/>
<path d="M0 0 C0.66 0.33 1.32 0.66 2 1 C0.90344712 2.31886772 -0.20253423 3.62990057 -1.3125 4.9375 C-1.92738281 5.66839844 -2.54226562 6.39929688 -3.17578125 7.15234375 C-5 9 -5 9 -8 10 C-8.33 11.65 -8.66 13.3 -9 15 C-8.34 15.33 -7.68 15.66 -7 16 C-7.99 16 -8.98 16 -10 16 C-10 15.01 -10 14.02 -10 13 C-10.66 13 -11.32 13 -12 13 C-10.62763724 8.05949406 -8.2571147 6.63941111 -4 4 C-2.63113049 2.70317626 -1.2830709 1.38176866 0 0 Z " fill="#4B3816" transform="translate(21,7)"/>
<path d="M0 0 C0.99 0.33 1.98 0.66 3 1 C3 3.64 3 6.28 3 9 C1.68 9 0.36 9 -1 9 C-0.67 7.35 -0.34 5.7 0 4 C-0.99 4 -1.98 4 -3 4 C-2.67 3.01 -2.34 2.02 -2 1 C-1.34 0.67 -0.68 0.34 0 0 Z " fill="#C19B57" transform="translate(61,42)"/>
<path d="M0 0 C1.98 0.495 1.98 0.495 4 1 C3.67 2.65 3.34 4.3 3 6 C4.65 6 6.3 6 8 6 C8 6.66 8 7.32 8 8 C5.1875 8.3125 5.1875 8.3125 2 8 C0.0625 5.6875 0.0625 5.6875 -1 3 C-0.67 2.01 -0.34 1.02 0 0 Z " fill="#FBF5AC" transform="translate(12,47)"/>
<path d="M0 0 C0.66 0.33 1.32 0.66 2 1 C1.01 2.485 1.01 2.485 0 4 C0.66 4.33 1.32 4.66 2 5 C1.34 5 0.68 5 0 5 C0 5.99 0 6.98 0 8 C-1.65 8.33 -3.3 8.66 -5 9 C-5.3125 6.75 -5.3125 6.75 -5 4 C-2.5 1.6875 -2.5 1.6875 0 0 Z " fill="#755A2F" transform="translate(7,38)"/>
<path d="M0 0 C2 3 2 3 3 6 C-1.75 9 -1.75 9 -4 9 C-4 8.01 -4 7.02 -4 6 C-4.66 6 -5.32 6 -6 6 C-6 5.34 -6 4.68 -6 4 C-4.02 3.67 -2.04 3.34 0 3 C0 2.01 0 1.02 0 0 Z " fill="#D8B05F" transform="translate(49,29)"/>
<path d="M0 0 C0.763125 0.309375 1.52625 0.61875 2.3125 0.9375 C4.18789677 1.67893593 6.08684652 2.36228217 8 3 C8 3.99 8 4.98 8 6 C7.34 6 6.68 6 6 6 C5.67 6.66 5.34 7.32 5 8 C1.9375 8.625 1.9375 8.625 -1 9 C-0.67 8.34 -0.34 7.68 0 7 C0.66 7 1.32 7 2 7 C2.33 5.68 2.66 4.36 3 3 C2.34 3 1.68 3 1 3 C0.67 2.01 0.34 1.02 0 0 Z " fill="#F4DE94" transform="translate(44,24)"/>
<path d="M0 0 C0.66 0 1.32 0 2 0 C1.67 1.65 1.34 3.3 1 5 C2.32 5 3.64 5 5 5 C5 5.66 5 6.32 5 7 C1.91190305 8.76462683 0.76687864 9 -3 9 C-3 8.34 -3 7.68 -3 7 C-2.34 7 -1.68 7 -1 7 C-1.33 5.35 -1.66 3.7 -2 2 C-1.34 2 -0.68 2 0 2 C0 1.34 0 0.68 0 0 Z " fill="#8A6B33" transform="translate(59,46)"/>
<path d="M0 0 C1.32 0 2.64 0 4 0 C4.33 0.66 4.66 1.32 5 2 C5.99 2.33 6.98 2.66 8 3 C7.67 3.99 7.34 4.98 7 6 C5.35 5.01 3.7 4.02 2 3 C2.309375 3.928125 2.309375 3.928125 2.625 4.875 C2.74875 5.57625 2.8725 6.2775 3 7 C2.34 7.66 1.68 8.32 1 9 C0.29925156 5.846632 0 3.27275026 0 0 Z " fill="#EBD075" transform="translate(9,41)"/>
<path d="M0 0 C0.99 0 1.98 0 3 0 C3 1.65 3 3.3 3 5 C5.31 5.33 7.62 5.66 10 6 C10 6.66 10 7.32 10 8 C6.7 7.34 3.4 6.68 0 6 C-0.33 4.35 -0.66 2.7 -1 1 C-0.67 0.67 -0.34 0.34 0 0 Z " fill="#F9EA97" transform="translate(29,34)"/>
<path d="M0 0 C1.9453125 0.77734375 1.9453125 0.77734375 4.125 1.9375 C5.21167969 2.50791016 5.21167969 2.50791016 6.3203125 3.08984375 C6.87460937 3.39019531 7.42890625 3.69054688 8 4 C7.67 4.99 7.34 5.98 7 7 C3.7 6.01 0.4 5.02 -3 4 C-2.67 3.01 -2.34 2.02 -2 1 C-1.34 0.67 -0.68 0.34 0 0 Z " fill="#634715" transform="translate(20,32)"/>
<path d="M0 0 C0.66 0 1.32 0 2 0 C2.33 0.99 2.66 1.98 3 3 C1.7934375 3.433125 1.7934375 3.433125 0.5625 3.875 C-2.1326468 4.73262568 -2.1326468 4.73262568 -3 7 C-1.68 7.66 -0.36 8.32 1 9 C-0.98 9 -2.96 9 -5 9 C-5 7.35 -5 5.7 -5 4 C-4.360625 3.71125 -3.72125 3.4225 -3.0625 3.125 C-0.84793921 2.17176549 -0.84793921 2.17176549 0 0 Z " fill="#CCB27A" transform="translate(17,13)"/>
<path d="M0 0 C2.9375 1.25 2.9375 1.25 6 3 C6.875 5.1875 6.875 5.1875 7 7 C6.29875 6.46375 5.5975 5.9275 4.875 5.375 C2.00303974 3.62820892 2.00303974 3.62820892 -1.3125 4.8125 C-2.199375 5.204375 -3.08625 5.59625 -4 6 C-4.33 5.01 -4.66 4.02 -5 3 C-3.35 2.67 -1.7 2.34 0 2 C0 1.34 0 0.68 0 0 Z " fill="#D1A04A" transform="translate(39,13)"/>
<path d="M0 0 C2.4375 0.8125 2.4375 0.8125 5 2 C5.33 2.99 5.66 3.98 6 5 C2.86650268 6.04449911 2.01031744 5.93423645 -1 5 C-0.67 3.35 -0.34 1.7 0 0 Z " fill="#6D4E1C" transform="translate(42,39)"/>
<path d="M0 0 C0.99 0 1.98 0 3 0 C3 0.66 3 1.32 3 2 C3.66 2 4.32 2 5 2 C5 3.32 5 4.64 5 6 C5.66 6.33 6.32 6.66 7 7 C5.35 6.67 3.7 6.34 2 6 C1.67 5.01 1.34 4.02 1 3 C0.34 3 -0.32 3 -1 3 C-0.67 2.01 -0.34 1.02 0 0 Z " fill="#BA9044" transform="translate(40,33)"/>
<path d="M0 0 C0.598125 0.61875 1.19625 1.2375 1.8125 1.875 C4.00811144 4.13676954 4.00811144 4.13676954 7 6 C0.25 8 0.25 8 -2 8 C-2 7.01 -2 6.02 -2 5 C-1.34 4.67 -0.68 4.34 0 4 C0 2.68 0 1.36 0 0 Z " fill="#3D280B" transform="translate(10,30)"/>
<path d="M0 0 C-0.33 0.66 -0.66 1.32 -1 2 C-1.66 2 -2.32 2 -3 2 C-3 2.66 -3 3.32 -3 4 C-4.98 4.33 -6.96 4.66 -9 5 C-9 4.01 -9 3.02 -9 2 C-5.5647952 -0.29013653 -4.014669 -0.17842973 0 0 Z " fill="#4B3817" transform="translate(23,56)"/>
<path d="M0 0 C2.875 -0.125 2.875 -0.125 6 0 C8 2 8 2 8.1953125 4.1640625 C8.17210938 4.97617187 8.14890625 5.78828125 8.125 6.625 C8.10695313 7.44226562 8.08890625 8.25953125 8.0703125 9.1015625 C8.03550781 10.04128906 8.03550781 10.04128906 8 11 C7.67 11 7.34 11 7 11 C6.67 8.36 6.34 5.72 6 3 C4.35 3.33 2.7 3.66 1 4 C0.67 2.68 0.34 1.36 0 0 Z " fill="#9A783E" transform="translate(57,40)"/>
<path d="M0 0 C1.41377341 2.63904371 2.37240135 5.07120629 3 8 C0.75 9.125 0.75 9.125 -2 10 C-4.3125 9.125 -4.3125 9.125 -6 8 C-4.35 8 -2.7 8 -1 8 C-0.67 5.36 -0.34 2.72 0 0 Z " fill="#CAA255" transform="translate(21,47)"/>
<path d="M0 0 C0.66 0 1.32 0 2 0 C2 2.64 2 5.28 2 8 C0.02 8 -1.96 8 -4 8 C-3.34 6.68 -2.68 5.36 -2 4 C-1.01 4 -0.02 4 1 4 C0.67 2.68 0.34 1.36 0 0 Z " fill="#F2D578" transform="translate(19,45)"/>
<path d="M0 0 C2.25 1.8125 2.25 1.8125 4 4 C4 4.66 4 5.32 4 6 C0 6 0 6 -1.6875 4.625 C-3 3 -3 3 -4 1 C-2.25 0.25 -2.25 0.25 0 0 Z " fill="#F4C56C" transform="translate(25,16)"/>
<path d="M0 0 C0.66 0.33 1.32 0.66 2 1 C1.34 3.64 0.68 6.28 0 9 C-2.02054804 7.35830472 -4.02043058 5.69088222 -6 4 C-6 3.67 -6 3.34 -6 3 C-4.02 3 -2.04 3 0 3 C0 2.01 0 1.02 0 0 Z " fill="#FBED9F" transform="translate(30,12)"/>
<path d="M0 0 C1.8125 0.1875 1.8125 0.1875 4 1 C6.53370588 4.34811134 7 5.70124217 7 10 C6.34 10 5.68 10 5 10 C3.33333333 6.66666667 1.66666667 3.33333333 0 0 Z " fill="#FAE8A0" transform="translate(46,40)"/>
<path d="M0 0 C2.64 0.66 5.28 1.32 8 2 C8 2.99 8 3.98 8 5 C5.36 4.67 2.72 4.34 0 4 C0 2.68 0 1.36 0 0 Z " fill="#FEFBAE" transform="translate(32,35)"/>
<path d="M0 0 C0.66 0.66 1.32 1.32 2 2 C3.98821313 2.39764263 5.98944339 2.73775349 8 3 C6.64002141 5.71995718 4.65937518 6.67031241 2 8 C2 7.34 2 6.68 2 6 C1.34 5.67 0.68 5.34 0 5 C0 3.35 0 1.7 0 0 Z " fill="#FCE87A" transform="translate(28,24)"/>
<path d="M0 0 C3.03336186 -0.22893297 5.97465051 -0.36475845 9 0 C11.0625 2 11.0625 2 12 4 C10.68 4.33 9.36 4.66 8 5 C8 4.34 8 3.68 8 3 C5.36 2.34 2.72 1.68 0 1 C0 0.67 0 0.34 0 0 Z " fill="#EFCB62" transform="translate(31,29)"/>
<path d="M0 0 C1.65 1.32 3.3 2.64 5 4 C3 6 3 6 1.0546875 6.1953125 C-0.96354167 6.13020833 -2.98177083 6.06510417 -5 6 C-3.625 4 -3.625 4 -2 2 C-1.34 2 -0.68 2 0 2 C0 1.34 0 0.68 0 0 Z " fill="#D9AC57" transform="translate(32,17)"/>
<path d="M0 0 C0.928125 0.33 1.85625 0.66 2.8125 1 C5.92029291 2.14967004 5.92029291 2.14967004 9 2 C9 2.99 9 3.98 9 5 C7.68 5.33 6.36 5.66 5 6 C4.67 5.34 4.34 4.68 4 4 C1.98330173 2.86649466 1.98330173 2.86649466 0 2 C0 1.34 0 0.68 0 0 Z " fill="#FEF798" transform="translate(11,44)"/>
<path d="M0 0 C0.99 0.33 1.98 0.66 3 1 C3 2.98 3 4.96 3 7 C2.34 7 1.68 7 1 7 C-1 4 -1 4 -0.625 1.8125 C-0.41875 1.214375 -0.2125 0.61625 0 0 Z " fill="#987943" transform="translate(8,51)"/>
<path d="M0 0 C0.66 0 1.32 0 2 0 C2.33 1.32 2.66 2.64 3 4 C3.66 3.67 4.32 3.34 5 3 C5 3.99 5 4.98 5 6 C3.35 6 1.7 6 0 6 C-0.38218767 4.34385343 -0.71395102 2.67542976 -1 1 C-0.67 0.67 -0.34 0.34 0 0 Z " fill="#F0DA96" transform="translate(43,44)"/>
<path d="M0 0 C1.98 0 3.96 0 6 0 C6 1.98 6 3.96 6 6 C5.67 5.01 5.34 4.02 5 3 C3.02 3 1.04 3 -1 3 C-0.67 2.01 -0.34 1.02 0 0 Z " fill="#4E350F" transform="translate(15,17)"/>
<path d="M0 0 C4.875 1.75 4.875 1.75 6 4 C5.29875 3.814375 4.5975 3.62875 3.875 3.4375 C0.66111302 2.94843024 -1.83560336 3.33768442 -5 4 C-5.33 3.34 -5.66 2.68 -6 2 C-4.7934375 1.7834375 -4.7934375 1.7834375 -3.5625 1.5625 C-1.07896294 1.25864751 -1.07896294 1.25864751 0 0 Z " fill="#F4D37A" transform="translate(39,16)"/>
<path d="M0 0 C0.66 0 1.32 0 2 0 C2 0.66 2 1.32 2 2 C2.66 2.33 3.32 2.66 4 3 C1 5 1 5 -2 5 C-1.125 1.125 -1.125 1.125 0 0 Z " fill="#65491D" transform="translate(37,43)"/>
<path d="M0 0 C0.33 0.66 0.66 1.32 1 2 C1.99 2 2.98 2 4 2 C3.34 3.32 2.68 4.64 2 6 C1.01 5.67 0.02 5.34 -1 5 C-0.67 3.35 -0.34 1.7 0 0 Z " fill="#FEFEB3" transform="translate(21,40)"/>
<path d="M0 0 C-0.99 0.33 -1.98 0.66 -3 1 C-3 1.66 -3 2.32 -3 3 C-5.93703384 2.37063561 -8.33788628 1.37579827 -11 0 C-9.54263913 -0.19491452 -8.08405407 -0.38069358 -6.625 -0.5625 C-5.81289063 -0.66691406 -5.00078125 -0.77132813 -4.1640625 -0.87890625 C-2 -1 -2 -1 0 0 Z " fill="#AF7D33" transform="translate(42,21)"/>
<path d="M0 0 C1.485 0.99 1.485 0.99 3 2 C3 2.66 3 3.32 3 4 C3.66 4 4.32 4 5 4 C5 4.66 5 5.32 5 6 C3.68 5.67 2.36 5.34 1 5 C1 5.66 1 6.32 1 7 C0.34 6.67 -0.32 6.34 -1 6 C-0.67 4.02 -0.34 2.04 0 0 Z " fill="#F8E08B" transform="translate(22,18)"/>
<path d="M0 0 C3.33537489 1.11179163 4.63707344 2.47411298 7 5 C4.36 5.33 1.72 5.66 -1 6 C-0.34 5.01 0.32 4.02 1 3 C0.67 2.01 0.34 1.02 0 0 Z " fill="#CEA560" transform="translate(18,12)"/>
<path d="M0 0 C1.98 0 3.96 0 6 0 C6.33 0.66 6.66 1.32 7 2 C6.67 2.66 6.34 3.32 6 4 C3.9375 4.625 3.9375 4.625 2 5 C2 4.34 2 3.68 2 3 C2.66 3 3.32 3 4 3 C4 2.34 4 1.68 4 1 C2.68 1.33 1.36 1.66 0 2 C0 1.34 0 0.68 0 0 Z " fill="#CCAB5D" transform="translate(29,40)"/>
<path d="M0 0 C2.31 0 4.62 0 7 0 C6.34 1.32 5.68 2.64 5 4 C3.31503702 3.03114628 1.64821244 2.03013277 0 1 C0 0.67 0 0.34 0 0 Z " fill="#CC9E4C" transform="translate(19,30)"/>
<path d="M0 0 C0.66 0.33 1.32 0.66 2 1 C1.67 1.66 1.34 2.32 1 3 C0.34 3 -0.32 3 -1 3 C-1 3.66 -1 4.32 -1 5 C-2.32 4.67 -3.64 4.34 -5 4 C-4.67 3.01 -4.34 2.02 -4 1 C-2.02 1.495 -2.02 1.495 0 2 C0 1.34 0 0.68 0 0 Z " fill="#A07F45" transform="translate(57,50)"/>
<path d="M0 0 C0 1.98 0 3.96 0 6 C-0.99 6 -1.98 6 -3 6 C-3.33 4.68 -3.66 3.36 -4 2 C-1 0 -1 0 0 0 Z " fill="#A58443" transform="translate(49,43)"/>
<path d="M0 0 C0.33 0.66 0.66 1.32 1 2 C2.32 1.67 3.64 1.34 5 1 C5 1.66 5 2.32 5 3 C4.34 3 3.68 3 3 3 C3 3.99 3 4.98 3 6 C2.01 5.67 1.02 5.34 0 5 C0 3.35 0 1.7 0 0 Z " fill="#FEF29D" transform="translate(28,40)"/>
<path d="M0 0 C0 0.99 0 1.98 0 3 C-0.99 3.33 -1.98 3.66 -3 4 C-3 3.34 -3 2.68 -3 2 C-4.98 2.33 -6.96 2.66 -9 3 C-9 2.34 -9 1.68 -9 1 C-2.25 0 -2.25 0 0 0 Z " fill="#FAE483" transform="translate(16,39)"/>
<path d="M0 0 C-0.33 1.32 -0.66 2.64 -1 4 C-2.32 4.33 -3.64 4.66 -5 5 C-5 3.68 -5 2.36 -5 1 C-2 0 -2 0 0 0 Z " fill="#FEFDC5" transform="translate(47,27)"/>
</svg>
