<?xml version="1.0" encoding="UTF-8"?>
<svg version="1.1" xmlns="http://www.w3.org/2000/svg" width="96" height="96">
<path d="M0 0 C31.68 0 63.36 0 96 0 C96 31.68 96 63.36 96 96 C64.32 96 32.64 96 0 96 C0 64.32 0 32.64 0 0 Z " fill="#0C0906" transform="translate(0,0)"/>
<path d="M0 0 C28.38 0 56.76 0 86 0 C86 19.47 86 38.94 86 59 C86.99 59 87.98 59 89 59 C89 43.16 89 27.32 89 11 C89.66 10.67 90.32 10.34 91 10 C91 36.73 91 63.46 91 91 C64.27 91 37.54 91 10 91 C10.495 90.01 10.495 90.01 11 89 C25.85 89 40.7 89 56 89 C55.34 87.68 54.68 86.36 54 85 C54.99 84.67 55.98 84.34 57 84 C57 83.34 57 82.68 57 82 C56.01 81.67 55.02 81.34 54 81 C54.99 81 55.98 81 57 81 C56.01 80.505 56.01 80.505 55 80 C55 79.34 55 78.68 55 78 C55.66 78 56.32 78 57 78 C56.814375 77.195625 56.62875 76.39125 56.4375 75.5625 C56.293125 74.716875 56.14875 73.87125 56 73 C56.33 72.67 56.66 72.34 57 72 C57.36760731 69.67182036 57.70241581 67.3381615 58 65 C59.299375 64.5978125 59.299375 64.5978125 60.625 64.1875 C64.03125 63.07291667 64.03125 63.07291667 67.1875 61.375 C70 60 70 60 73 60 C74.31853321 50.20891179 74.50021329 43.51337361 69 35 C66 29.31034483 66 29.31034483 66 26 C67.65 26.33 69.3 26.66 71 27 C71.36504603 25.41913952 71.71660506 23.83516093 72.0625 22.25 C72.25972656 21.36828125 72.45695312 20.4865625 72.66015625 19.578125 C73.00328331 16.97509214 72.78445125 15.46917878 72 13 C71.87625 12.154375 71.7525 11.30875 71.625 10.4375 C70.90886382 7.6445689 70.33337748 6.6666982 68 5 C63.59760595 3.41024659 60.26652253 4.26178712 56 6 C53.5313616 8.4686384 53.03818445 10.24503888 52.86328125 13.703125 C52.87096772 15.66061281 52.91278729 17.61832682 52.9921875 19.57421875 C53 22 53 22 52 24 C52.66 24.33 53.32 24.66 54 25 C53.04287109 25.93972656 53.04287109 25.93972656 52.06640625 26.8984375 C51.24011719 27.71570313 50.41382813 28.53296875 49.5625 29.375 C48.73878906 30.18710937 47.91507813 30.99921875 47.06640625 31.8359375 C42.49135953 36.62719625 43.70118317 42.96016606 43.64990234 49.21850586 C43.63347978 50.68188533 43.6063745 52.14518927 43.56787109 53.6081543 C43.34491459 62.1357559 43.60030303 69.08005113 48.01708984 76.68774414 C49.22966005 79.54026587 48.86443513 81.07628975 48 84 C46.02 84 44.04 84 42 84 C42 82.68 42 81.36 42 80 C41.34 80 40.68 80 40 80 C31.30358377 61.30403482 31.30358377 61.30403482 34.5 52.25 C34.7990625 51.55390625 35.098125 50.8578125 35.40625 50.140625 C36.1811855 47.34677859 35.88525627 45.75413061 35 43 C33.46562523 40.67004732 33.46562523 40.67004732 31.5625 38.5 C28.98279322 35.44097401 27.32676313 32.78694199 26 29 C26.99 28.67 27.98 28.34 29 28 C29.37103736 24.33600611 29.69866397 20.67037166 30 17 C30.06832031 16.27941406 30.13664062 15.55882812 30.20703125 14.81640625 C30.37825401 11.86756979 30.34440858 10.39739451 28.375 8.125 C25.45351851 6.74114034 23.24207294 6.13232951 20 6 C16.91357269 7.26262935 15.43197417 8.16788134 13.88671875 11.14453125 C12.42767989 15.84302204 12.59160139 20.61529673 12.44140625 25.50390625 C12 29 12 29 10.49511719 30.76538086 C8.36093181 33.95515858 8.62794355 36.44013988 8.63671875 40.25 C8.63622025 40.94512695 8.63572174 41.64025391 8.63520813 42.35644531 C8.63754274 43.82229479 8.64723521 45.28814872 8.66381836 46.75390625 C8.68742149 48.99255367 8.68437387 51.23000962 8.67773438 53.46875 C8.53673327 61.50629504 8.53673327 61.50629504 11 69 C10.08685929 71.58424788 9.14811961 73.73173251 7.875 76.125 C7.565625 76.75792969 7.25625 77.39085938 6.9375 78.04296875 C4.94154105 81.92766572 4.05372787 82.97313606 0 85 C0 56.95 0 28.9 0 0 Z " fill="#020101" transform="translate(5,5)"/>
<path d="M0 0 C2.19140625 1.2265625 2.19140625 1.2265625 4 3 C5.5539063 10.60957056 3.74743867 17.37506378 0 24 C0.38671875 24.50789063 0.7734375 25.01578125 1.171875 25.5390625 C2.25537861 26.97121826 3.32775153 28.41184256 4.390625 29.859375 C5.68946025 31.58695198 7.08175881 33.24402264 8.5 34.875 C10.75231777 39.5673287 9.33912103 43.14067458 8 48 C5.9175262 57.57937947 7.12171621 67.33887832 8 77 C-2.23 77 -12.46 77 -23 77 C-21.45652937 72.36958812 -19.80658829 68.43751824 -17.609375 64.1484375 C-17.40828125 63.43945312 -17.2071875 62.73046875 -17 62 C-17.46684204 61.16782959 -17.46684204 61.16782959 -17.94311523 60.31884766 C-20.16046725 55.45388822 -19.3313551 49.53358758 -19.31567383 44.24609375 C-19.31251034 42.00731887 -19.33600112 39.76986199 -19.36132812 37.53125 C-19.36360099 36.10416833 -19.36430467 34.67708311 -19.36328125 33.25 C-19.36626221 31.95578125 -19.36924316 30.6615625 -19.37231445 29.328125 C-18.97395347 25.76716966 -18.26000649 24.65121786 -16 22 C-15.49430548 18.43890284 -15.49430548 18.43890284 -15.4375 14.5625 C-15.10999685 4.56869182 -15.10999685 4.56869182 -11.5625 0.25 C-7.5409711 -2.96722312 -4.49433907 -1.57696108 0 0 Z " fill="#9C9B8F" transform="translate(32,12)"/>
<path d="M0 0 C1.9375 1.75 1.9375 1.75 3 4 C3.125 7.0625 3.125 7.0625 3 10 C3.33 10.99 3.66 11.98 4 13 C3.66015625 15.26171875 3.66015625 15.26171875 3.0625 17.6875 C2.86785156 18.49574219 2.67320313 19.30398437 2.47265625 20.13671875 C2.31667969 20.75160156 2.16070312 21.36648437 2 22 C-0.07553648 22.5534764 -1.84365964 23 -4 23 C-3.5875 23.474375 -3.175 23.94875 -2.75 24.4375 C-0.27940154 28.05516203 1.2795644 31.98565027 3 36 C3.33 36.66 3.66 37.32 4 38 C4.04022391 40.3329866 4.04320247 42.66706666 4 45 C3.01 44.01 2.02 43.02 1 42 C0.34 42.66 -0.32 43.32 -1 44 C-3.72869407 43.96712417 -6.2966618 43.43602229 -9 43 C-9.33 41.02 -9.66 39.04 -10 37 C-10 39.31 -10 41.62 -10 44 C-8.75579353 44.5345256 -7.50429064 45.05208611 -6.25 45.5625 C-5.20585938 45.99755859 -5.20585938 45.99755859 -4.140625 46.44140625 C-1.69987216 47.07831803 -0.3596345 46.80248831 2 46 C2.6875 47.75 2.6875 47.75 3 50 C1.56430105 52.7118758 0.34253492 53.81971846 -2.375 55.25 C-5.05649773 56.01614221 -7.22722332 56.15844438 -10 56 C-10.495 53.525 -10.495 53.525 -11 51 C-11.37125 52.3921875 -11.37125 52.3921875 -11.75 53.8125 C-14.47204597 57.6687318 -15.66175471 57.70490955 -20.140625 58.69921875 C-21.23407227 58.94889404 -22.32751953 59.19856934 -23.45410156 59.45581055 C-24.29424805 59.63539307 -25.13439453 59.81497559 -26 60 C-26.31861796 56.01861746 -26.58713554 52.0371337 -26.81176758 48.04931641 C-26.89476478 46.69654266 -26.99086198 45.3445011 -27.10083008 43.99365234 C-27.99854827 32.79906512 -27.99854827 32.79906512 -25.54736328 28.3828125 C-23.80504072 26.38058547 -22.0395575 24.69249738 -20 23 C-18.9919984 22.00806614 -17.9891922 21.01069224 -17 20 C-17.33 19.01 -17.66 18.02 -18 17 C-18.39724804 12.064957 -18.65675597 7.53243061 -16.6875 2.9375 C-11.73441637 -2.74937379 -6.67309682 -2.59509321 0 0 Z " fill="#CA947D" transform="translate(75,10)"/>
<path d="M0 0 C31.68 0 63.36 0 96 0 C96 4.95 96 9.9 96 15 C95.67 15.33 95.34 15.66 95 16 C94.8775669 17.50316769 94.82223715 19.01188167 94.79467773 20.51977539 C94.77473251 21.48069595 94.75478729 22.44161652 94.73423767 23.43165588 C94.71752518 24.476436 94.70081268 25.52121613 94.68359375 26.59765625 C94.6524221 28.19364906 94.6524221 28.19364906 94.62062073 29.82188416 C94.55500746 33.2353544 94.49618577 36.64890429 94.4375 40.0625 C94.39432597 42.37045109 94.35071206 44.678394 94.30664062 46.98632812 C94.19931416 52.65746682 94.09757008 58.32868552 94 64 C93.01 64 92.02 64 91 64 C91 44.53 91 25.06 91 5 C62.62 5 34.24 5 5 5 C5 7.31 5 9.62 5 12 C4.01 12 3.02 12 2 12 C2 35.1 2 58.2 2 82 C1.34 82 0.68 82 0 82 C0 54.94 0 27.88 0 0 Z " fill="#030202" transform="translate(0,0)"/>
<path d="M0 0 C2.19140625 1.2265625 2.19140625 1.2265625 4 3 C5.40896961 9.89980707 4.16711492 16.04497818 0.6796875 22.0625 C-0.24890725 24.03848997 -0.24890725 24.03848997 0.8203125 26.12109375 C1.20960937 26.74113281 1.59890625 27.36117187 2 28 C2.33 28.680625 2.66 29.36125 3 30.0625 C4.07403709 32.23163505 4.07403709 32.23163505 6 35 C1.99346695 34.3836103 -0.80463901 32.41427274 -4 30 C-4.33 29.01 -4.66 28.02 -5 27 C-8.50294871 25.28432339 -8.50294871 25.28432339 -12 24 C-12 24.66 -12 25.32 -12 26 C-12.66 26.33 -13.32 26.66 -14 27 C-14.31241371 29.54941373 -14.51303421 32.00361513 -14.625 34.5625 C-14.68300781 35.62887695 -14.68300781 35.62887695 -14.7421875 36.71679688 C-14.83671783 38.47742425 -14.91945817 40.23867728 -15 42 C-12.36 42 -9.72 42 -7 42 C-6.67 40.35 -6.34 38.7 -6 37 C-4.515 36.505 -4.515 36.505 -3 36 C-0.96564469 39.72965139 0 41.66905042 0 46 C1.98 46 3.96 46 6 46 C5.67 47.32 5.34 48.64 5 50 C4.34 50 3.68 50 3 50 C2.566875 51.2065625 2.566875 51.2065625 2.125 52.4375 C1 55 1 55 -1 56 C-0.690625 55.236875 -0.38125 54.47375 -0.0625 53.6875 C0.67893593 51.81210323 1.36228217 49.91315348 2 48 C1.34 48 0.68 48 0 48 C-0.0825 48.7425 -0.165 49.485 -0.25 50.25 C-1.1396946 53.51221354 -2.48503749 54.80954878 -5 57 C-5 56.34 -5 55.68 -5 55 C-5.66 54.67 -6.32 54.34 -7 54 C-7.495 56.475 -7.495 56.475 -8 59 C-6.56465159 59.2226746 -5.12654475 59.42761906 -3.6875 59.625 C-2.88699219 59.74101563 -2.08648438 59.85703125 -1.26171875 59.9765625 C1.28723215 60.21533407 1.28723215 60.21533407 4 58 C3.67 59.32 3.34 60.64 3 62 C1.58566794 62.2236337 0.16832382 62.42826476 -1.25 62.625 C-2.03890625 62.74101563 -2.8278125 62.85703125 -3.640625 62.9765625 C-6 63 -6 63 -10 61 C-9.505 52.09 -9.505 52.09 -9 43 C-9.99 43.495 -9.99 43.495 -11 44 C-12.99960012 44.039992 -15.00047242 44.04346799 -17 44 C-17.33 44.99 -17.66 45.98 -18 47 C-18.2553824 43.58476356 -18.47470664 40.16813341 -18.6875 36.75 C-18.76033203 35.78191406 -18.83316406 34.81382813 -18.90820312 33.81640625 C-18.96298828 32.88183594 -19.01777344 31.94726562 -19.07421875 30.984375 C-19.13182373 30.12553711 -19.18942871 29.26669922 -19.2487793 28.38183594 C-18.94190038 25.44374891 -17.81603129 24.27396928 -16 22 C-15.49430548 18.43890284 -15.49430548 18.43890284 -15.4375 14.5625 C-15.10999685 4.56869182 -15.10999685 4.56869182 -11.5625 0.25 C-7.5409711 -2.96722312 -4.49433907 -1.57696108 0 0 Z " fill="#52321B" transform="translate(32,12)"/>
<path d="M0 0 C3.37462715 0.54723683 5.08235 1.0549 8 3 C8 3.99 8 4.98 8 6 C10.93720508 7.52299523 13.9168649 8.80100302 17 10 C15.68 8.68 14.36 7.36 13 6 C13.33 5.34 13.66 4.68 14 4 C15.15762119 5.21807138 16.3006583 6.45001235 17.4375 7.6875 C18.07558594 8.37199219 18.71367188 9.05648437 19.37109375 9.76171875 C21.31525634 12.43319397 21.89335938 13.68486764 22 17 C21.563354 18.39677697 21.08269904 19.78008523 20.57421875 21.15234375 C18.6782556 26.35680036 18.65549439 31.07535505 18.8125 36.5625 C18.82603516 37.47580078 18.83957031 38.38910156 18.85351562 39.33007812 C18.88844685 41.55403259 18.93748414 43.77667952 19 46 C18.38640625 45.21238281 17.7728125 44.42476562 17.140625 43.61328125 C15.22422872 41.27373908 13.48366598 39.68534477 11 38 C12.98 37.505 12.98 37.505 15 37 C14.505 36.505 14.505 36.505 14 36 C13.67 36.33 13.34 36.66 13 37 C8.96839809 37.26293056 7.44107266 37.29404844 4 35 C4.33 33.35 4.66 31.7 5 30 C5.99 30.33 6.98 30.66 8 31 C9.89213369 28.61426621 11.02391783 26.92824652 12 24 C14.0625 23.3125 14.0625 23.3125 16 23 C15.01 24.98 14.02 26.96 13 29 C15.52588702 26.63707344 16.88820837 25.33537489 18 22 C16.02 22 14.04 22 12 22 C10.87119943 18.68885166 9.78697325 15.41021743 9 12 C6.7522025 14.05233685 5.9977758 15.00667261 5 18 C2.36 18 -0.28 18 -3 18 C-3 13.05 -3 8.1 -3 3 C-2.01 2.67 -1.02 2.34 0 2 C0 1.34 0 0.68 0 0 Z " fill="#6CAAFE" transform="translate(20,36)"/>
<path d="M0 0 C1.9375 1.75 1.9375 1.75 3 4 C3.125 7.0625 3.125 7.0625 3 10 C3.33 10.99 3.66 11.98 4 13 C3.66015625 15.26171875 3.66015625 15.26171875 3.0625 17.6875 C2.86785156 18.49574219 2.67320313 19.30398437 2.47265625 20.13671875 C2.31667969 20.75160156 2.16070312 21.36648437 2 22 C-1.3899051 22.94484589 -3.60214108 23.16242542 -7 22 C-9.17831524 19.09557968 -9.19715281 16.54875053 -9 13 C-9.66 13 -10.32 13 -11 13 C-11.9590625 14.485 -11.9590625 14.485 -12.9375 16 C-13.618125 16.99 -14.29875 17.98 -15 19 C-15.99 19 -16.98 19 -18 19 C-18.08150744 16.93816367 -18.1394194 14.87538651 -18.1875 12.8125 C-18.22230469 11.66394531 -18.25710937 10.51539063 -18.29296875 9.33203125 C-17.97073045 5.66710766 -17.21232393 3.90335285 -15 1 C-9.63746399 -2.57502401 -5.99586077 -2.33172363 0 0 Z " fill="#605751" transform="translate(75,10)"/>
<path d="M0 0 C0.33 0 0.66 0 1 0 C1 2.64 1 5.28 1 8 C6.36090593 8.53673893 6.36090593 8.53673893 11 6.5 C11.33 6.005 11.66 5.51 12 5 C12.33 6.32 12.66 7.64 13 9 C13.66 7.68 14.32 6.36 15 5 C14.85879286 6.93784265 14.71187127 8.87526955 14.5625 10.8125 C14.48128906 11.89144531 14.40007812 12.97039063 14.31640625 14.08203125 C14 17 14 17 13 20 C10.96875 21.1328125 10.96875 21.1328125 8.5 22.125 C5.51655512 23.20061918 5.51655512 23.20061918 3 25 C1.33382885 25.04063832 -0.33388095 25.042721 -2 25 C-1.979375 26.093125 -1.95875 27.18625 -1.9375 28.3125 C-2 32 -2 32 -3 35 C-3 35.99 -3 36.98 -3 38 C-3.495 38.495 -3.495 38.495 -4 39 C-3.67 39.99 -3.34 40.98 -3 42 C-3 42.66 -3 43.32 -3 44 C-4.98 44 -6.96 44 -9 44 C-9 43.34 -9 42.68 -9 42 C-9.43828125 41.5771875 -9.8765625 41.154375 -10.328125 40.71875 C-12.46048652 38.52660264 -13.48122565 36.27637681 -14.75 33.5 C-15.19859375 32.5409375 -15.6471875 31.581875 -16.109375 30.59375 C-17 28 -17 28 -16 25 C-14.07052524 23.68795716 -12.36895068 23.05430121 -10.0625 22.71484375 C-7.82296241 22.35668241 -6.04006335 22.00487197 -4 21 C-2.42412738 18.46196092 -1.64819357 15.90336705 -1 13 C-0.67 13 -0.34 13 0 13 C0 15.64 0 18.28 0 21 C0.9075 20.67 1.815 20.34 2.75 20 C6 19 6 19 10 19 C10.66 17.02 11.32 15.04 12 13 C10.68 13 9.36 13 8 13 C5.89453125 12.37890625 5.89453125 12.37890625 3.8125 11.5625 C3.11769531 11.29566406 2.42289063 11.02882813 1.70703125 10.75390625 C0 10 0 10 -1 9 C-1.23728814 2.47457627 -1.23728814 2.47457627 0 0 Z " fill="#563B2D" transform="translate(65,45)"/>
<path d="M0 0 C1.18802719 0.0199855 2.37605438 0.03997101 3.6000824 0.06056213 C4.58053528 0.07497345 4.58053528 0.07497345 5.58079529 0.0896759 C7.7506604 0.12277147 9.92033073 0.16306307 12.09007263 0.2033844 C13.59079289 0.22767523 15.09152044 0.25151929 16.59225464 0.27493286 C20.54941593 0.33787713 24.50644871 0.40691422 28.46348572 0.47718811 C32.49846017 0.54777842 36.53352602 0.61265097 40.56858826 0.67799377 C48.49121546 0.80713933 56.41371607 0.94271676 64.33616638 1.08229065 C64.33616638 1.74229065 64.33616638 2.40229065 64.33616638 3.08229065 C64.99616638 3.08229065 65.65616638 3.08229065 66.33616638 3.08229065 C66.33616638 2.42229065 66.33616638 1.76229065 66.33616638 1.08229065 C70.29616638 1.08229065 74.25616638 1.08229065 78.33616638 1.08229065 C78.33616638 3.72229065 78.33616638 6.36229065 78.33616638 9.08229065 C77.34616638 8.75229065 76.35616638 8.42229065 75.33616638 8.08229065 C75.33616638 6.76229065 75.33616638 5.44229065 75.33616638 4.08229065 C46.95616638 4.08229065 18.57616638 4.08229065 -10.66383362 4.08229065 C-10.66383362 5.73229065 -10.66383362 7.38229065 -10.66383362 9.08229065 C-11.65383362 9.08229065 -12.64383362 9.08229065 -13.66383362 9.08229065 C-13.66383362 6.44229065 -13.66383362 3.80229065 -13.66383362 1.08229065 C-12.95356018 1.09389221 -12.24328674 1.10549377 -11.51148987 1.1174469 C-10.59238831 1.12647034 -9.67328674 1.13549377 -8.72633362 1.14479065 C-7.35154846 1.16219299 -7.35154846 1.16219299 -5.94898987 1.1799469 C-3.08173642 1.0574147 -3.00101854 0.0927069 0 0 Z " fill="#655F5C" transform="translate(15.663833618164063,0.9177093505859375)"/>
<path d="M0 0 C0 0.66 0 1.32 0 2 C-0.99 2.495 -0.99 2.495 -2 3 C-2.31241371 5.54941373 -2.51303421 8.00361513 -2.625 10.5625 C-2.66367187 11.27341797 -2.70234375 11.98433594 -2.7421875 12.71679688 C-2.83671783 14.47742425 -2.91945817 16.23867728 -3 18 C-0.36 18 2.28 18 5 18 C5.33 16.35 5.66 14.7 6 13 C6.99 12.67 7.98 12.34 9 12 C11.03435531 15.72965139 12 17.66905042 12 22 C13.98 22 15.96 22 18 22 C17.67 23.32 17.34 24.64 17 26 C16.34 26 15.68 26 15 26 C14.566875 27.2065625 14.566875 27.2065625 14.125 28.4375 C13 31 13 31 11 32 C11.4640625 30.8553125 11.4640625 30.8553125 11.9375 29.6875 C12.67893593 27.81210323 13.36228217 25.91315348 14 24 C13.34 24 12.68 24 12 24 C11.9175 24.7425 11.835 25.485 11.75 26.25 C10.8603054 29.51221354 9.51496251 30.80954878 7 33 C7 32.34 7 31.68 7 31 C6.34 30.67 5.68 30.34 5 30 C4.505 32.475 4.505 32.475 4 35 C5.43534841 35.2226746 6.87345525 35.42761906 8.3125 35.625 C9.11300781 35.74101563 9.91351563 35.85703125 10.73828125 35.9765625 C13.28723215 36.21533407 13.28723215 36.21533407 16 34 C15.67 35.32 15.34 36.64 15 38 C13.58566794 38.2236337 12.16832382 38.42826476 10.75 38.625 C9.96109375 38.74101563 9.1721875 38.85703125 8.359375 38.9765625 C6 39 6 39 2 37 C2.495 28.09 2.495 28.09 3 19 C2.34 19.33 1.68 19.66 1 20 C-0.99960012 20.039992 -3.00047242 20.04346799 -5 20 C-5.33 20.99 -5.66 21.98 -6 23 C-6.11608726 19.72946483 -6.18720711 16.4594582 -6.25 13.1875 C-6.28351562 12.25873047 -6.31703125 11.32996094 -6.3515625 10.37304688 C-6.36445313 9.48037109 -6.37734375 8.58769531 -6.390625 7.66796875 C-6.41157227 6.84578857 -6.43251953 6.0236084 -6.45410156 5.17651367 C-6 3 -6 3 -4.10058594 1.20825195 C-2 0 -2 0 0 0 Z " fill="#163CB4" transform="translate(20,36)"/>
<path d="M0 0 C3.32123414 1.14525315 5.16197802 1.82962775 7.625 4.25 C9.03396961 11.14980707 7.79211492 17.29497818 4.3046875 23.3125 C3.37609275 25.28848997 3.37609275 25.28848997 4.4453125 27.37109375 C4.83460937 27.99113281 5.22390625 28.61117187 5.625 29.25 C5.955 29.930625 6.285 30.61125 6.625 31.3125 C7.69903709 33.48163505 7.69903709 33.48163505 9.625 36.25 C5.61846695 35.6336103 2.82036099 33.66427274 -0.375 31.25 C-0.705 30.26 -1.035 29.27 -1.375 28.25 C-2.035 27.59 -2.695 26.93 -3.375 26.25 C-4 24.125 -4 24.125 -4.375 22.25 C-5.035 22.25 -5.695 22.25 -6.375 22.25 C-6.375 21.26 -6.375 20.27 -6.375 19.25 C-5.055 19.25 -3.735 19.25 -2.375 19.25 C-2.18164062 18.62351562 -1.98828125 17.99703125 -1.7890625 17.3515625 C-1.52867188 16.53429687 -1.26828125 15.71703125 -1 14.875 C-0.74476562 14.06289063 -0.48953125 13.25078125 -0.2265625 12.4140625 C0.625 10.25 0.625 10.25 2.625 8.25 C3.285 8.58 3.945 8.91 4.625 9.25 C4.295 10.24 3.965 11.23 3.625 12.25 C4.285 12.58 4.945 12.91 5.625 13.25 C5.625 10.61 5.625 7.97 5.625 5.25 C4.305 5.25 2.985 5.25 1.625 5.25 C0.635 6.735 0.635 6.735 -0.375 8.25 C-0.375 6.93 -0.375 5.61 -0.375 4.25 C-1.035 4.25 -1.695 4.25 -2.375 4.25 C-4 2.25 -4 2.25 -5.375 0.25 C-3.375 -0.75 -3.375 -0.75 0 0 Z " fill="#684B3B" transform="translate(28.375,10.75)"/>
<path d="M0 0 C0.99 0 1.98 0 3 0 C3 23.76 3 47.52 3 72 C2.01 72 1.02 72 0 72 C0 48.24 0 24.48 0 0 Z " fill="#5D5856" transform="translate(2,12)"/>
<path d="M0 0 C3 1 3 1 4.3515625 3.43359375 C4.98191406 4.92052734 4.98191406 4.92052734 5.625 6.4375 C6.05039063 7.42621094 6.47578125 8.41492188 6.9140625 9.43359375 C7.45160156 10.70396484 7.45160156 10.70396484 8 12 C8.33 12.66 8.66 13.32 9 14 C9.04022391 16.3329866 9.04320247 18.66706666 9 21 C8.01 20.01 7.02 19.02 6 18 C5.34 18.66 4.68 19.32 4 20 C1.27130593 19.96712417 -1.2966618 19.43602229 -4 19 C-4.02698189 17.37509046 -4.04638757 15.75005367 -4.0625 14.125 C-4.07410156 13.22007813 -4.08570312 12.31515625 -4.09765625 11.3828125 C-4 9 -4 9 -3 7 C-3.99 7 -4.98 7 -6 7 C-6.33 7.99 -6.66 8.98 -7 10 C-8.32 9.67 -9.64 9.34 -11 9 C-11 7.68 -11 6.36 -11 5 C-9.68 5 -8.36 5 -7 5 C-7 3.68 -7 2.36 -7 1 C-1.69537183 2.76820939 0.93003163 5.39504745 4 10 C3.525625 8.906875 3.05125 7.81375 2.5625 6.6875 C1.59812191 4.46523745 0.76833172 2.30499515 0 0 Z " fill="#DAA28A" transform="translate(70,34)"/>
<path d="M0 0 C1.32 0 2.64 0 4 0 C5.01085436 2.39175361 6.00879203 4.78761585 7 7.1875 C7.28617188 7.86103516 7.57234375 8.53457031 7.8671875 9.22851562 C9.49645291 13.20469908 10 15.59030287 10 20 C4.72 20 -0.56 20 -6 20 C-4.47055083 15.4116525 -2.83376304 11.43196089 -0.70703125 7.1484375 C0.11634598 4.6464625 -0.24042914 3.46725853 -1 1 C-0.67 0.67 -0.34 0.34 0 0 Z " fill="#6B5D56" transform="translate(15,69)"/>
<path d="M0 0 C0.99 0 1.98 0 3 0 C3.06058594 0.78246094 3.12117188 1.56492188 3.18359375 2.37109375 C3.26738281 3.38300781 3.35117187 4.39492188 3.4375 5.4375 C3.51871094 6.44683594 3.59992187 7.45617188 3.68359375 8.49609375 C3.73211468 10.93640779 3.73211468 10.93640779 5 12 C5.18023553 14.80694683 5.27807437 17.56586827 5.3125 20.375 C5.34150391 21.15617187 5.37050781 21.93734375 5.40039062 22.7421875 C5.46447686 28.50008883 5.46447686 28.50008883 3.10546875 31.0390625 C1 32 1 32 -1 32 C-1.19252507 27.92539339 -1.37120378 23.85043787 -1.53710938 19.7746582 C-1.59548391 18.38842526 -1.65763024 17.00234577 -1.72363281 15.61645508 C-1.81788205 13.62365488 -1.8974178 11.63017597 -1.9765625 9.63671875 C-2.05511475 7.83787231 -2.05511475 7.83787231 -2.13525391 6.00268555 C-2 3 -2 3 0 0 Z " fill="#A7745D" transform="translate(50,38)"/>
<path d="M0 0 C1.3125 2.0625 1.3125 2.0625 2 4 C0.865625 4.45375 -0.26875 4.9075 -1.4375 5.375 C-5.04721692 6.57095806 -5.04721692 6.57095806 -6 9 C-6.66 9 -7.32 9 -8 9 C-7.67 10.65 -7.34 12.3 -7 14 C-7.66 14 -8.32 14 -9 14 C-9.9590625 15.485 -9.9590625 15.485 -10.9375 17 C-11.618125 17.99 -12.29875 18.98 -13 20 C-13.99 20 -14.98 20 -16 20 C-16.08150744 17.93816367 -16.1394194 15.87538651 -16.1875 13.8125 C-16.22230469 12.66394531 -16.25710937 11.51539063 -16.29296875 10.33203125 C-15.97073045 6.66710766 -15.21232393 4.90335285 -13 2 C-8.70563194 -0.86291204 -4.97159671 -1.74677722 0 0 Z " fill="#28211D" transform="translate(73,9)"/>
<path d="M0 0 C4.03457426 1.35067849 4.03457426 1.35067849 7.96875 0.44921875 C8.65625 2.19921875 8.65625 2.19921875 8.96875 4.44921875 C7.53305105 7.16109455 6.31128492 8.26893721 3.59375 9.69921875 C0.91225227 10.46536096 -1.25847332 10.60766313 -4.03125 10.44921875 C-4.36125 8.79921875 -4.69125 7.14921875 -5.03125 5.44921875 C-5.464375 6.41859375 -5.8975 7.38796875 -6.34375 8.38671875 C-8.03125 11.44921875 -8.03125 11.44921875 -11.03125 12.44921875 C-12.21875 10.19921875 -12.21875 10.19921875 -13.03125 7.44921875 C-11.65625 5.13671875 -11.65625 5.13671875 -10.03125 3.44921875 C-10.69125 3.44921875 -11.35125 3.44921875 -12.03125 3.44921875 C-11.21875 1.51171875 -11.21875 1.51171875 -10.03125 -0.55078125 C-6.17972456 -1.83462306 -3.85508841 -1.04532205 0 0 Z " fill="#8E6B5C" transform="translate(69.03125,55.55078125)"/>
<path d="M0 0 C0.99 0.33 1.98 0.66 3 1 C2.67257813 1.77601562 2.34515625 2.55203125 2.0078125 3.3515625 C0.69507215 8.1038861 0.7841092 12.47388863 0.875 17.375 C0.88402344 18.30183594 0.89304687 19.22867188 0.90234375 20.18359375 C0.92577063 22.45600077 0.95857252 24.7278618 1 27 C0.38640625 26.21238281 -0.2271875 25.42476562 -0.859375 24.61328125 C-2.77577128 22.27373908 -4.51633402 20.68534477 -7 19 C-5.68 18.67 -4.36 18.34 -3 18 C-3.33 17.67 -3.66 17.34 -4 17 C-4.33 17.33 -4.66 17.66 -5 18 C-9.03160191 18.26293056 -10.55892734 18.29404844 -14 16 C-13.67 14.35 -13.34 12.7 -13 11 C-12.01 11.33 -11.02 11.66 -10 12 C-8.10786631 9.61426621 -6.97608217 7.92824652 -6 5 C-3.9375 4.3125 -3.9375 4.3125 -2 4 C-2.99 5.98 -3.98 7.96 -5 10 C-2.47411298 7.63707344 -1.11179163 6.33537489 0 3 C-1.98 3 -3.96 3 -6 3 C-5.67 2.34 -5.34 1.68 -5 1 C-3.35 1.33 -1.7 1.66 0 2 C0 1.34 0 0.68 0 0 Z " fill="#669BFB" transform="translate(38,55)"/>
<path d="M0 0 C0.99 0 1.98 0 3 0 C3 17.16 3 34.32 3 52 C2.01 52 1.02 52 0 52 C0 34.84 0 17.68 0 0 Z " fill="#5E5755" transform="translate(91,12)"/>
<path d="M0 0 C0.66 0 1.32 0 2 0 C4.03435531 3.72965139 5 5.66905042 5 10 C6.98 10 8.96 10 11 10 C10.67 11.32 10.34 12.64 10 14 C9.34 14 8.68 14 8 14 C7.566875 15.2065625 7.566875 15.2065625 7.125 16.4375 C6 19 6 19 4 20 C4.309375 19.236875 4.61875 18.47375 4.9375 17.6875 C5.67893593 15.81210323 6.36228217 13.91315348 7 12 C6.34 12 5.68 12 5 12 C4.9175 12.7425 4.835 13.485 4.75 14.25 C3.8603054 17.51221354 2.51496251 18.80954878 0 21 C0 20.34 0 19.68 0 19 C-0.66 18.67 -1.32 18.34 -2 18 C-3.06461961 12.85300444 -4.03139407 7.0829766 -1.5625 2.25 C-1.046875 1.5075 -0.53125 0.765 0 0 Z " fill="#1C3CB3" transform="translate(27,48)"/>
<path d="M0 0 C14.52 0 29.04 0 44 0 C44.495 1.485 44.495 1.485 45 3 C30.15 3 15.3 3 0 3 C0 2.01 0 1.02 0 0 Z " fill="#5F5955" transform="translate(16,91)"/>
<path d="M0 0 C2.4375 0.8125 2.4375 0.8125 5 2 C5.33 2.99 5.66 3.98 6 5 C6.66 4.34 7.32 3.68 8 3 C7.67 4.65 7.34 6.3 7 8 C6.030625 8.268125 5.06125 8.53625 4.0625 8.8125 C3.051875 9.204375 2.04125 9.59625 1 10 C0.67 10.99 0.34 11.98 0 13 C0.66 13.33 1.32 13.66 2 14 C2.12375 14.598125 2.2475 15.19625 2.375 15.8125 C3.20055523 18.70194332 4.80351643 20.01607936 7 22 C5 23 5 23 2.1875 22.875 C-1.41970942 23.01645919 -3.09049323 23.94623052 -6 26 C-5 24 -4 22 -3 20 C-2.81804119 17.55944138 -2.67199584 15.13135402 -2.5625 12.6875 C-2.34693126 8.00461303 -2.03199451 4.25320308 0 0 Z " fill="#38251B" transform="translate(19,14)"/>
<path d="M0 0 C1.18802719 0.0199855 2.37605438 0.03997101 3.6000824 0.06056213 C4.58053528 0.07497345 4.58053528 0.07497345 5.58079529 0.0896759 C7.7506604 0.12277147 9.92033073 0.16306307 12.09007263 0.2033844 C13.59079289 0.22767523 15.09152044 0.25151929 16.59225464 0.27493286 C20.54941593 0.33787713 24.50644871 0.40691422 28.46348572 0.47718811 C32.49846017 0.54777842 36.53352602 0.61265097 40.56858826 0.67799377 C48.49121546 0.80713933 56.41371607 0.94271676 64.33616638 1.08229065 C64.33616638 1.41229065 64.33616638 1.74229065 64.33616638 2.08229065 C43.21616638 2.08229065 22.09616638 2.08229065 0.33616638 2.08229065 C0.33616638 2.74229065 0.33616638 3.40229065 0.33616638 4.08229065 C-3.29383362 4.08229065 -6.92383362 4.08229065 -10.66383362 4.08229065 C-10.66383362 5.73229065 -10.66383362 7.38229065 -10.66383362 9.08229065 C-11.65383362 9.08229065 -12.64383362 9.08229065 -13.66383362 9.08229065 C-13.66383362 6.44229065 -13.66383362 3.80229065 -13.66383362 1.08229065 C-12.95356018 1.09389221 -12.24328674 1.10549377 -11.51148987 1.1174469 C-10.59238831 1.12647034 -9.67328674 1.13549377 -8.72633362 1.14479065 C-7.35154846 1.16219299 -7.35154846 1.16219299 -5.94898987 1.1799469 C-3.08173642 1.0574147 -3.00101854 0.0927069 0 0 Z " fill="#47423E" transform="translate(15.663833618164063,0.9177093505859375)"/>
<path d="M0 0 C1.13199353 0.9080162 2.25532363 1.82683826 3.375 2.75 C4.00148438 3.26046875 4.62796875 3.7709375 5.2734375 4.296875 C7.11735379 6.11576075 8.08048515 7.58627353 9 10 C8.625 12.75 8.625 12.75 8 15 C7.01 15 6.02 15 5 15 C5 15.66 5 16.32 5 17 C3.33388095 17.042721 1.66617115 17.04063832 0 17 C-1.7082138 15.2917862 -1.65083636 12.94861256 -2.0625 10.625 C-2.23910156 9.64789063 -2.41570313 8.67078125 -2.59765625 7.6640625 C-3 5 -3 5 -3 2 C-0.525 3.98 -0.525 3.98 2 6 C2.33 5.67 2.66 5.34 3 5 C2.2575 4.319375 2.2575 4.319375 1.5 3.625 C0 2 0 2 0 0 Z " fill="#C6C6C6" transform="translate(33,40)"/>
<path d="M0 0 C2.375 0.3125 2.375 0.3125 5 1 C7.32286474 4.48429711 7.08480112 5.92954615 7 10 C7.33 10.99 7.66 11.98 8 13 C5.75 14.625 5.75 14.625 3 16 C0.75 15.375 0.75 15.375 -1 14 C-1.33 13.01 -1.66 12.02 -2 11 C-1.67 10.34 -1.34 9.68 -1 9 C0.65 9 2.3 9 4 9 C2.68 8.34 1.36 7.68 0 7 C-2.87420123 9.71604715 -2.87420123 9.71604715 -5 13 C-5.66 12.01 -6.32 11.02 -7 10 C-4.96016684 6.94025026 -3.35542981 5.46800054 0 4 C0.99 3.34 1.98 2.68 3 2 C2.01 1.34 1.02 0.68 0 0 Z " fill="#665A54" transform="translate(71,10)"/>
<path d="M0 0 C3.37462715 0.54723683 5.08235 1.0549 8 3 C10.86664421 7.79371942 12.57891478 12.35558086 12 18 C11.01 17.34 10.02 16.68 9 16 C9 14.68 9 13.36 9 12 C8.34 11.67 7.68 11.34 7 11 C6.67 10.34 6.34 9.68 6 9 C5.01 9.33 4.02 9.66 3 10 C3.33 8.68 3.66 7.36 4 6 C4.99 6.33 5.98 6.66 7 7 C4.34209561 3.78253679 3.58834962 3.91766992 -1 3 C-1 7.95 -1 12.9 -1 18 C-1.66 18 -2.32 18 -3 18 C-3 13.05 -3 8.1 -3 3 C-2.01 2.67 -1.02 2.34 0 2 C0 1.34 0 0.68 0 0 Z " fill="#5180E0" transform="translate(20,36)"/>
<path d="M0 0 C3.32567196 1.14678343 5.17362184 1.80928001 7.625 4.25 C8.0859375 6.9921875 8.0859375 6.9921875 8 10.125 C7.98710938 11.15367188 7.97421875 12.18234375 7.9609375 13.2421875 C7.6250282 16.24974751 6.88680972 18.51439652 5.625 21.25 C1.75 19.5 1.75 19.5 0.625 17.25 C1.615 17.25 2.605 17.25 3.625 17.25 C3.625 16.26 3.625 15.27 3.625 14.25 C2.635 13.92 1.645 13.59 0.625 13.25 C0.955 11.6 1.285 9.95 1.625 8.25 C2.615 8.58 3.605 8.91 4.625 9.25 C4.295 10.24 3.965 11.23 3.625 12.25 C4.285 12.58 4.945 12.91 5.625 13.25 C5.625 10.61 5.625 7.97 5.625 5.25 C4.305 5.25 2.985 5.25 1.625 5.25 C0.635 6.735 0.635 6.735 -0.375 8.25 C-0.375 6.93 -0.375 5.61 -0.375 4.25 C-1.035 4.25 -1.695 4.25 -2.375 4.25 C-4 2.25 -4 2.25 -5.375 0.25 C-3.375 -0.75 -3.375 -0.75 0 0 Z " fill="#8F6C4F" transform="translate(28.375,10.75)"/>
<path d="M0 0 C0.99 0.33 1.98 0.66 3 1 C3.73046875 2.84765625 3.73046875 2.84765625 4.1875 5.0625 C4.34605469 5.79597656 4.50460938 6.52945312 4.66796875 7.28515625 C4.83232422 8.13400391 4.83232422 8.13400391 5 9 C5.66 9 6.32 9 7 9 C7.2475 9.804375 7.495 10.60875 7.75 11.4375 C9.0387416 15.11041357 10.6067204 18.54329185 12.29296875 22.046875 C12.52628906 22.69140625 12.75960937 23.3359375 13 24 C12.67 24.66 12.34 25.32 12 26 C11.70867187 25.39671875 11.41734375 24.7934375 11.1171875 24.171875 C8.41712494 18.90760208 6.23977264 16.02742419 1 13 C-1.30143236 9.54785147 -1.13833854 8.76520676 -0.625 4.8125 C-0.51414063 3.91144531 -0.40328125 3.01039062 -0.2890625 2.08203125 C-0.19367187 1.39496094 -0.09828125 0.70789063 0 0 Z " fill="#9F7766" transform="translate(63,22)"/>
<path d="M0 0 C2.74057325 3.27100678 4.18058075 6.58477621 5.6875 10.5625 C6.12449219 11.69816406 6.56148437 12.83382812 7.01171875 14.00390625 C8 17 8 17 8 20 C6.02 20 4.04 20 2 20 C0.57997892 13.2168636 -0.22731216 6.93302093 0 0 Z " fill="#1B3A98" transform="translate(38,69)"/>
<path d="M0 0 C1.33332095 2.6666419 0.67102033 4.16680303 0 7 C-0.66 7 -1.32 7 -2 7 C-2 10.96 -2 14.92 -2 19 C-3.65 19.33 -5.3 19.66 -7 20 C-7 16.04 -7 12.08 -7 8 C-7.66 7.67 -8.32 7.34 -9 7 C-7.88625 6.38125 -7.88625 6.38125 -6.75 5.75 C-4.09828315 4.06254382 -2.13325986 2.29127911 0 0 Z " fill="#B67F64" transform="translate(60,30)"/>
<path d="M0 0 C1.3125 2.0625 1.3125 2.0625 2 4 C-2.96260257 5.91539047 -7.86626838 7.60961435 -13 9 C-13 7 -13 7 -11.5 5.375 C-11.005 4.92125 -10.51 4.4675 -10 4 C-12.0745356 3.8509288 -12.0745356 3.8509288 -14 5 C-13.4375 3.125 -13.4375 3.125 -12 1 C-7.79616045 -0.66567227 -4.30797893 -1.72319157 0 0 Z " fill="#45403A" transform="translate(73,9)"/>
<path d="M0 0 C0 4.29 0 8.58 0 13 C-1.98 13 -3.96 13 -6 13 C-5.97679687 12.30132812 -5.95359375 11.60265625 -5.9296875 10.8828125 C-5.91164063 9.97273438 -5.89359375 9.06265625 -5.875 8.125 C-5.84019531 6.76761719 -5.84019531 6.76761719 -5.8046875 5.3828125 C-5.75675164 2.81193006 -5.75675164 2.81193006 -8 1 C-2.25 0 -2.25 0 0 0 Z " fill="#D7D7D6" transform="translate(23,55)"/>
<path d="M0 0 C0.99 0.33 1.98 0.66 3 1 C2.67257813 1.77601562 2.34515625 2.55203125 2.0078125 3.3515625 C0.69507215 8.1038861 0.7841092 12.47388863 0.875 17.375 C0.88402344 18.30183594 0.89304687 19.22867188 0.90234375 20.18359375 C0.92577063 22.45600077 0.95857252 24.7278618 1 27 C0.38640625 26.21238281 -0.2271875 25.42476562 -0.859375 24.61328125 C-2.77577128 22.27373908 -4.51633402 20.68534477 -7 19 C-5.68 18.67 -4.36 18.34 -3 18 C-3 14.37 -3 10.74 -3 7 C-2.34 6.67 -1.68 6.34 -1 6 C-0.67 5.01 -0.34 4.02 0 3 C-1.98 3 -3.96 3 -6 3 C-5.67 2.34 -5.34 1.68 -5 1 C-3.35 1.33 -1.7 1.66 0 2 C0 1.34 0 0.68 0 0 Z " fill="#3B6ED2" transform="translate(38,55)"/>
<path d="M0 0 C4.75 1.875 4.75 1.875 7 3 C6.773125 4.093125 6.54625 5.18625 6.3125 6.3125 C5.5841746 9.90092967 5.5841746 9.90092967 7.4375 11.8125 C7.953125 12.204375 8.46875 12.59625 9 13 C9 13.66 9 14.32 9 15 C6.09303901 13.93411431 5.15567038 13.29651501 3.6875 10.5 C3 8 3 8 4 6 C3.01 6 2.02 6 1 6 C0.67 6.99 0.34 7.98 0 9 C-1.32 8.67 -2.64 8.34 -4 8 C-4 6.68 -4 5.36 -4 4 C-2.68 4 -1.36 4 0 4 C0 2.68 0 1.36 0 0 Z " fill="#EBCBB6" transform="translate(63,35)"/>
<path d="M0 0 C1.32 0.66 2.64 1.32 4 2 C4 2.66 4 3.32 4 4 C4.66 4 5.32 4 6 4 C6.25 9.625 6.25 9.625 4 13 C3.34 13 2.68 13 2 13 C2.33 14.65 2.66 16.3 3 18 C0.0625 17.625 0.0625 17.625 -3 17 C-3.33 16.34 -3.66 15.68 -4 15 C-3.34 15 -2.68 15 -2 15 C-2 14.34 -2 13.68 -2 13 C-0.02 12.34 1.96 11.68 4 11 C4 10.01 4 9.02 4 8 C3.01 8.495 3.01 8.495 2 9 C2 7.68 2 6.36 2 5 C0.68 4.34 -0.64 3.68 -2 3 C-1.34 2.01 -0.68 1.02 0 0 Z " fill="#6C4B30" transform="translate(22,11)"/>
<path d="M0 0 C0.66 0.33 1.32 0.66 2 1 C0.576875 1.8353125 0.576875 1.8353125 -0.875 2.6875 C-4.08878787 5.06570302 -4.95565118 6.24034426 -6 10 C-6.99 10 -7.98 10 -9 10 C-9.33 14.29 -9.66 18.58 -10 23 C-10.33 22.34 -10.66 21.68 -11 21 C-11.99 20.67 -12.98 20.34 -14 20 C-13.01 20 -12.02 20 -11 20 C-11.66 19.67 -12.32 19.34 -13 19 C-13 18.34 -13 17.68 -13 17 C-12.34 17 -11.68 17 -11 17 C-11.2784375 15.7934375 -11.2784375 15.7934375 -11.5625 14.5625 C-11.706875 13.716875 -11.85125 12.87125 -12 12 C-11.67 11.67 -11.34 11.34 -11 11 C-10.63239269 8.67182036 -10.29758419 6.3381615 -10 4 C-9.0925 3.71125 -8.185 3.4225 -7.25 3.125 C-4.10623356 2.12884377 -4.10623356 2.12884377 -1.75 0.8125 C-0.88375 0.4103125 -0.88375 0.4103125 0 0 Z " fill="#21140C" transform="translate(73,66)"/>
<path d="M0 0 C-1.55808656 9.59453303 -1.55808656 9.59453303 -6 13 C-6.99 11.68 -7.98 10.36 -9 9 C-8.34 8.01 -7.68 7.02 -7 6 C-6.67 5.34 -6.34 4.68 -6 4 C-6.66 4 -7.32 4 -8 4 C-7.1875 2.0625 -7.1875 2.0625 -6 0 C-3 -1 -3 -1 0 0 Z " fill="#BF8871" transform="translate(65,55)"/>
<path d="M0 0 C0.66 0 1.32 0 2 0 C2.02701408 2.10409639 2.04640223 4.20829178 2.0625 6.3125 C2.07410156 7.48425781 2.08570313 8.65601563 2.09765625 9.86328125 C2 13 2 13 1 16 C2.43534841 16.2226746 3.87345525 16.42761906 5.3125 16.625 C6.11300781 16.74101563 6.91351563 16.85703125 7.73828125 16.9765625 C10.28723215 17.21533407 10.28723215 17.21533407 13 15 C12.67 16.32 12.34 17.64 12 19 C10.58566794 19.2236337 9.16832382 19.42826476 7.75 19.625 C6.56664062 19.79902344 6.56664062 19.79902344 5.359375 19.9765625 C3 20 3 20 -1 18 C-0.505 9.09 -0.505 9.09 0 0 Z " fill="#15268B" transform="translate(23,55)"/>
<path d="M0 0 C1.485 0.99 1.485 0.99 3 2 C3.6875 5.625 3.6875 5.625 4 9 C5.98 9 7.96 9 10 9 C9.67 10.32 9.34 11.64 9 13 C8.34 13 7.68 13 7 13 C6.566875 14.2065625 6.566875 14.2065625 6.125 15.4375 C5 18 5 18 3 19 C3.309375 18.236875 3.61875 17.47375 3.9375 16.6875 C4.67893593 14.81210323 5.36228217 12.91315348 6 11 C5.34 11 4.68 11 4 11 C3.67 11.99 3.34 12.98 3 14 C2.01 14 1.02 14 0 14 C0 9.38 0 4.76 0 0 Z " fill="#2851D6" transform="translate(28,49)"/>
<path d="M0 0 C2.4375 0.8125 2.4375 0.8125 5 2 C5.33 2.99 5.66 3.98 6 5 C6.66 4.34 7.32 3.68 8 3 C7.67 4.65 7.34 6.3 7 8 C5.02 8.66 3.04 9.32 1 10 C1 10.66 1 11.32 1 12 C0.34 12 -0.32 12 -1 12 C-1.02687279 10.18757948 -1.04633715 8.37504767 -1.0625 6.5625 C-1.07410156 5.55316406 -1.08570312 4.54382813 -1.09765625 3.50390625 C-1 1 -1 1 0 0 Z " fill="#4A3119" transform="translate(19,14)"/>
<path d="M0 0 C3.96 0 7.92 0 12 0 C12.495 1.485 12.495 1.485 13 3 C-1.85 3 -16.7 3 -32 3 C-32 2.67 -32 2.34 -32 2 C-21.44 1.67 -10.88 1.34 0 1 C0 0.67 0 0.34 0 0 Z " fill="#4E4743" transform="translate(48,91)"/>
<path d="M0 0 C0.33 0 0.66 0 1 0 C1 2.64 1 5.28 1 8 C6.36090593 8.53673893 6.36090593 8.53673893 11 6.5 C11.33 6.005 11.66 5.51 12 5 C12.33 7.64 12.66 10.28 13 13 C10.39208159 13 8.49901297 12.74028728 6 12.125 C5.319375 11.96257813 4.63875 11.80015625 3.9375 11.6328125 C2 11 2 11 -1 9 C-1.4375 2.875 -1.4375 2.875 0 0 Z " fill="#6F4939" transform="translate(65,45)"/>
<path d="M0 0 C3.86004124 1.46415357 5.26672267 3.2858343 7 7 C7.6875 10.8125 7.6875 10.8125 8 14 C5.6875 14 5.6875 14 3 13 C0.60062361 8.98854259 -0.43692732 4.66055811 0 0 Z " fill="#EBDB32" transform="translate(32,75)"/>
<path d="M0 0 C1.52124209 3.04248417 0.47139881 5.70020832 0 9 C0.33 9.66 0.66 10.32 1 11 C0.5625 13.125 0.5625 13.125 0 15 C-1.32 15 -2.64 15 -4 15 C-4.33 16.32 -4.66 17.64 -5 19 C-5 17.02 -5 15.04 -5 13 C-4.34 13 -3.68 13 -3 13 C-3 11.02 -3 9.04 -3 7 C-4.98 8.98 -6.96 10.96 -9 13 C-9.66 12.67 -10.32 12.34 -11 12 C-10.45730469 11.46890625 -9.91460937 10.9378125 -9.35546875 10.390625 C-8.64003906 9.68421875 -7.92460938 8.9778125 -7.1875 8.25 C-6.47980469 7.55390625 -5.77210937 6.8578125 -5.04296875 6.140625 C-3.17724121 4.18571355 -1.56830358 2.19661447 0 0 Z " fill="#D2A993" transform="translate(63,24)"/>
<path d="M0 0 C1.50565735 3.01131471 0.62199955 5.64600316 0.15625 8.90625 C-0.18422754 11.05865882 -0.18422754 11.05865882 1 13 C1.06950541 14.54023996 1.08452357 16.08334988 1.0625 17.625 C1.05347656 18.44226563 1.04445313 19.25953125 1.03515625 20.1015625 C1.02355469 20.72804688 1.01195312 21.35453125 1 22 C0.34 22 -0.32 22 -1 22 C-1.33 22.66 -1.66 23.32 -2 24 C-2.56434611 18.13483154 -3.07773874 12.26633499 -3.25 6.375 C-3.27578125 5.57835937 -3.3015625 4.78171875 -3.328125 3.9609375 C-3.21984375 3.31382813 -3.1115625 2.66671875 -3 2 C-2.01 1.34 -1.02 0.68 0 0 Z " fill="#87604E" transform="translate(51,39)"/>
<path d="M0 0 C2.86469884 2.44607523 3.92891276 4.85481348 5.1875 8.375 C5.53167969 9.31085938 5.87585938 10.24671875 6.23046875 11.2109375 C6.98764758 13.95523031 7.14916724 16.17096621 7 19 C6.01 18.67 5.02 18.34 4 18 C2.83203125 15.48828125 2.83203125 15.48828125 1.8125 12.3125 C1.46832031 11.27738281 1.12414062 10.24226563 0.76953125 9.17578125 C-0.00252624 5.98957443 -0.14191051 3.26394182 0 0 Z " fill="#9F6F5B" transform="translate(18,70)"/>
<path d="M0 0 C0.16682272 4.92127034 0.24828052 8.50343896 -2 13 C-2.99 12.67 -3.98 12.34 -5 12 C-4.67 11.21625 -4.34 10.4325 -4 9.625 C-2.88133489 7.15667503 -2.88133489 7.15667503 -3 5 C-4.32 4.67 -5.64 4.34 -7 4 C-6.67 3.01 -6.34 2.02 -6 1 C-3 0 -3 0 0 0 Z " fill="#99857E" transform="translate(61,69)"/>
<path d="M0 0 C1.15518918 0.90484792 2.29885406 1.8244206 3.4375 2.75 C4.07558594 3.26046875 4.71367188 3.7709375 5.37109375 4.296875 C7.18810554 6.19667629 7.60423197 7.43586908 8 10 C7.34 9.67 6.68 9.34 6 9 C5.67 9.66 5.34 10.32 5 11 C2.75 10.875 2.75 10.875 0 10 C-2.3125 6.9375 -2.3125 6.9375 -4 4 C-3.67 3.34 -3.34 2.68 -3 2 C-0.525 3.98 -0.525 3.98 2 6 C2.33 5.67 2.66 5.34 3 5 C2.2575 4.319375 2.2575 4.319375 1.5 3.625 C0 2 0 2 0 0 Z " fill="#E0DDDE" transform="translate(33,40)"/>
<path d="M0 0 C0.99 0 1.98 0 3 0 C3 1.32 3 2.64 3 4 C2.34 4 1.68 4 1 4 C1 17.2 1 30.4 1 44 C0.67 44 0.34 44 0 44 C0 29.48 0 14.96 0 0 Z " fill="#4D4745" transform="translate(2,12)"/>
<path d="M0 0 C3.96 0 7.92 0 12 0 C12 2.64 12 5.28 12 8 C11.01 7.67 10.02 7.34 9 7 C9 5.68 9 4.36 9 3 C5.37 3 1.74 3 -2 3 C-1.34 2.67 -0.68 2.34 0 2 C0 1.34 0 0.68 0 0 Z " fill="#3E3E3A" transform="translate(82,2)"/>
<path d="M0 0 C0.33 0.99 0.66 1.98 1 3 C0.67 3.66 0.34 4.32 0 5 C3.465 4.505 3.465 4.505 7 4 C6.01 5.485 6.01 5.485 5 7 C2.03 6.505 2.03 6.505 -1 6 C-1 7.65 -1 9.3 -1 11 C-1.33 11 -1.66 11 -2 11 C-2 9.35 -2 7.7 -2 6 C-6.95 7.485 -6.95 7.485 -12 9 C-12 8.01 -12 7.02 -12 6 C-11.30132812 5.81824219 -10.60265625 5.63648437 -9.8828125 5.44921875 C-8.97273438 5.19785156 -8.06265625 4.94648437 -7.125 4.6875 C-6.22007813 4.44386719 -5.31515625 4.20023437 -4.3828125 3.94921875 C-1.67886681 3.13330148 -1.67886681 3.13330148 0 0 Z " fill="#533426" transform="translate(63,63)"/>
<path d="M0 0 C0.99 0.33 1.98 0.66 3 1 C2.67 4.3 2.34 7.6 2 11 C3.65 11 5.3 11 7 11 C6.01 11.495 6.01 11.495 5 12 C4.67 12.66 4.34 13.32 4 14 C4 13.34 4 12.68 4 12 C2.02 12.33 0.04 12.66 -2 13 C-2.19294408 8.17639811 -1.75747614 4.50353262 0 0 Z " fill="#9E9998" transform="translate(15,57)"/>
<path d="M0 0 C0.66 0 1.32 0 2 0 C2.33 1.65 2.66 3.3 3 5 C6.3 5 9.6 5 13 5 C12.67 5.99 12.34 6.98 12 8 C8 8 4 8 0 8 C0 5.36 0 2.72 0 0 Z " fill="#605D56" transform="translate(2,86)"/>
<path d="M0 0 C0.66 0.33 1.32 0.66 2 1 C1.01 3.97 0.02 6.94 -1 10 C-2.65 10 -4.3 10 -6 10 C-6.125 6.625 -6.125 6.625 -6 3 C-5.34 2.34 -4.68 1.68 -4 1 C-4 1.66 -4 2.32 -4 3 C-2.68 3 -1.36 3 0 3 C0 2.01 0 1.02 0 0 Z " fill="#79B9FE" transform="translate(26,44)"/>
<path d="M0 0 C1.65 0.33 3.3 0.66 5 1 C5 1.66 5 2.32 5 3 C3.02 3 1.04 3 -1 3 C-1 7.95 -1 12.9 -1 18 C-1.66 18 -2.32 18 -3 18 C-3 13.05 -3 8.1 -3 3 C-2.01 2.67 -1.02 2.34 0 2 C0 1.34 0 0.68 0 0 Z " fill="#326CF0" transform="translate(20,36)"/>
<path d="M0 0 C1.65 0 3.3 0 5 0 C5 4.95 5 9.9 5 15 C4.01 15.33 3.02 15.66 2 16 C2.33 14.68 2.66 13.36 3 12 C2.01 12 1.02 12 0 12 C0.33 11.01 0.66 10.02 1 9 C1.66 9.33 2.32 9.66 3 10 C3 7.36 3 4.72 3 2 C2.01 2 1.02 2 0 2 C0 1.34 0 0.68 0 0 Z " fill="#0B0B09" transform="translate(91,0)"/>
<path d="M0 0 C0.66 0 1.32 0 2 0 C2.17015625 0.98742187 2.3403125 1.97484375 2.515625 2.9921875 C2.75796875 4.27351563 3.0003125 5.55484375 3.25 6.875 C3.48203125 8.15117188 3.7140625 9.42734375 3.953125 10.7421875 C4.65991036 14.08337797 4.65991036 14.08337797 7.109375 15.4453125 C7.73328125 15.62835938 8.3571875 15.81140625 9 16 C8.67 17.32 8.34 18.64 8 20 C7.01 20 6.02 20 5 20 C0.59225513 6.3667426 0.59225513 6.3667426 0 0 Z " fill="#F0D6C3" transform="translate(20,69)"/>
<path d="M0 0 C0.99 0.33 1.98 0.66 3 1 C2.67 1.99 2.34 2.98 2 4 C2.99 4 3.98 4 5 4 C6.0326802 6.78823655 6.04509293 7.8677274 5.0625 10.75 C4.711875 11.4925 4.36125 12.235 4 13 C0.125 11.25 0.125 11.25 -1 9 C-0.01 9 0.98 9 2 9 C2 8.01 2 7.02 2 6 C1.01 5.67 0.02 5.34 -1 5 C-0.67 3.35 -0.34 1.7 0 0 Z " fill="#E2B7A1" transform="translate(30,19)"/>
<path d="M0 0 C2.31 0 4.62 0 7 0 C7.66 1.32 8.32 2.64 9 4 C6.75 5.625 6.75 5.625 4 7 C1.75 6.375 1.75 6.375 0 5 C-0.33 4.01 -0.66 3.02 -1 2 C-0.67 1.34 -0.34 0.68 0 0 Z " fill="#C0A69A" transform="translate(70,19)"/>
<path d="M0 0 C1.6764382 3.3528764 0.81123905 6.18903158 0 9.6875 C-0.185625 10.49574219 -0.37125 11.30398437 -0.5625 12.13671875 C-0.7790625 13.05904297 -0.7790625 13.05904297 -1 14 C-2.65 14 -4.3 14 -6 14 C-4.50829734 9.0276578 -2.39542583 4.58154261 0 0 Z " fill="#A29770" transform="translate(15,75)"/>
<path d="M0 0 C1.65 0.33 3.3 0.66 5 1 C5 5.29 5 9.58 5 14 C3.45713453 11.68570179 2.10007245 9.45428972 0.8125 7 C0.44769531 6.319375 0.08289062 5.63875 -0.29296875 4.9375 C-1 3 -1 3 0 0 Z " fill="#3A1F10" transform="translate(49,70)"/>
<path d="M0 0 C3.64927898 3.64927898 4.91585183 8.42923408 5.1875 13.5 C5.125625 14.325 5.06375 15.15 5 16 C4.34 16 3.68 16 3 16 C0.96780512 12.59648662 0.63108961 9.6767073 0.375 5.75 C0.30023438 4.67234375 0.22546875 3.5946875 0.1484375 2.484375 C0.09945312 1.66453125 0.05046875 0.8446875 0 0 Z " fill="#032CC1" transform="translate(38,72)"/>
<path d="M0 0 C1.33332095 2.6666419 0.67102033 4.16680303 0 7 C-0.66 7 -1.32 7 -2 7 C-2 9.64 -2 12.28 -2 15 C-2.66 15 -3.32 15 -4 15 C-4.9196476 10.30979721 -5.36070796 7.24927433 -3 3 C-1.375 1.1875 -1.375 1.1875 0 0 Z " fill="#C0876C" transform="translate(60,30)"/>
<path d="M0 0 C0.99 0 1.98 0 3 0 C2.67 5.94 2.34 11.88 2 18 C1.34 17.67 0.68 17.34 0 17 C0 11.39 0 5.78 0 0 Z " fill="#5E5A58" transform="translate(91,12)"/>
<path d="M0 0 C0.99 0 1.98 0 3 0 C1.90931332 3.77545388 1.0916909 6.47043472 -2 9 C-4.35953094 6.64046906 -4.49141413 5.22104383 -5 2 C-3.68 2 -2.36 2 -1 2 C-0.67 1.34 -0.34 0.68 0 0 Z " fill="#D8A287" transform="translate(64,41)"/>
<path d="M0 0 C0.33 0 0.66 0 1 0 C1 6.6 1 13.2 1 20 C0.01 20 -0.98 20 -2 20 C-2 17.03 -2 14.06 -2 11 C-1.67 11 -1.34 11 -1 11 C-0.67 7.37 -0.34 3.74 0 0 Z " fill="#453F3E" transform="translate(93,44)"/>
<path d="M0 0 C1.65 0.33 3.3 0.66 5 1 C5.103125 1.5775 5.20625 2.155 5.3125 2.75 C6.09792798 5.32049158 7.30504197 6.93657284 9 9 C5.00544473 8.38545304 2.25533664 6.29353263 -1 4 C-0.67 2.68 -0.34 1.36 0 0 Z " fill="#AF8873" transform="translate(29,38)"/>
<path d="M0 0 C1.32 0.66 2.64 1.32 4 2 C3.67 4.64 3.34 7.28 3 10 C2.01 9.67 1.02 9.34 0 9 C0.66 8.67 1.32 8.34 2 8 C2 7.34 2 6.68 2 6 C0.68 5.67 -0.64 5.34 -2 5 C-1.125 1.125 -1.125 1.125 0 0 Z " fill="#714D2F" transform="translate(31,14)"/>
<path d="M0 0 C2.19681012 3.29521518 3.09956003 6.28004402 4.21875 10.0390625 C4.82326856 12.18888035 4.82326856 12.18888035 7 13 C5.02 13 3.04 13 1 13 C0.67 8.71 0.34 4.42 0 0 Z " fill="#CCCED0" transform="translate(29,76)"/>
<path d="M0 0 C0.66 0.33 1.32 0.66 2 1 C1.54177532 4.46941546 1.10868317 7.67395049 0 11 C0 11.99 0 12.98 0 14 C-0.33 14.33 -0.66 14.66 -1 15 C-0.67 15.66 -0.34 16.32 0 17 C-1.65 16.67 -3.3 16.34 -5 16 C-4.72285156 15.26394531 -4.44570313 14.52789062 -4.16015625 13.76953125 C-3.79792969 12.79371094 -3.43570313 11.81789063 -3.0625 10.8125 C-2.70285156 9.84957031 -2.34320313 8.88664062 -1.97265625 7.89453125 C-1.08843438 5.2631722 -0.47431414 2.73105092 0 0 Z " fill="#432D22" transform="translate(62,69)"/>
<path d="M0 0 C3 1 3 1 4.3515625 3.43359375 C4.77179688 4.42488281 5.19203125 5.41617188 5.625 6.4375 C6.05039063 7.42621094 6.47578125 8.41492188 6.9140625 9.43359375 C7.27242188 10.28050781 7.63078125 11.12742187 8 12 C8.33 12.66 8.66 13.32 9 14 C9.04022391 16.3329866 9.04320247 18.66706666 9 21 C8.67 21 8.34 21 8 21 C7.731875 19.783125 7.46375 18.56625 7.1875 17.3125 C6.30338364 13.75095325 5.00596508 11.0925295 3 8 C1.86710839 5.35658624 0.90964273 2.7289282 0 0 Z " fill="#DDBAA8" transform="translate(70,34)"/>
<path d="M0 0 C0.66 0.33 1.32 0.66 2 1 C2.33333333 2.33333333 2.66666667 3.66666667 3 5 C3.66 5.33 4.32 5.66 5 6 C1.25 9 1.25 9 -1 9 C-1.125 2.25 -1.125 2.25 0 0 Z " fill="#99715D" transform="translate(50,61)"/>
<path d="M0 0 C0.66 1.32 1.32 2.64 2 4 C1 5 1 5 -1.875 5.3125 C-5 5 -5 5 -6.875 3 C-7.24625 2.34 -7.6175 1.68 -8 1 C-6.865625 1.020625 -5.73125 1.04125 -4.5625 1.0625 C-1.18424326 1.41577477 -1.18424326 1.41577477 0 0 Z " fill="#C59582" transform="translate(76,56)"/>
<path d="M0 0 C0.66 0 1.32 0 2 0 C2 1.32 2 2.64 2 4 C3.98 4 5.96 4 8 4 C8.33 3.01 8.66 2.02 9 1 C10.32 1.66 11.64 2.32 13 3 C12.34 3 11.68 3 11 3 C11 3.66 11 4.32 11 5 C6.05 5 1.1 5 -4 5 C-4 4.67 -4 4.34 -4 4 C-2.35 4 -0.7 4 1 4 C0.67 2.68 0.34 1.36 0 0 Z " fill="#0F122A" transform="translate(45,85)"/>
<path d="M0 0 C0.66 0.33 1.32 0.66 2 1 C1.030625 1.61875 0.06125 2.2375 -0.9375 2.875 C-4.02835362 4.65678846 -4.02835362 4.65678846 -5 7 C-5.66 7 -6.32 7 -7 7 C-7 7.66 -7 8.32 -7 9 C-7.66 9 -8.32 9 -9 9 C-9.33 7.35 -9.66 5.7 -10 4 C-9.0925 3.71125 -8.185 3.4225 -7.25 3.125 C-4.10623356 2.12884377 -4.10623356 2.12884377 -1.75 0.8125 C-0.88375 0.4103125 -0.88375 0.4103125 0 0 Z " fill="#2E2215" transform="translate(73,66)"/>
<path d="M0 0 C2.7972908 2.06756277 3.02692273 3.14440371 3.6875 6.6875 C3.790625 7.780625 3.89375 8.87375 4 10 C2.35 9.67 0.7 9.34 -1 9 C-1.08886184 5.80097361 -0.91058531 3.07322544 0 0 Z " fill="#E5DD55" transform="translate(36,79)"/>
<path d="M0 0 C0.66 0 1.32 0 2 0 C3.25664978 2.90600261 4 4.79604584 4 8 C2.35 8 0.7 8 -1 8 C-0.67 5.36 -0.34 2.72 0 0 Z " fill="#A09D99" transform="translate(17,81)"/>
<path d="M0 0 C1.32 0.33 2.64 0.66 4 1 C3.01 1.33 2.02 1.66 1 2 C1.33 3.65 1.66 5.3 2 7 C1.34 7 0.68 7 0 7 C-0.66 7.66 -1.32 8.32 -2 9 C-2.66 8.01 -3.32 7.02 -4 6 C-3.34 4.68 -2.68 3.36 -2 2 C-1.34 2 -0.68 2 0 2 C0 1.34 0 0.68 0 0 Z " fill="#41332E" transform="translate(64,16)"/>
<path d="M0 0 C0.33 0.66 0.66 1.32 1 2 C1.66 2.33 2.32 2.66 3 3 C1.35 3.66 -0.3 4.32 -2 5 C-2 6.65 -2 8.3 -2 10 C-2.99 10.495 -2.99 10.495 -4 11 C-4.625 8.1875 -4.625 8.1875 -5 5 C-3 2 -3 2 0 0 Z " fill="#2F2B27" transform="translate(62,11)"/>
<path d="M0 0 C0.99 0.33 1.98 0.66 3 1 C3.33 2.65 3.66 4.3 4 6 C5.32 6.33 6.64 6.66 8 7 C2.375 7.25 2.375 7.25 -1 5 C-0.67 3.35 -0.34 1.7 0 0 Z " fill="#3E67E4" transform="translate(25,66)"/>
<path d="M0 0 C0.99 0.33 1.98 0.66 3 1 C1.68 4.3 0.36 7.6 -1 11 C-1.66 9.68 -2.32 8.36 -3 7 C-2.34 6.67 -1.68 6.34 -1 6 C-0.67 5.01 -0.34 4.02 0 3 C-1.98 3 -3.96 3 -6 3 C-5.67 2.34 -5.34 1.68 -5 1 C-3.35 1.33 -1.7 1.66 0 2 C0 1.34 0 0.68 0 0 Z " fill="#5776B2" transform="translate(38,55)"/>
<path d="M0 0 C3 1 3 1 5 4 C7.56282742 4.72965366 7.56282742 4.72965366 10 5 C10 5.33 10 5.66 10 6 C5.545 6.495 5.545 6.495 1 7 C0 3 0 3 0 0 Z " fill="#A57C6C" transform="translate(66,56)"/>
<path d="M0 0 C2.64 0 5.28 0 8 0 C8 0.66 8 1.32 8 2 C6.02 2 4.04 2 2 2 C2 3.98 2 5.96 2 8 C1.34 8 0.68 8 0 8 C0 5.36 0 2.72 0 0 Z " fill="#6A6760" transform="translate(2,2)"/>
<path d="M0 0 C2 2 2 2 2 4.375 C0.6042509 8.03884139 -1.67734418 9.09124027 -5 11 C-4.731875 10.484375 -4.46375 9.96875 -4.1875 9.4375 C-2.67650593 6.33598585 -1.34427274 3.17737194 0 0 Z " fill="#674E40" transform="translate(18,29)"/>
<path d="M0 0 C2.66666667 2.66666667 5.33333333 5.33333333 8 8 C5.50935112 8.68707555 3.62113708 9 1 9 C0.67 6.03 0.34 3.06 0 0 Z " fill="#413029" transform="translate(66,23)"/>
<path d="M0 0 C0.66 1.32 1.32 2.64 2 4 C0.68 5.32 -0.64 6.64 -2 8 C-2.99 6.68 -3.98 5.36 -5 4 C-4.0409375 3.8453125 -4.0409375 3.8453125 -3.0625 3.6875 C-2.381875 3.460625 -1.70125 3.23375 -1 3 C-0.67 2.01 -0.34 1.02 0 0 Z " fill="#A77861" transform="translate(61,60)"/>
<path d="M0 0 C1.875 0.875 1.875 0.875 3.875 2.875 C1.38407189 4.12046405 0.46419267 3.6517578 -2.125 2.875 C-2.455 4.195 -2.785 5.515 -3.125 6.875 C-3.785 6.875 -4.445 6.875 -5.125 6.875 C-5.455 5.885 -5.785 4.895 -6.125 3.875 C-2.70224958 -0.15895586 -2.70224958 -0.15895586 0 0 Z " fill="#41342C" transform="translate(72.125,16.125)"/>
<path d="M0 0 C0 3.3 0 6.6 0 10 C-1.32 9.01 -2.64 8.02 -4 7 C-3.01 7 -2.02 7 -1 7 C-1.33 5.35 -1.66 3.7 -2 2 C-3.98 2 -5.96 2 -8 2 C-8 1.67 -8 1.34 -8 1 C-2.25 0 -2.25 0 0 0 Z " fill="#E7EFF9" transform="translate(23,55)"/>
<path d="M0 0 C2.375 0.3125 2.375 0.3125 5 1 C7 4 7 4 6.625 6.6875 C6.41875 7.450625 6.2125 8.21375 6 9 C5.01 8.67 4.02 8.34 3 8 C3.0928125 6.576875 3.0928125 6.576875 3.1875 5.125 C3.125625 4.09375 3.06375 3.0625 3 2 C2.01 1.34 1.02 0.68 0 0 Z " fill="#69635C" transform="translate(71,10)"/>
<path d="M0 0 C0.99 0.33 1.98 0.66 3 1 C3 3.31 3 5.62 3 8 C2.34 8 1.68 8 1 8 C0.67 8.66 0.34 9.32 0 10 C0 6.7 0 3.4 0 0 Z " fill="#755245" transform="translate(49,53)"/>
<path d="M0 0 C1.5625 1.75 1.5625 1.75 3 4 C2.6875 6.25 2.6875 6.25 2 8 C0.68 7.34 -0.64 6.68 -2 6 C-1.34 4.02 -0.68 2.04 0 0 Z " fill="#D49F84" transform="translate(70,39)"/>
<path d="M0 0 C0 0.66 0 1.32 0 2 C-0.66 2 -1.32 2 -2 2 C-2.33 2.66 -2.66 3.32 -3 4 C-3.763125 3.95875 -4.52625 3.9175 -5.3125 3.875 C-8.22718416 3.77919176 -8.22718416 3.77919176 -11 6 C-10.4375 4.125 -10.4375 4.125 -9 2 C-5.94821644 0.9100773 -3.25843762 0 0 0 Z " fill="#59544E" transform="translate(70,8)"/>
<path d="M0 0 C3.96 0 7.92 0 12 0 C12.33 0.99 12.66 1.98 13 3 C11.35 3 9.7 3 8 3 C8 2.34 8 1.68 8 1 C5.36 1 2.72 1 0 1 C0 0.67 0 0.34 0 0 Z " fill="#453E3D" transform="translate(48,91)"/>
<path d="M0 0 C0.99 0.33 1.98 0.66 3 1 C2.67 3.97 2.34 6.94 2 10 C1.01 9.01 0.02 8.02 -1 7 C-0.6875 3.3125 -0.6875 3.3125 0 0 Z " fill="#BAB8B5" transform="translate(15,57)"/>
<path d="M0 0 C4.875 4.75 4.875 4.75 6 7 C4.68 6.67 3.36 6.34 2 6 C2 6.66 2 7.32 2 8 C1.34 8 0.68 8 0 8 C0 5.36 0 2.72 0 0 Z " fill="#AE846E" transform="translate(66,45)"/>
<path d="M0 0 C0.99 0.33 1.98 0.66 3 1 C3 2.98 3 4.96 3 7 C1.35 7.33 -0.3 7.66 -2 8 C-1.67 6.68 -1.34 5.36 -1 4 C-0.01 4.33 0.98 4.66 2 5 C1.01 3.68 0.02 2.36 -1 1 C-0.67 0.67 -0.34 0.34 0 0 Z " fill="#5690E8" transform="translate(25,38)"/>
<path d="M0 0 C1.9375 0.3125 1.9375 0.3125 4 1 C4.33 1.99 4.66 2.98 5 4 C3.68 5.32 2.36 6.64 1 8 C0.855625 7.38125 0.71125 6.7625 0.5625 6.125 C0.06847775 3.96741678 0.06847775 3.96741678 -1 2 C-0.67 1.34 -0.34 0.68 0 0 Z " fill="#4C2C1C" transform="translate(54,73)"/>
<path d="M0 0 C0.33 0 0.66 0 1 0 C1 2.64 1 5.28 1 8 C2.65 8 4.3 8 6 8 C3 10 3 10 -1 10 C-1.125 3.375 -1.125 3.375 0 0 Z " fill="#6D4E40" transform="translate(64,58)"/>
<path d="M0 0 C0.66 0.33 1.32 0.66 2 1 C1.67 4.3 1.34 7.6 1 11 C0.01 9.68 -0.98 8.36 -2 7 C-1.1875 3.25 -1.1875 3.25 0 0 Z " fill="#B27D68" transform="translate(53,55)"/>
<path d="M0 0 C3.49928164 2.33285443 3.6329098 3.20795069 4.6875 7.125 C4.93886719 8.03507812 5.19023438 8.94515625 5.44921875 9.8828125 C5.72185547 10.93082031 5.72185547 10.93082031 6 12 C3.59424393 9.81482901 2.20464419 7.74080329 0.8125 4.8125 C0.46832031 4.09707031 0.12414062 3.38164063 -0.23046875 2.64453125 C-0.48441406 2.10183594 -0.73835938 1.55914062 -1 1 C-0.67 0.67 -0.34 0.34 0 0 Z " fill="#7B503F" transform="translate(70,36)"/>
<path d="M0 0 C2.97 0.495 2.97 0.495 6 1 C5.649375 1.61875 5.29875 2.2375 4.9375 2.875 C4.4734375 3.926875 4.4734375 3.926875 4 5 C4.33 5.66 4.66 6.32 5 7 C4.01 7.33 3.02 7.66 2 8 C0.69951159 5.39902318 0.43528578 2.86044938 0 0 Z " fill="#493224" transform="translate(28,31)"/>
<path d="M0 0 C0 0.66 0 1.32 0 2 C-3.50776784 3.60355101 -6.14354879 4.22036864 -10 4 C-9.01 3.67 -8.02 3.34 -7 3 C-7 2.34 -7 1.68 -7 1 C-4.53721199 -0.231394 -2.7204945 -0.07159196 0 0 Z " fill="#826454" transform="translate(75,62)"/>
<path d="M0 0 C0.99 0 1.98 0 3 0 C3 0.99 3 1.98 3 3 C3.66 2.67 4.32 2.34 5 2 C4.67 3.65 4.34 5.3 4 7 C2.68 6.34 1.36 5.68 0 5 C0 3.35 0 1.7 0 0 Z " fill="#092EA8" transform="translate(26,59)"/>
<path d="M0 0 C1.42944945 2.35438733 2.08661261 3.48032433 1.625 6.25 C1.41875 6.8275 1.2125 7.405 1 8 C-0.9375 7.1875 -0.9375 7.1875 -3 6 C-3.33 5.01 -3.66 4.02 -4 3 C-3.01 2.67 -2.02 2.34 -1 2 C-0.67 1.34 -0.34 0.68 0 0 Z " fill="#976654" transform="translate(76,50)"/>
<path d="M0 0 C0.99 0.33 1.98 0.66 3 1 C3 1.66 3 2.32 3 3 C3.66 3 4.32 3 5 3 C5 3.66 5 4.32 5 5 C3.35 5 1.7 5 0 5 C-0.5625 3.0625 -0.5625 3.0625 -1 1 C-0.67 0.67 -0.34 0.34 0 0 Z " fill="#B6B4AB" transform="translate(33,52)"/>
<path d="M0 0 C1.32 0 2.64 0 4 0 C4 2.64 4 5.28 4 8 C3.34 8 2.68 8 2 8 C2 6.02 2 4.04 2 2 C1.34 2 0.68 2 0 2 C0 1.34 0 0.68 0 0 Z " fill="#6A655F" transform="translate(90,2)"/>
<path d="M0 0 C1.32 0 2.64 0 4 0 C4 1.65 4 3.3 4 5 C2.68 4.67 1.36 4.34 0 4 C0 2.68 0 1.36 0 0 Z " fill="#FADDC8" transform="translate(59,39)"/>
<path d="M0 0 C2 1.3125 2 1.3125 4 3 C4 3.99 4 4.98 4 6 C2.35 6 0.7 6 -1 6 C-0.67 4.02 -0.34 2.04 0 0 Z " fill="#B07C66" transform="translate(28,22)"/>
<path d="M0 0 C0.66 0 1.32 0 2 0 C2 0.66 2 1.32 2 2 C2.99 2 3.98 2 5 2 C4.67 3.32 4.34 4.64 4 6 C4 5.34 4 4.68 4 4 C2.68 4.33 1.36 4.66 0 5 C0 3.35 0 1.7 0 0 Z " fill="#13110F" transform="translate(0,82)"/>
<path d="M0 0 C2.0625 0.4375 2.0625 0.4375 4 1 C3.67 2.32 3.34 3.64 3 5 C2.01 5 1.02 5 0 5 C-0.5625 3.0625 -0.5625 3.0625 -1 1 C-0.67 0.67 -0.34 0.34 0 0 Z " fill="#836354" transform="translate(15,69)"/>
<path d="M0 0 C0.99 0 1.98 0 3 0 C2.67 1.65 2.34 3.3 2 5 C0.35 5 -1.3 5 -3 5 C-2.67 4.34 -2.34 3.68 -2 3 C-1.34 3 -0.68 3 0 3 C0 2.01 0 1.02 0 0 Z " fill="#BDBDBC" transform="translate(39,50)"/>
<path d="M0 0 C0.66 0.33 1.32 0.66 2 1 C1.34 2.98 0.68 4.96 0 7 C-0.99 6.67 -1.98 6.34 -3 6 C-2.01 4.02 -1.02 2.04 0 0 Z " fill="#092FBA" transform="translate(27,48)"/>
<path d="M0 0 C-2.91765 1.9451 -4.62537285 2.45276317 -8 3 C-7.67 2.01 -7.34 1.02 -7 0 C-4.05610218 -1.17755913 -3.10046087 -1.03348696 0 0 Z " fill="#4D3A32" transform="translate(78,64)"/>
<path d="M0 0 C0.66 0 1.32 0 2 0 C1.67 0.99 1.34 1.98 1 3 C0.34 3 -0.32 3 -1 3 C-1.28875 3.804375 -1.5775 4.60875 -1.875 5.4375 C-3 8 -3 8 -5 9 C-3.7580393 5.56072421 -2.44259716 2.74792181 0 0 Z " fill="#0C32BC" transform="translate(36,59)"/>
<path d="M0 0 C0.66 0 1.32 0 2 0 C6 4.47058824 6 4.47058824 6 7 C3.00675737 5.9024777 2.15389099 5.32317108 0.75 2.375 C0.5025 1.59125 0.255 0.8075 0 0 Z " fill="#FBDEC7" transform="translate(66,43)"/>
<path d="M0 0 C1.65 0.33 3.3 0.66 5 1 C4.67 1.66 4.34 2.32 4 3 C1.4375 3.625 1.4375 3.625 -1 4 C-0.67 2.68 -0.34 1.36 0 0 Z " fill="#544D46" transform="translate(70,11)"/>
<path d="M0 0 C0.99 0.33 1.98 0.66 3 1 C2.01 1.66 1.02 2.32 0 3 C-0.33 3.99 -0.66 4.98 -1 6 C-1.99 6.33 -2.98 6.66 -4 7 C-3.43628586 3.73045798 -2.50037734 2.17424117 0 0 Z " fill="#4B463F" transform="translate(70,9)"/>
</svg>
