<?xml version="1.0" encoding="UTF-8"?>
<svg version="1.1" xmlns="http://www.w3.org/2000/svg" width="66" height="66">
<path d="M0 0 C2.67837246 2.67837246 2.25982973 4.73220482 2.27734375 8.37475586 C2.26832031 9.24108643 2.25929688 10.10741699 2.25 11 C2.24613281 11.8876001 2.24226563 12.7752002 2.23828125 13.68969727 C2.14116593 21.29099392 1.42004614 28.74565557 0.4375 36.27734375 C0.08890094 39.24354826 -0.09322909 42.02249607 0 45 C-0.99 45.495 -0.99 45.495 -2 46 C-1.505 48.475 -1.505 48.475 -1 51 C-5.6092911 52.02737211 -8.91529955 51.77609963 -13.5 50.75 C-17.82876728 49.82919721 -17.82876728 49.82919721 -21.89453125 50.9765625 C-22.36246094 51.43804687 -22.83039062 51.89953125 -23.3125 52.375 C-26 55 -26 55 -27.91796875 55.3046875 C-29.30579793 55.2682342 -30.69316267 55.20179132 -32.078125 55.10546875 C-34.15283317 54.91007935 -34.15283317 54.91007935 -36.75 55.5625 C-46.09157842 56.82002017 -54.44056229 54.62259667 -63 51 C-63 47.7 -63 44.4 -63 41 C-61.35 40.34 -59.7 39.68 -58 39 C-58.2309436 38.15441528 -58.2309436 38.15441528 -58.46655273 37.29174805 C-59.42105082 33.19111943 -59.66982807 28.99809189 -60.0625 24.8125 C-60.15337891 23.90435547 -60.24425781 22.99621094 -60.33789062 22.06054688 C-61.74837747 7.24513241 -61.74837747 7.24513241 -60 2 C-42.40198587 -8.61764683 -18.60244336 -6.7136997 0 0 Z " fill="#070606" transform="translate(63,8)"/>
<path d="M0 0 C7.11207023 0.04642343 13.66016595 1.87057173 20.45849609 3.78027344 C22.58226786 4.35143338 24.71902269 4.83235163 26.86328125 5.3203125 C28.04277344 5.64773437 29.22226562 5.97515625 30.4375 6.3125 C31.98427209 9.40604417 31.30254092 12.57210407 31.0625 15.9375 C31.01359619 16.68572021 30.96469238 17.43394043 30.91430664 18.20483398 C30.81141564 19.77618532 30.70630496 21.34739268 30.59912109 22.91845703 C30.3897184 26.02027398 30.19824672 29.12307398 30.00732422 32.22607422 C29.82080608 35.25510123 29.62908732 38.28378984 29.4375 41.3125 C27.5 41.875 27.5 41.875 25.4375 42.3125 C25.1075 41.9825 24.7775 41.6525 24.4375 41.3125 C24.39238281 41.90804687 24.34726562 42.50359375 24.30078125 43.1171875 C22.99440832 46.43927613 20.80000323 46.97093261 17.625 48.4375 C16.56667969 48.93507812 15.50835937 49.43265625 14.41796875 49.9453125 C12.67625049 50.74426583 10.9305766 51.53488091 9.17578125 52.3046875 C7.10339059 53.33526712 7.10339059 53.33526712 5.4375 56.3125 C4.1175 55.9825 2.7975 55.6525 1.4375 55.3125 C1.40806876 51.52085009 1.3905581 47.72923021 1.375 43.9375 C1.36662109 42.87660156 1.35824219 41.81570312 1.34960938 40.72265625 C1.3295576 34.18577796 1.6316922 27.80075176 2.4375 21.3125 C1.695 21.18875 0.9525 21.065 0.1875 20.9375 C-2.36391485 20.35763299 -4.2892573 19.57541261 -6.5625 18.3125 C-6.5625 17.6525 -6.5625 16.9925 -6.5625 16.3125 C-7.243125 16.044375 -7.92375 15.77625 -8.625 15.5 C-10.74523296 14.64288455 -12.84767977 13.74130899 -14.9375 12.8125 C-18.4748553 11.34876677 -21.8709038 10.29190307 -25.5625 9.3125 C-25.5625 8.3225 -25.5625 7.3325 -25.5625 6.3125 C-19.58571502 4.40501543 -13.67568386 2.84120977 -7.49609375 1.7421875 C-4.5744717 1.09293815 -3.30618274 0.09361769 0 0 Z " fill="#D2CECE" transform="translate(32.5625,3.6875)"/>
<path d="M0 0 C2.56489767 0.93132007 5.12679206 1.86978507 7.6875 2.8125 C8.40873047 3.07353516 9.12996094 3.33457031 9.87304688 3.60351562 C20.21415441 7.42830882 20.21415441 7.42830882 22 11 C23.88263881 11.90343684 23.88263881 11.90343684 26.0625 12.625 C26.79597656 12.88539062 27.52945313 13.14578125 28.28515625 13.4140625 C29.13400391 13.70410156 29.13400391 13.70410156 30 14 C30.02918634 18.35415244 30.04686145 22.70827948 30.0625 27.0625 C30.07087891 28.29162109 30.07925781 29.52074219 30.08789062 30.78710938 C30.10363389 36.62786137 30.08469508 42.25197017 29 48 C29.66 48 30.32 48 31 48 C31 48.66 31 49.32 31 50 C28.71484375 50.28125 28.71484375 50.28125 26 50 C24.19140625 48.09375 24.19140625 48.09375 22.5625 45.5 C21.9746875 44.5925 21.386875 43.685 20.78125 42.75 C20.1934375 41.8425 19.605625 40.935 19 40 C17.38179411 37.84239215 15.73144191 35.71525758 14.06640625 33.59375 C13 32 13 32 13 30 C11.9790625 30.2475 11.9790625 30.2475 10.9375 30.5 C7.58422788 31.07076972 4.39612215 31.03200115 1 31 C-2.26213592 4.52427184 -2.26213592 4.52427184 0 0 Z " fill="#646160" transform="translate(5,11)"/>
<path d="M0 0 C0 1.32 0 2.64 0 4 C1.65 4 3.3 4 5 4 C5 7.96 5 11.92 5 16 C6.65 15.01 8.3 14.02 10 13 C10.66 13.33 11.32 13.66 12 14 C11.505 14.763125 11.01 15.52625 10.5 16.3125 C8.75631692 18.92363751 8.75631692 18.92363751 9 22 C8.34 22 7.68 22 7 22 C7.309375 22.61875 7.61875 23.2375 7.9375 23.875 C8.89576555 26.6934281 9.45858552 29.18863401 9.875 32.125 C9.99617188 32.97320312 10.11734375 33.82140625 10.2421875 34.6953125 C10 37 10 37 8.21875 38.7109375 C5.25499831 40.43283549 2.1657226 41.69004582 -1 43 C-5.74755895 45.0889723 -5.74755895 45.0889723 -9 49 C-10.32 48.67 -11.64 48.34 -13 48 C-13 40.08 -13 32.16 -13 24 C-12.34 25.32 -11.68 26.64 -11 28 C-10.34 26.02 -9.68 24.04 -9 22 C-8.01 22 -7.02 22 -6 22 C-5.67 21.01 -5.34 20.02 -5 19 C-4.34 18.67 -3.68 18.34 -3 18 C-3 17.34 -3 16.68 -3 16 C-3.4125 16.495 -3.825 16.99 -4.25 17.5 C-6 19 -6 19 -10 19 C-10.33 18.34 -10.66 17.68 -11 17 C-10.67 16.34 -10.34 15.68 -10 15 C-9.34 15 -8.68 15 -8 15 C-8.33 13.68 -8.66 12.36 -9 11 C-7.68 10.67 -6.36 10.34 -5 10 C-4.67 10.99 -4.34 11.98 -4 13 C-4 11.68 -4 10.36 -4 9 C-2.68 8.34 -1.36 7.68 0 7 C-3.3 6.67 -6.6 6.34 -10 6 C-9.67 5.34 -9.34 4.68 -9 4 C-6.03 4.495 -6.03 4.495 -3 5 C-3 4.34 -3 3.68 -3 3 C-4.32 3 -5.64 3 -7 3 C-7 2.34 -7 1.68 -7 1 C-7.99 1 -8.98 1 -10 1 C-10.33 2.32 -10.66 3.64 -11 5 C-12.98 5 -14.96 5 -17 5 C-17 4.34 -17 3.68 -17 3 C-15.125 1.9375 -15.125 1.9375 -13 1 C-12.34 1.33 -11.68 1.66 -11 2 C-11 1.34 -11 0.68 -11 0 C-3.375 -1.125 -3.375 -1.125 0 0 Z " fill="#CEC9C6" transform="translate(47,11)"/>
<path d="M0 0 C0.99 0 1.98 0 3 0 C3.33 1.32 3.66 2.64 4 4 C3.34 4 2.68 4 2 4 C3.37485532 5.54166642 3.37485532 5.54166642 5 7 C5.66 7 6.32 7 7 7 C7 6.01 7 5.02 7 4 C6.34 4 5.68 4 5 4 C5 3.34 5 2.68 5 2 C7 3 9 4 11 5 C10.34 6.98 9.68 8.96 9 11 C9.99 11 10.98 11 12 11 C12 10.34 12 9.68 12 9 C12.66 9 13.32 9 14 9 C14 9.66 14 10.32 14 11 C15.65 10.67 17.3 10.34 19 10 C19.69508823 16.51244208 20.31909709 22.5510809 19 29 C19.66 29 20.32 29 21 29 C21 29.66 21 30.32 21 31 C18.71484375 31.28125 18.71484375 31.28125 16 31 C14.19140625 29.09375 14.19140625 29.09375 12.5625 26.5 C11.9746875 25.5925 11.386875 24.685 10.78125 23.75 C10.1934375 22.8425 9.605625 21.935 9 21 C7.38179411 18.84239215 5.73144191 16.71525758 4.06640625 14.59375 C3 13 3 13 3 11 C2.319375 11.165 1.63875 11.33 0.9375 11.5 C-2.4164822 12.07089059 -5.60389805 12.06659023 -9 12 C-9 8.37 -9 4.74 -9 1 C-7.35 1 -5.7 1 -4 1 C-4 1.66 -4 2.32 -4 3 C-3.01 2.67 -2.02 2.34 -1 2 C-0.67 1.34 -0.34 0.68 0 0 Z " fill="#595756" transform="translate(15,30)"/>
<path d="M0 0 C5.77149626 -0.20612487 10.47570753 0.25548659 16 2 C17.54677209 5.09354417 16.86504092 8.25960407 16.625 11.625 C16.57609619 12.37322021 16.52719238 13.12144043 16.47680664 13.89233398 C16.37391564 15.46368532 16.26880496 17.03489268 16.16162109 18.60595703 C15.9522184 21.70777398 15.76074672 24.81057398 15.56982422 27.91357422 C15.38330608 30.94260123 15.19158732 33.97128984 15 37 C13.02 37.495 13.02 37.495 11 38 C8.26746633 33.9011995 7.33327259 29.90281007 7 25 C7.66451779 22.29412182 8.61315185 20.45365442 10 18 C9.34 18.33 8.68 18.66 8 19 C7.01 19 6.02 19 5 19 C4.97421875 18.38511719 4.9484375 17.77023438 4.921875 17.13671875 C4.7185352 12.00745409 4.7185352 12.00745409 1.9375 7.9375 C0.9784375 7.4734375 0.9784375 7.4734375 0 7 C0.185625 6.21625 0.37125 5.4325 0.5625 4.625 C1.25962266 2.02910225 1.25962266 2.02910225 0 0 Z " fill="#D3CECC" transform="translate(47,8)"/>
<path d="M0 0 C0 1.32 0 2.64 0 4 C1.65 4 3.3 4 5 4 C5 7.96 5 11.92 5 16 C6.65 15.01 8.3 14.02 10 13 C10.66 13.33 11.32 13.66 12 14 C11.505 14.763125 11.01 15.52625 10.5 16.3125 C8.75631692 18.92363751 8.75631692 18.92363751 9 22 C8.34 22 7.68 22 7 22 C7.33 22.721875 7.66 23.44375 8 24.1875 C9.00603529 27.01697427 9.16977402 29.02895466 9 32 C5.34543185 32.75241109 1.68266103 33.40049704 -2 34 C-1.505 31.03 -1.505 31.03 -1 28 C-0.34 28 0.32 28 1 28 C1.33 28.99 1.66 29.98 2 31 C3.32 30.67 4.64 30.34 6 30 C5.67 27.36 5.34 24.72 5 22 C4.34 22 3.68 22 3 22 C2.67 22.99 2.34 23.98 2 25 C1.34 24.67 0.68 24.34 0 24 C-0.639375 24.33 -1.27875 24.66 -1.9375 25 C-4 26 -4 26 -7 25 C-7.33 25.66 -7.66 26.32 -8 27 C-8.33 25.35 -8.66 23.7 -9 22 C-8.01 22 -7.02 22 -6 22 C-5.67 21.01 -5.34 20.02 -5 19 C-4.34 18.67 -3.68 18.34 -3 18 C-3 17.34 -3 16.68 -3 16 C-3.4125 16.495 -3.825 16.99 -4.25 17.5 C-6 19 -6 19 -10 19 C-10.33 18.34 -10.66 17.68 -11 17 C-10.67 16.34 -10.34 15.68 -10 15 C-9.34 15 -8.68 15 -8 15 C-8.33 13.68 -8.66 12.36 -9 11 C-7.68 10.67 -6.36 10.34 -5 10 C-4.67 10.99 -4.34 11.98 -4 13 C-4 11.68 -4 10.36 -4 9 C-2.68 8.34 -1.36 7.68 0 7 C-3.3 6.67 -6.6 6.34 -10 6 C-9.67 5.34 -9.34 4.68 -9 4 C-6.03 4.495 -6.03 4.495 -3 5 C-3 4.34 -3 3.68 -3 3 C-4.32 3 -5.64 3 -7 3 C-7 2.34 -7 1.68 -7 1 C-7.99 1 -8.98 1 -10 1 C-10.33 2.32 -10.66 3.64 -11 5 C-12.98 5 -14.96 5 -17 5 C-17 4.34 -17 3.68 -17 3 C-15.125 1.9375 -15.125 1.9375 -13 1 C-12.34 1.33 -11.68 1.66 -11 2 C-11 1.34 -11 0.68 -11 0 C-3.375 -1.125 -3.375 -1.125 0 0 Z " fill="#CAC3C2" transform="translate(47,11)"/>
<path d="M0 0 C2.64 0.33 5.28 0.66 8 1 C7.67 1.99 7.34 2.98 7 4 C5.02 4 3.04 4 1 4 C4.3 4.33 7.6 4.66 11 5 C10.01 6.32 9.02 7.64 8 9 C7.30419733 10.31836295 6.62775567 11.64791086 6 13 C5.67 11.68 5.34 10.36 5 9 C3.68 9.33 2.36 9.66 1 10 C1.33 11.32 1.66 12.64 2 14 C1.34 14 0.68 14 0 14 C0 14.99 0 15.98 0 17 C0.66 16.67 1.32 16.34 2 16 C2 16.66 2 17.32 2 18 C2.66 18 3.32 18 4 18 C4.33 17.01 4.66 16.02 5 15 C5.66 15 6.32 15 7 15 C7.33 15.99 7.66 16.98 8 18 C7.01 18.33 6.02 18.66 5 19 C4.67 19.66 4.34 20.32 4 21 C3.01 21 2.02 21 1 21 C1.061875 21.763125 1.12375 22.52625 1.1875 23.3125 C1 26 1 26 -2 29 C-2 23.72 -2 18.44 -2 13 C-3.65 12.67 -5.3 12.34 -7 12 C-9.3125 10.9375 -9.3125 10.9375 -11 10 C-11 9.34 -11 8.68 -11 8 C-12.32 7.34 -13.64 6.68 -15 6 C-14.34 5.67 -13.68 5.34 -13 5 C-10.00667261 5.9977758 -9.05233685 6.7522025 -7 9 C-7.33 8.01 -7.66 7.02 -8 6 C-7.34 6 -6.68 6 -6 6 C-5.67 6.33 -5.34 6.66 -5 7 C-2.47411298 4.63707344 -1.11179163 3.33537489 0 0 Z " fill="#E3E0DF" transform="translate(37,12)"/>
<path d="M0 0 C0.33 0 0.66 0 1 0 C2.29378095 8.91659846 1.62357412 17.13616109 0.47265625 25.99609375 C0.08472936 29.01995215 -0.10322585 31.94572918 0 35 C-0.99 35.495 -0.99 35.495 -2 36 C-1.67 37.65 -1.34 39.3 -1 41 C-5.66225873 42.1100616 -8.5974045 41.9453329 -13 40 C-13.33 39.34 -13.66 38.68 -14 38 C-14.99 38 -15.98 38 -17 38 C-16.78515625 36.140625 -16.78515625 36.140625 -16 34 C-13.93359375 32.734375 -13.93359375 32.734375 -11.4375 31.75 C-10.61121094 31.41484375 -9.78492188 31.0796875 -8.93359375 30.734375 C-8.29550781 30.49203125 -7.65742187 30.2496875 -7 30 C-7 28.35 -7 26.7 -7 25 C-6.34 25.33 -5.68 25.66 -5 26 C-5 26.66 -5 27.32 -5 28 C-4.01 27.67 -3.02 27.34 -2 27 C-1.34 18.09 -0.68 9.18 0 0 Z " fill="#0F0E0E" transform="translate(63,18)"/>
<path d="M0 0 C3.79549259 0.54581199 5.30979295 2.05409295 7.75 4.9375 C8.67039062 6.00291016 8.67039062 6.00291016 9.609375 7.08984375 C11 9 11 9 11 11 C13.475 11.495 13.475 11.495 16 12 C15.01 12.495 15.01 12.495 14 13 C14 13.66 14 14.32 14 15 C15.65 14.67 17.3 14.34 19 14 C19 11.36 19 8.72 19 6 C16.525 5.505 16.525 5.505 14 5 C14.33 4.34 14.66 3.68 15 3 C18.0625 2.375 18.0625 2.375 21 2 C21.18451025 12.55808656 21.18451025 12.55808656 20 17 C18.35 17.33 16.7 17.66 15 18 C15 17.34 15 16.68 15 16 C14.34 16 13.68 16 13 16 C13 16.66 13 17.32 13 18 C12.01 18 11.02 18 10 18 C10.66 16.02 11.32 14.04 12 12 C11.38125 11.690625 10.7625 11.38125 10.125 11.0625 C8.75 10.375 7.375 9.6875 6 9 C6 9.66 6 10.32 6 11 C6.66 11 7.32 11 8 11 C8.33 12.32 8.66 13.64 9 15 C6.525 14.505 6.525 14.505 4 14 C4 11.66666667 4 9.33333333 4 7 C3.01 7 2.02 7 1 7 C0.34 8.32 -0.32 9.64 -1 11 C-1.66 10.67 -2.32 10.34 -3 10 C-3 9.34 -3 8.68 -3 8 C-4.32 8.33 -5.64 8.66 -7 9 C-9.1519437 5.77208445 -9.20086443 4.71599191 -9 1 C-8.01 1.495 -8.01 1.495 -7 2 C-6.67 2.99 -6.34 3.98 -6 5 C-5.01 5.33 -4.02 5.66 -3 6 C-3 5.34 -3 4.68 -3 4 C-2.01 4 -1.02 4 0 4 C-0.33 3.34 -0.66 2.68 -1 2 C-0.67 1.34 -0.34 0.68 0 0 Z " fill="#5C5855" transform="translate(14,23)"/>
<path d="M0 0 C1.66666667 0 3.33333333 0 5 0 C4.36004696 11.00174594 3.69572409 22.00163831 3 33 C1.02 33.495 1.02 33.495 -1 34 C-3.73745516 29.89381726 -4.64836181 25.90797134 -5 21 C-3.75 17.25 -3.75 17.25 -2 14 C-0.01072207 9.0791546 0.18050239 5.23456926 0 0 Z " fill="#C0BDBC" transform="translate(59,12)"/>
<path d="M0 0 C0.33 1.65 0.66 3.3 1 5 C-2.37588422 7.83574274 -5.94411988 9.32170478 -10 11 C-14.74755895 13.0889723 -14.74755895 13.0889723 -18 17 C-19.32 16.67 -20.64 16.34 -22 16 C-22 13.69 -22 11.38 -22 9 C-21.01 9.495 -21.01 9.495 -20 10 C-18.21193386 8.37448533 -17.07766164 7.18305958 -16.125 4.9375 C-14.54723093 2.22023104 -12.95636618 1.94066197 -10 1 C-8.989375 0.608125 -7.97875 0.21625 -6.9375 -0.1875 C-4.02139072 -0.99408342 -2.76927698 -1.06510653 0 0 Z " fill="#C3BFBD" transform="translate(56,43)"/>
<path d="M0 0 C2 2 2 2 2.22705078 3.87939453 C2.21657715 4.62302246 2.20610352 5.36665039 2.1953125 6.1328125 C2.18886719 6.93847656 2.18242188 7.74414062 2.17578125 8.57421875 C2.15902344 9.41597656 2.14226562 10.25773437 2.125 11.125 C2.11597656 11.97449219 2.10695312 12.82398437 2.09765625 13.69921875 C2.07405647 15.79959884 2.03818483 17.89983444 2 20 C1.67 20 1.34 20 1 20 C0.505 11.09 0.505 11.09 0 2 C-5.27868818 1.0984663 -5.27868818 1.0984663 -10.55883789 0.20556641 C-14.02697677 -0.39661314 -17.31705122 -1.09297493 -20.703125 -2.0859375 C-23.85845616 -2.9607568 -26.42831438 -3.26859735 -29.6875 -3.25 C-30.59886719 -3.25515625 -31.51023437 -3.2603125 -32.44921875 -3.265625 C-35.165252 -2.98279152 -36.58708053 -2.22189889 -39 -1 C-41.50288397 -0.42134652 -43.9766708 0.09948134 -46.5 0.5625 C-52.28121732 1.63822409 -52.28121732 1.63822409 -58 3 C-58.02717692 5.06242617 -58.0464758 7.12495703 -58.0625 9.1875 C-58.07410156 10.33605469 -58.08570313 11.48460938 -58.09765625 12.66796875 C-58.01127534 15.61528547 -57.58186436 18.12704473 -57 21 C-56.9340265 23.10323534 -56.91437755 25.20835724 -56.9375 27.3125 C-56.94652344 28.38113281 -56.95554687 29.44976562 -56.96484375 30.55078125 C-56.97644531 31.35902344 -56.98804688 32.16726562 -57 33 C-57.33 33 -57.66 33 -58 33 C-58.09087891 31.93458984 -58.09087891 31.93458984 -58.18359375 30.84765625 C-58.26738281 29.92855469 -58.35117187 29.00945313 -58.4375 28.0625 C-58.51871094 27.14597656 -58.59992187 26.22945312 -58.68359375 25.28515625 C-58.76044976 23.03840268 -58.76044976 23.03840268 -60 22 C-61.04970072 15.46852885 -62.12364355 8.37093066 -60 2 C-42.40198587 -8.61764683 -18.60244336 -6.7136997 0 0 Z " fill="#090808" transform="translate(63,8)"/>
<path d="M0 0 C3 2 3 2 3.4375 4 C3.623125 4.66 3.80875 5.32 4 6 C5.32407669 6.68486725 6.65909241 7.34870203 8 8 C10.3125 10.3125 10.3125 10.3125 12 13 C11.75 15.8125 11.75 15.8125 11 18 C10.38125 17.21625 9.7625 16.4325 9.125 15.625 C7.10141339 13.03162353 7.10141339 13.03162353 5 11 C5.66 12.65 6.32 14.3 7 16 C6 17 6 17 3.71484375 17.09765625 C2.34005859 17.08025391 2.34005859 17.08025391 0.9375 17.0625 C0.01839844 17.05347656 -0.90070312 17.04445313 -1.84765625 17.03515625 C-2.55792969 17.02355469 -3.26820312 17.01195313 -4 17 C-3.46930939 13.17902761 -2.50298434 10.93828597 0 8 C-0.94875 7.7525 -1.8975 7.505 -2.875 7.25 C-6 6 -6 6 -7.375 3.875 C-7.58125 3.25625 -7.7875 2.6375 -8 2 C-5.625 1.875 -5.625 1.875 -3 2 C-2.34 2.66 -1.68 3.32 -1 4 C-1.33 3.01 -1.66 2.02 -2 1 C-1.34 0.67 -0.68 0.34 0 0 Z " fill="#3F3E3C" transform="translate(15,42)"/>
<path d="M0 0 C-0.33 1.32 -0.66 2.64 -1 4 C0.98 4.66 2.96 5.32 5 6 C4.67 5.01 4.34 4.02 4 3 C5.258125 2.95875 6.51625 2.9175 7.8125 2.875 C8.52019531 2.85179687 9.22789063 2.82859375 9.95703125 2.8046875 C12 3 12 3 15 5 C14.67 5.66 14.34 6.32 14 7 C15.32 7.33 16.64 7.66 18 8 C17.67 8.99 17.34 9.98 17 11 C16.34 11 15.68 11 15 11 C15 11.66 15 12.32 15 13 C13.68 12.34 12.36 11.68 11 11 C11 10.34 11 9.68 11 9 C9.741875 8.9175 8.48375 8.835 7.1875 8.75 C1.44157759 8.13697962 -3.66812307 6.1427169 -9 4 C-9 3.01 -9 2.02 -9 1 C-6.04335481 -0.4783226 -3.25770263 -0.06032783 0 0 Z " fill="#D3CFCD" transform="translate(16,9)"/>
<path d="M0 0 C0.66 0 1.32 0 2 0 C2.33 2.97 2.66 5.94 3 9 C4.175625 8.2265625 4.175625 8.2265625 5.375 7.4375 C6.24125 6.963125 7.1075 6.48875 8 6 C8.66 6.33 9.32 6.66 10 7 C9.505 7.763125 9.01 8.52625 8.5 9.3125 C6.75631692 11.92363751 6.75631692 11.92363751 7 15 C6.34 15 5.68 15 5 15 C5.495 16.0828125 5.495 16.0828125 6 17.1875 C7.00603529 20.01697427 7.16977402 22.02895466 7 25 C3.34543185 25.75241109 -0.31733897 26.40049704 -4 27 C-3.67 25.02 -3.34 23.04 -3 21 C-2.34 21 -1.68 21 -1 21 C-0.67 21.99 -0.34 22.98 0 24 C1.32 23.67 2.64 23.34 4 23 C3.81824219 22.11477661 3.81824219 22.11477661 3.6328125 21.21166992 C3.08551754 18.53755518 2.54271037 15.86254877 2 13.1875 C1.80921875 12.25873047 1.6184375 11.32996094 1.421875 10.37304688 C1.24140625 9.48037109 1.0609375 8.58769531 0.875 7.66796875 C0.70742188 6.84578857 0.53984375 6.0236084 0.3671875 5.17651367 C0 3 0 3 0 0 Z " fill="#7E7A7A" transform="translate(49,18)"/>
<path d="M0 0 C0.18451025 10.55808656 0.18451025 10.55808656 -1 15 C-2.65 15.33 -4.3 15.66 -6 16 C-6 15.34 -6 14.68 -6 14 C-6.66 14 -7.32 14 -8 14 C-8 14.66 -8 15.32 -8 16 C-8.99 16 -9.98 16 -11 16 C-10.34 14.02 -9.68 12.04 -9 10 C-9.598125 9.731875 -10.19625 9.46375 -10.8125 9.1875 C-12.97224808 8.01506533 -14.35790256 6.80630718 -16 5 C-15.34 4.67 -14.68 4.34 -14 4 C-12 5.375 -12 5.375 -10 7 C-10 7.66 -10 8.32 -10 9 C-8.35 9.33 -6.7 9.66 -5 10 C-5.99 10.495 -5.99 10.495 -7 11 C-7 11.66 -7 12.32 -7 13 C-5.35 12.67 -3.7 12.34 -2 12 C-2 9.36 -2 6.72 -2 4 C-3.65 3.67 -5.3 3.34 -7 3 C-5.40442685 -0.19114631 -3.35905282 0 0 0 Z " fill="#676665" transform="translate(35,25)"/>
<path d="M0 0 C0.66 -0.33 1.32 -0.66 2 -1 C1.67 2.3 1.34 5.6 1 9 C1.66 9 2.32 9 3 9 C3 9.66 3 10.32 3 11 C0.73828125 11.3046875 0.73828125 11.3046875 -2 11 C-4.01953125 8.8828125 -4.01953125 8.8828125 -5.8125 6.125 C-6.41707031 5.22007813 -7.02164062 4.31515625 -7.64453125 3.3828125 C-9 1 -9 1 -9 -1 C-5.33198605 -2.35852368 -3.50651662 -1.47642805 0 0 Z " fill="#626160" transform="translate(33,50)"/>
<path d="M0 0 C2 1 4 2 6 3 C5.67 4.051875 5.34 5.10375 5 6.1875 C4.16033218 9.38873357 3.80249096 11.7411008 4 15 C1.96166576 13.7260411 -0.03852126 12.38938077 -2 11 C-2 10.34 -2 9.68 -2 9 C-3.1446875 9.1546875 -3.1446875 9.1546875 -4.3125 9.3125 C-5.6428125 9.1578125 -5.6428125 9.1578125 -7 9 C-8.8125 6.5 -8.8125 6.5 -10 4 C-9.38125 4.33 -8.7625 4.66 -8.125 5 C-6.08981656 6.14193235 -6.08981656 6.14193235 -4 6 C-3.34 5.34 -2.68 4.68 -2 4 C0.125 4.375 0.125 4.375 2 5 C2 4.01 2 3.02 2 2 C1.34 2 0.68 2 0 2 C0 1.34 0 0.68 0 0 Z " fill="#53514F" transform="translate(20,32)"/>
<path d="M0 0 C1.32 0.33 2.64 0.66 4 1 C3.01 1.66 2.02 2.32 1 3 C2.32 3.66 3.64 4.32 5 5 C5 7.64 5 10.28 5 13 C3.35 13.33 1.7 13.66 0 14 C0 13.01 0 12.02 0 11 C-0.99 10.67 -1.98 10.34 -3 10 C-4.1875 7.9375 -4.1875 7.9375 -5 6 C-4.34 6 -3.68 6 -3 6 C-3.33 5.01 -3.66 4.02 -4 3 C-2.68 2.67 -1.36 2.34 0 2 C0 1.34 0 0.68 0 0 Z " fill="#5C5A5A" transform="translate(28,24)"/>
<path d="M0 0 C2.64 0.33 5.28 0.66 8 1 C7.67 1.99 7.34 2.98 7 4 C5.02 4 3.04 4 1 4 C4.3 4.33 7.6 4.66 11 5 C10.01 6.32 9.02 7.64 8 9 C7.30419733 10.31836295 6.62775567 11.64791086 6 13 C5.67 11.68 5.34 10.36 5 9 C4.01 9.33 3.02 9.66 2 10 C-0.6875 9.0625 -0.6875 9.0625 -3 8 C-2.690625 7.236875 -2.38125 6.47375 -2.0625 5.6875 C-1.32106407 3.81210323 -0.63771783 1.91315348 0 0 Z " fill="#DAD7D6" transform="translate(37,12)"/>
<path d="M0 0 C2.5786365 1.20873586 3.61749059 2.46353579 5 4.9375 C4.67 5.9275 4.34 6.9175 4 7.9375 C0.7 7.9375 -2.6 7.9375 -6 7.9375 C-5.63287028 5.22074005 -5.27255401 3.32686287 -3.6875 1.0625 C-2 -0.0625 -2 -0.0625 0 0 Z " fill="#5D5C5B" transform="translate(17,51.0625)"/>
<path d="M0 0 C0.33 1.65 0.66 3.3 1 5 C-1.35968744 7.09749995 -2.54616994 7.96905704 -5.75 8.1875 C-6.4925 8.125625 -7.235 8.06375 -8 8 C-8 6.68 -8 5.36 -8 4 C-8.99 3.34 -9.98 2.68 -11 2 C-3.57142857 -1.57142857 -3.57142857 -1.57142857 0 0 Z " fill="#DCD8D5" transform="translate(56,43)"/>
<path d="M0 0 C2.5625 0.40625 2.5625 0.40625 5.01953125 3.03125 C5.82131041 4.14446405 6.60605635 5.27010697 7.375 6.40625 C7.98504883 7.26476563 7.98504883 7.26476563 8.60742188 8.140625 C9.60724232 9.55213621 10.58688622 10.97790041 11.5625 12.40625 C11.2325 13.06625 10.9025 13.72625 10.5625 14.40625 C10.005625 13.6225 9.44875 12.83875 8.875 12.03125 C6.79303175 9.25096942 6.79303175 9.25096942 3.875 8.40625 C3.111875 8.07625 2.34875 7.74625 1.5625 7.40625 C0.75 4.78125 0.75 4.78125 0.5625 2.40625 C-0.4275 2.90125 -0.4275 2.90125 -1.4375 3.40625 C-1.1075 4.72625 -0.7775 6.04625 -0.4375 7.40625 C-0.829375 6.931875 -1.22125 6.4575 -1.625 5.96875 C-3.84558374 4.05445367 -5.57125709 3.79358012 -8.4375 3.40625 C-8.7675 4.06625 -9.0975 4.72625 -9.4375 5.40625 C-9.4375 4.08625 -9.4375 2.76625 -9.4375 1.40625 C-6.29365576 0.91309796 -3.13874097 0.52312349 0 0 Z " fill="#232221" transform="translate(15.4375,40.59375)"/>
<path d="M0 0 C-0.33 1.98 -0.66 3.96 -1 6 C-4.32534757 7.10844919 -6.62182575 6.84454356 -10 6 C-9.67 5.34 -9.34 4.68 -9 4 C-6.03 4.495 -6.03 4.495 -3 5 C-3 4.34 -3 3.68 -3 3 C-4.32 3 -5.64 3 -7 3 C-7 2.34 -7 1.68 -7 1 C-7.99 1 -8.98 1 -10 1 C-10.33 2.32 -10.66 3.64 -11 5 C-12.98 5 -14.96 5 -17 5 C-17 4.34 -17 3.68 -17 3 C-15.125 1.9375 -15.125 1.9375 -13 1 C-12.34 1.33 -11.68 1.66 -11 2 C-11 1.34 -11 0.68 -11 0 C-3.375 -1.125 -3.375 -1.125 0 0 Z " fill="#A7A29F" transform="translate(47,11)"/>
<path d="M0 0 C2.64 1.32 5.28 2.64 8 4 C7.34 5.32 6.68 6.64 6 8 C4.68 7.67 3.36 7.34 2 7 C2 7.66 2 8.32 2 9 C0.35 9.33 -1.3 9.66 -3 10 C-2.69201674 8.51988629 -2.378482 7.04092675 -2.0625 5.5625 C-1.88847656 4.73878906 -1.71445313 3.91507813 -1.53515625 3.06640625 C-1 1 -1 1 0 0 Z " fill="#10100F" transform="translate(7,46)"/>
<path d="M0 0 C0.33 1.32 0.66 2.64 1 4 C1.99 4.33 2.98 4.66 4 5 C4 5.66 4 6.32 4 7 C3.01 7 2.02 7 1 7 C1 7.66 1 8.32 1 9 C2.093125 9.2475 3.18625 9.495 4.3125 9.75 C8.05908409 11.02002851 9.10595266 11.65756352 11 15 C9.68 14.67 8.36 14.34 7 14 C7 14.66 7 15.32 7 16 C5.0625 15.6875 5.0625 15.6875 3 15 C2.67 14.01 2.34 13.02 2 12 C1.34 11.67 0.68 11.34 0 11 C0 7.37 0 3.74 0 0 Z " fill="#504E4E" transform="translate(4,13)"/>
<path d="M0 0 C1.65 0 3.3 0 5 0 C5.33 0.99 5.66 1.98 6 3 C6.33 3.33 6.66 3.66 7 4 C7 7 7 10 7 13 C6.01 13 5.02 13 4 13 C1.99706653 9.99559979 1.50728374 8.29006055 0.875 4.8125 C0.70742188 3.91144531 0.53984375 3.01039062 0.3671875 2.08203125 C0.24601562 1.39496094 0.12484375 0.70789062 0 0 Z " fill="#D5D5D5" transform="translate(54,33)"/>
<path d="M0 0 C0.33 0.66 0.66 1.32 1 2 C3.02463255 2.65213292 3.02463255 2.65213292 5 3 C5 4.65 5 6.3 5 8 C3.02 8.99 3.02 8.99 1 10 C0.34 9.34 -0.32 8.68 -1 8 C-1 6.68 -1 5.36 -1 4 C-2.32 5.32 -3.64 6.64 -5 8 C-3.375 2.25 -3.375 2.25 0 0 Z " fill="#A29F9D" transform="translate(44,44)"/>
<path d="M0 0 C0 0.66 0 1.32 0 2 C1.32 1.67 2.64 1.34 4 1 C4 1.99 4 2.98 4 4 C5.32 4.33 6.64 4.66 8 5 C7.27554688 4.86980469 6.55109375 4.73960938 5.8046875 4.60546875 C0.22907278 3.64683158 0.22907278 3.64683158 -5.06640625 5.046875 C-6.88564725 6.54778872 -6.88564725 6.54778872 -9 9 C-10.32 8.34 -11.64 7.68 -13 7 C-12.21625 6.731875 -11.4325 6.46375 -10.625 6.1875 C-7.71885077 5.15185568 -7.71885077 5.15185568 -6 2 C-3.83252916 0.71306419 -2.53199972 0 0 0 Z " fill="#181816" transform="translate(46,54)"/>
<path d="M0 0 C3.32454983 0.57319825 4.73981645 1.54327875 7 4 C7.99 4.66 8.98 5.32 10 6 C9.34 6 8.68 6 8 6 C8 6.66 8 7.32 8 8 C6.35 8.66 4.7 9.32 3 10 C3 9.34 3 8.68 3 8 C2.34 8 1.68 8 1 8 C1 7.34 1 6.68 1 6 C1.66 6 2.32 6 3 6 C3 5.01 3 4.02 3 3 C1.68 3.33 0.36 3.66 -1 4 C-0.67 2.68 -0.34 1.36 0 0 Z " fill="#5F5C5B" transform="translate(20,18)"/>
<path d="M0 0 C1.65 0 3.3 0 5 0 C5 0.66 5 1.32 5 2 C5.59167969 1.98839844 6.18335938 1.97679687 6.79296875 1.96484375 C11.00231785 1.91677614 14.8922333 1.93993117 19 3 C19 3.33 19 3.66 19 4 C15.7 4.33 12.4 4.66 9 5 C9 5.66 9 6.32 9 7 C6.0625 6.625 6.0625 6.625 3 6 C2.67 5.34 2.34 4.68 2 4 C2.66 4 3.32 4 4 4 C4 3.01 4 2.02 4 1 C2.68 0.67 1.36 0.34 0 0 Z " fill="#A6A1A0" transform="translate(12,8)"/>
<path d="M0 0 C4.29 0 8.58 0 13 0 C13.33 1.32 13.66 2.64 14 4 C7.34250344 5.36176066 7.34250344 5.36176066 4 4 C3.67 3.34 3.34 2.68 3 2 C2.01 2 1.02 2 0 2 C0 1.34 0 0.68 0 0 Z " fill="#545352" transform="translate(46,54)"/>
<path d="M0 0 C0.22174933 1.45635371 0.42698698 2.91522956 0.625 4.375 C0.74101563 5.18710937 0.85703125 5.99921875 0.9765625 6.8359375 C0.98429687 7.55007812 0.99203125 8.26421875 1 9 C0.34 9.66 -0.32 10.32 -1 11 C-4.79255319 8.55319149 -4.79255319 8.55319149 -5.75 6 C-6 4 -6 4 -6 1 C-3.92446352 0.4465236 -2.15634036 0 0 0 Z " fill="#4E4D4D" transform="translate(34,40)"/>
<path d="M0 0 C2.7972908 2.06756277 3.02692273 3.14440371 3.6875 6.6875 C3.790625 7.780625 3.89375 8.87375 4 10 C0.34543185 10.75241109 -3.31733897 11.40049704 -7 12 C-6.67 10.02 -6.34 8.04 -6 6 C-5.34 6 -4.68 6 -4 6 C-3.67 6.99 -3.34 7.98 -3 9 C-1.68 8.67 -0.36 8.34 1 8 C0.67 5.36 0.34 2.72 0 0 Z " fill="#6F6C6A" transform="translate(52,33)"/>
<path d="M0 0 C0 5.28 0 10.56 0 16 C-0.66 14.68 -1.32 13.36 -2 12 C-2.66 11.67 -3.32 11.34 -4 11 C-3.01 10.67 -2.02 10.34 -1 10 C-1.99 9.34 -2.98 8.68 -4 8 C-4 7.01 -4 6.02 -4 5 C-4.66 5 -5.32 5 -6 5 C-6 4.34 -6 3.68 -6 3 C-1.5 0 -1.5 0 0 0 Z " fill="#ADACAC" transform="translate(62,29)"/>
<path d="M0 0 C0.99 0.495 0.99 0.495 2 1 C2.33 1.99 2.66 2.98 3 4 C3.99 4.33 4.98 4.66 6 5 C6 4.34 6 3.68 6 3 C6.99 3.33 7.98 3.66 9 4 C9.8125 5.9375 9.8125 5.9375 10 8 C9.34 8.66 8.68 9.32 8 10 C7.34 9.67 6.68 9.34 6 9 C6 8.34 6 7.68 6 7 C4.68 7.33 3.36 7.66 2 8 C-0.1519437 4.77208445 -0.20086443 3.71599191 0 0 Z " fill="#646363" transform="translate(5,24)"/>
<path d="M0 0 C0.33 0.99 0.66 1.98 1 3 C1.99 3.33 2.98 3.66 4 4 C3.34 4 2.68 4 2 4 C2 4.66 2 5.32 2 6 C0.75 7.625 0.75 7.625 -1 9 C-2.32 9 -3.64 9 -5 9 C-5.33 8.34 -5.66 7.68 -6 7 C-5.67 6.34 -5.34 5.68 -5 5 C-4.34 5 -3.68 5 -3 5 C-3.33 3.68 -3.66 2.36 -4 1 C-2 0 -2 0 0 0 Z " fill="#C3BFBC" transform="translate(42,21)"/>
<path d="M0 0 C1.32 0.33 2.64 0.66 4 1 C2.36587557 2.70840281 1.13093906 3.93453047 -1 5 C-0.01 6.98 0.98 8.96 2 11 C-0.375 10.75 -0.375 10.75 -3 10 C-4.3125 7.9375 -4.3125 7.9375 -5 6 C-4.34 6 -3.68 6 -3 6 C-3.33 5.01 -3.66 4.02 -4 3 C-2.68 2.67 -1.36 2.34 0 2 C0 1.34 0 0.68 0 0 Z " fill="#4A4847" transform="translate(28,24)"/>
<path d="M0 0 C0.66 0.33 1.32 0.66 2 1 C1.67 2.98 1.34 4.96 1 7 C0.01 7.33 -0.98 7.66 -2 8 C-2 9.65 -2 11.3 -2 13 C-2.33 13 -2.66 13 -3 13 C-3 9.04 -3 5.08 -3 1 C-2.01 0.67 -1.02 0.34 0 0 Z " fill="#E1DDDC" transform="translate(38,45)"/>
<path d="M0 0 C1.65 0.33 3.3 0.66 5 1 C5 1.66 5 2.32 5 3 C6.32 3.33 7.64 3.66 9 4 C8.67 4.99 8.34 5.98 8 7 C7.34 7 6.68 7 6 7 C6 7.66 6 8.32 6 9 C4.68 8.34 3.36 7.68 2 7 C2 6.34 2 5.68 2 5 C1.01 4.67 0.02 4.34 -1 4 C-0.01 3.67 0.98 3.34 2 3 C1.34 2.67 0.68 2.34 0 2 C0 1.34 0 0.68 0 0 Z " fill="#C7C3C1" transform="translate(25,13)"/>
<path d="M0 0 C0.66 0 1.32 0 2 0 C2.33 0.99 2.66 1.98 3 3 C2.01 3.33 1.02 3.66 0 4 C-0.33 4.66 -0.66 5.32 -1 6 C-1.99 6 -2.98 6 -4 6 C-3.938125 6.763125 -3.87625 7.52625 -3.8125 8.3125 C-4 11 -4 11 -5.5 12.8125 C-5.995 13.204375 -6.49 13.59625 -7 14 C-7.36476427 7.67741935 -7.36476427 7.67741935 -5.6875 4.5625 C-4 3 -4 3 -1 3 C-0.67 2.01 -0.34 1.02 0 0 Z " fill="#DCD8D7" transform="translate(42,27)"/>
<path d="M0 0 C0.79664063 0.07863281 1.59328125 0.15726563 2.4140625 0.23828125 C3.06117187 0.38652344 3.70828125 0.53476563 4.375 0.6875 C4.705 1.3475 5.035 2.0075 5.375 2.6875 C1.745 2.6875 -1.885 2.6875 -5.625 2.6875 C-5.625 3.3475 -5.625 4.0075 -5.625 4.6875 C-6.285 4.6875 -6.945 4.6875 -7.625 4.6875 C-7.625 3.3675 -7.625 2.0475 -7.625 0.6875 C-4.59335415 -0.32304862 -3.10749249 -0.3390912 0 0 Z " fill="#D8D3D0" transform="translate(41.625,8.3125)"/>
<path d="M0 0 C1.67542976 0.28604898 3.34385343 0.61781233 5 1 C5 1.66 5 2.32 5 3 C5.99 3.33 6.98 3.66 8 4 C7.67 4.99 7.34 5.98 7 7 C5.35 7 3.7 7 2 7 C2 5.68 2 4.36 2 3 C1.01 2.34 0.02 1.68 -1 1 C-0.67 0.67 -0.34 0.34 0 0 Z " fill="#C3C0BF" transform="translate(46,44)"/>
<path d="M0 0 C0.66 0.33 1.32 0.66 2 1 C1.01 2.485 1.01 2.485 0 4 C1.65 4.33 3.3 4.66 5 5 C4.01 6.485 4.01 6.485 3 8 C-0.79588866 7.45773019 -2.47211993 5.79872437 -5 3 C-4.34 2.67 -3.68 2.34 -3 2 C-2.67 2.33 -2.34 2.66 -2 3 C-1.34 2.01 -0.68 1.02 0 0 Z " fill="#ECEAEA" transform="translate(34,16)"/>
<path d="M0 0 C3.63 0.66 7.26 1.32 11 2 C10.34 2.66 9.68 3.32 9 4 C9.33 4.66 9.66 5.32 10 6 C6.37 5.01 2.74 4.02 -1 3 C-0.67 2.01 -0.34 1.02 0 0 Z " fill="#B3AEAC" transform="translate(39,5)"/>
<path d="M0 0 C1.66666667 0 3.33333333 0 5 0 C5 1.98 5 3.96 5 6 C4.01 6.33 3.02 6.66 2 7 C2 8.65 2 10.3 2 12 C-0.60018816 8.09971775 -0.15085514 4.52565431 0 0 Z " fill="#9C9999" transform="translate(59,12)"/>
<path d="M0 0 C0.66 0.33 1.32 0.66 2 1 C2 1.66 2 2.32 2 3 C2.66 3.33 3.32 3.66 4 4 C3.67 4.66 3.34 5.32 3 6 C3.66 6 4.32 6 5 6 C4.67 6.99 4.34 7.98 4 9 C2.68 9 1.36 9 0 9 C0 8.34 0 7.68 0 7 C-0.66 6.67 -1.32 6.34 -2 6 C-1.34 5.67 -0.68 5.34 0 5 C0 3.35 0 1.7 0 0 Z " fill="#4F4E4E" transform="translate(56,43)"/>
<path d="M0 0 C2.375 0.3125 2.375 0.3125 5 1 C5.66 1.99 6.32 2.98 7 4 C10.06556598 4.73343428 10.06556598 4.73343428 13 5 C12.67 5.99 12.34 6.98 12 8 C9.07120629 7.37240135 6.63904371 6.41377341 4 5 C4 4.34 4 3.68 4 3 C2.68 2.34 1.36 1.68 0 1 C0 0.67 0 0.34 0 0 Z " fill="#DCDBDA" transform="translate(22,17)"/>
<path d="M0 0 C1.66611905 -0.042721 3.33382885 -0.04063832 5 0 C5.33 0.33 5.66 0.66 6 1 C7.99958364 1.04080783 10.00045254 1.04254356 12 1 C11.67 1.99 11.34 2.98 11 4 C7.37 3.67 3.74 3.34 0 3 C0 2.01 0 1.02 0 0 Z " fill="#BEB9B8" transform="translate(17,7)"/>
<path d="M0 0 C0.99 0.33 1.98 0.66 3 1 C2.67 2.98 2.34 4.96 2 7 C-1.32534757 8.10844919 -3.62182575 7.84454356 -7 7 C-6.67 6.34 -6.34 5.68 -6 5 C-3.03 5.495 -3.03 5.495 0 6 C0 4.02 0 2.04 0 0 Z " fill="#979492" transform="translate(44,10)"/>
<path d="M0 0 C2 1 2 1 4 3 C3.67 3.66 3.34 4.32 3 5 C3.66 5.33 4.32 5.66 5 6 C4.01 6.66 3.02 7.32 2 8 C-1.32901247 5.78065836 -1.75023244 4.65316671 -3 1 C-2.01 0.67 -1.02 0.34 0 0 Z " fill="#CCC6C4" transform="translate(29,6)"/>
<path d="M0 0 C0.99 0.495 0.99 0.495 2 1 C2.99 0.67 3.98 0.34 5 0 C5 2.31 5 4.62 5 7 C4.01 7.33 3.02 7.66 2 8 C1.34 7.67 0.68 7.34 0 7 C0 4.69 0 2.38 0 0 Z " fill="#A9A8A6" transform="translate(34,52)"/>
<path d="M0 0 C1.65 0 3.3 0 5 0 C5.99 1.98 6.98 3.96 8 6 C2.33846154 4.52307692 2.33846154 4.52307692 0.625 1.875 C0.41875 1.25625 0.2125 0.6375 0 0 Z " fill="#555352" transform="translate(7,44)"/>
<path d="M0 0 C0.99 0.495 0.99 0.495 2 1 C3.08179761 4.776086 3.10543987 8.40497142 3.0625 12.3125 C3.05347656 13.38113281 3.04445313 14.44976562 3.03515625 15.55078125 C3.02355469 16.35902344 3.01195312 17.16726562 3 18 C2.67 18 2.34 18 2 18 C1.90912109 16.93458984 1.90912109 16.93458984 1.81640625 15.84765625 C1.73261719 14.92855469 1.64882812 14.00945313 1.5625 13.0625 C1.48128906 12.14597656 1.40007813 11.22945312 1.31640625 10.28515625 C1.23955024 8.03840268 1.23955024 8.03840268 0 7 C-0.04092937 4.66702567 -0.04241723 2.33294775 0 0 Z " fill="#171717" transform="translate(3,23)"/>
<path d="M0 0 C0.66 0 1.32 0 2 0 C2 0.66 2 1.32 2 2 C2.99 1.67 3.98 1.34 5 1 C5 2.98 5 4.96 5 7 C4.01 7 3.02 7 2 7 C0 4 0 4 0 0 Z " fill="#CCC9C8" transform="translate(56,39)"/>
<path d="M0 0 C2 3 2 3 3 5 C4.65 4.67 6.3 4.34 8 4 C6.1875 6.5 6.1875 6.5 4 9 C3.01 9 2.02 9 1 9 C0.67 6.03 0.34 3.06 0 0 Z " fill="#DBD7D6" transform="translate(51,18)"/>
<path d="M0 0 C1.98 0.66 3.96 1.32 6 2 C6 4.31 6 6.62 6 9 C5.01 8.67 4.02 8.34 3 8 C3 6.68 3 5.36 3 4 C2.34 4 1.68 4 1 4 C0.67 2.68 0.34 1.36 0 0 Z " fill="#B5ADAB" transform="translate(43,20)"/>
<path d="M0 0 C5.75 0.75 5.75 0.75 8 3 C7.01 3.33 6.02 3.66 5 4 C5 4.66 5 5.32 5 6 C4.34 6 3.68 6 3 6 C2 4 1 2 0 0 Z " fill="#BEBEBF" transform="translate(36,42)"/>
<path d="M0 0 C0.33 1.32 0.66 2.64 1 4 C-2.625 7 -2.625 7 -6 7 C-5.67 5.35 -5.34 3.7 -5 2 C-3.35 2.33 -1.7 2.66 0 3 C0 2.01 0 1.02 0 0 Z " fill="#D0CCCB" transform="translate(61,25)"/>
<path d="M0 0 C1.258125 -0.04125 2.51625 -0.0825 3.8125 -0.125 C4.52019531 -0.14820313 5.22789063 -0.17140625 5.95703125 -0.1953125 C8 0 8 0 11 2 C10.01 2.33 9.02 2.66 8 3 C7.01 2.34 6.02 1.68 5 1 C5 1.66 5 2.32 5 3 C5.99 3.33 6.98 3.66 8 4 C6.68 4.33 5.36 4.66 4 5 C3.67 4.01 3.34 3.02 3 2 C2.01 1.34 1.02 0.68 0 0 Z " fill="#E1DCD8" transform="translate(20,12)"/>
<path d="M0 0 C1.45922693 0.11409593 2.91740598 0.24165544 4.375 0.375 C5.59316406 0.47941406 5.59316406 0.47941406 6.8359375 0.5859375 C9 1 9 1 11 3 C10.2575 2.979375 9.515 2.95875 8.75 2.9375 C6.27650346 2.99371583 4.36793801 3.36854986 2 4 C1.01 4 0.02 4 -1 4 C-0.67 2.68 -0.34 1.36 0 0 Z " fill="#ABA9A8" transform="translate(52,8)"/>
<path d="M0 0 C1.65 0.33 3.3 0.66 5 1 C5 1.66 5 2.32 5 3 C4.01 3.66 3.02 4.32 2 5 C2.33 5.66 2.66 6.32 3 7 C0.525 6.01 0.525 6.01 -2 5 C-2 4.34 -2 3.68 -2 3 C-1.01 3 -0.02 3 1 3 C0.67 2.01 0.34 1.02 0 0 Z " fill="#575352" transform="translate(13,15)"/>
<path d="M0 0 C2.64 0.33 5.28 0.66 8 1 C7.67 1.99 7.34 2.98 7 4 C4.36 4 1.72 4 -1 4 C-0.67 2.68 -0.34 1.36 0 0 Z " fill="#DEDAD6" transform="translate(37,12)"/>
<path d="M0 0 C1.65 1.32 3.3 2.64 5 4 C4.67 5.65 4.34 7.3 4 9 C0 4.5 0 4.5 0 0 Z " fill="#51504E" transform="translate(22,51)"/>
<path d="M0 0 C0.66 0.66 1.32 1.32 2 2 C-1.63423209 4.32590854 -4.77088331 4.16265833 -9 4 C-8 2 -8 2 -6.22265625 1.296875 C-5.15337891 1.02617188 -5.15337891 1.02617188 -4.0625 0.75 C-2.99708984 0.46382813 -2.99708984 0.46382813 -1.91015625 0.171875 C-1.27980469 0.11515625 -0.64945313 0.0584375 0 0 Z " fill="#21201F" transform="translate(26,3)"/>
<path d="M0 0 C2.64 0 5.28 0 8 0 C8.33 0.99 8.66 1.98 9 3 C5.80097361 3.08886184 3.07322544 2.91058531 0 2 C0 1.34 0 0.68 0 0 Z " fill="#A7A3A3" transform="translate(46,54)"/>
<path d="M0 0 C-0.33 1.32 -0.66 2.64 -1 4 C-2.65 4.33 -4.3 4.66 -6 5 C-5.625 3.0625 -5.625 3.0625 -5 1 C-3 0 -3 0 0 0 Z " fill="#5B5A5A" transform="translate(10,51)"/>
<path d="M0 0 C2.31 0 4.62 0 7 0 C7 0.99 7 1.98 7 3 C6.01 3 5.02 3 4 3 C3.67 3.99 3.34 4.98 3 6 C2.34 6 1.68 6 1 6 C1 4.68 1 3.36 1 2 C0.67 1.34 0.34 0.68 0 0 Z " fill="#BCB8B7" transform="translate(45,15)"/>
<path d="M0 0 C0.99 0.33 1.98 0.66 3 1 C3 1.99 3 2.98 3 4 C-0.76624671 5.25541557 -2.37188934 4.37061958 -6 3 C-5.01 2.34 -4.02 1.68 -3 1 C-2.01 1.33 -1.02 1.66 0 2 C0 1.34 0 0.68 0 0 Z " fill="#C9C4C2" transform="translate(21,13)"/>
<path d="M0 0 C1.9375 0.8125 1.9375 0.8125 4 2 C4.33 2.99 4.66 3.98 5 5 C3.68 5.33 2.36 5.66 1 6 C-0.0625 4.125 -0.0625 4.125 -1 2 C-0.67 1.34 -0.34 0.68 0 0 Z " fill="#4E4D4B" transform="translate(29,51)"/>
<path d="M0 0 C2.1519437 3.22791555 2.20086443 4.28400809 2 8 C0.68 7.34 -0.64 6.68 -2 6 C-1.125 1.125 -1.125 1.125 0 0 Z " fill="#42403D" transform="translate(22,39)"/>
<path d="M0 0 C0.33 0.99 0.66 1.98 1 3 C2.32 3.33 3.64 3.66 5 4 C1.7 3.67 -1.6 3.34 -5 3 C-5 2.34 -5 1.68 -5 1 C-3.35 0.67 -1.7 0.34 0 0 Z " fill="#111111" transform="translate(49,55)"/>
<path d="M0 0 C0.99 0.66 1.98 1.32 3 2 C3.1875 4.625 3.1875 4.625 3 7 C2.34 7 1.68 7 1 7 C0.01 5.02 -0.98 3.04 -2 1 C-1.34 0.67 -0.68 0.34 0 0 Z " fill="#595757" transform="translate(15,42)"/>
<path d="M0 0 C0.33 0.66 0.66 1.32 1 2 C1.66 2 2.32 2 3 2 C3.33 3.32 3.66 4.64 4 6 C2.35 5.67 0.7 5.34 -1 5 C-1.33 4.01 -1.66 3.02 -2 2 C-1.34 2 -0.68 2 0 2 C0 1.34 0 0.68 0 0 Z " fill="#646261" transform="translate(19,32)"/>
<path d="M0 0 C0.625 1.8125 0.625 1.8125 1 4 C0.01 5.485 0.01 5.485 -1 7 C-3 6 -3 6 -5 4 C-4.360625 3.71125 -3.72125 3.4225 -3.0625 3.125 C-0.84793921 2.17176549 -0.84793921 2.17176549 0 0 Z " fill="#9D9794" transform="translate(50,29)"/>
<path d="M0 0 C0.33 0.99 0.66 1.98 1 3 C-2 5 -2 5 -5 5 C-5 4.34 -5 3.68 -5 3 C-4.34 3 -3.68 3 -3 3 C-3 2.34 -3 1.68 -3 1 C-2.01 0.67 -1.02 0.34 0 0 Z " fill="#E1D9D8" transform="translate(59,15)"/>
<path d="M0 0 C1.65 1.32 3.3 2.64 5 4 C1.98968256 4.93423645 1.13349732 5.04449911 -2 4 C-1.34 2.68 -0.68 1.36 0 0 Z " fill="#C7C4C2" transform="translate(36,16)"/>
<path d="M0 0 C-0.61875 0.28875 -1.2375 0.5775 -1.875 0.875 C-4.13325765 1.93720042 -4.13325765 1.93720042 -6 4 C-8.625 4.125 -8.625 4.125 -11 4 C-10.01 3.67 -9.02 3.34 -8 3 C-8 2.34 -8 1.68 -8 1 C-5.07175348 0.02391783 -3.04386724 -0.08226668 0 0 Z " fill="#F0EEEE" transform="translate(60,13)"/>
</svg>
