<?xml version="1.0" encoding="UTF-8"?>
<svg version="1.1" xmlns="http://www.w3.org/2000/svg" width="66" height="66">
<path d="M0 0 C3.82272074 2.62129422 4.89551992 5.9293513 6.19140625 10.1953125 C6.97147232 12.36557073 6.97147232 12.36557073 10 14 C11.45913498 18.37740494 11.87706344 22.44214574 11 27 C9.48589775 28.7941674 7.87476475 29.9376653 5.95703125 31.28515625 C2.13177277 34.63702945 0.19376864 39.48389019 -2 44 C-3.98 44 -5.96 44 -8 44 C-8.33 43.01 -8.66 42.02 -9 41 C-9.43570313 41.3609375 -9.87140625 41.721875 -10.3203125 42.09375 C-13.32633203 44.43610288 -15.3789312 45.89039962 -19.1875 46.5625 C-22.6412103 45.87175794 -23.88130502 44.77060113 -26 42 C-26 41.34 -26 40.68 -26 40 C-26.67095703 40.54140625 -26.67095703 40.54140625 -27.35546875 41.09375 C-32.35506003 44.93138937 -32.35506003 44.93138937 -35.9375 45.3125 C-36.618125 45.209375 -37.29875 45.10625 -38 45 C-38 44.34 -38 43.68 -38 43 C-38.78375 43.04125 -39.5675 43.0825 -40.375 43.125 C-43 43 -43 43 -45 41 C-48.08347826 40.83318891 -48.08347826 40.83318891 -51 41 C-51.495 39.515 -51.495 39.515 -52 38 C-52.66 38 -53.32 38 -54 38 C-54.96070434 35.11788698 -55.10581883 33.30149956 -55.0625 30.3125 C-55.05347656 29.50425781 -55.04445312 28.69601563 -55.03515625 27.86328125 C-55.02355469 27.24839844 -55.01195312 26.63351563 -55 26 C-54.34 26 -53.68 26 -53 26 C-52.67 25.01 -52.34 24.02 -52 23 C-49.48046875 21.203125 -49.48046875 21.203125 -46.1875 19.25 C-45.60581055 18.90291992 -45.02412109 18.55583984 -44.42480469 18.19824219 C-43.21508917 17.47843853 -42.00297134 16.76265806 -40.78857422 16.05078125 C-39.11362153 15.06675226 -37.44897533 14.06523908 -35.78515625 13.0625 C-28.04568585 8.44073132 -20.96490576 4.3945409 -12 3 C-11.01 2.484375 -10.02 1.96875 -9 1.4375 C-5.61489668 -0.18452867 -3.70283789 -0.56347533 0 0 Z " fill="#855837" transform="translate(55,13)"/>
<path d="M0 0 C2.475 0.495 2.475 0.495 5 1 C5 1.66 5 2.32 5 3 C4.34 3 3.68 3 3 3 C3 4.32 3 5.64 3 7 C5.475 7.495 5.475 7.495 8 8 C8 8.66 8 9.32 8 10 C5.525 9.505 5.525 9.505 3 9 C3 9.66 3 10.32 3 11 C1.0625 11.5625 1.0625 11.5625 -1 12 C-2 11 -2 11 -2.0625 8.4375 C-2.041875 7.633125 -2.02125 6.82875 -2 6 C-6.69267989 10.0409188 -8.7650674 14.26908345 -11 20 C-9.72125 19.731875 -8.4425 19.46375 -7.125 19.1875 C-6.40570313 19.03667969 -5.68640625 18.88585937 -4.9453125 18.73046875 C-2.62953451 18.07691162 -2.62953451 18.07691162 -1 15 C1.625 14.8125 1.625 14.8125 4 15 C1.49022159 17.07953068 -0.94016949 18.96464561 -3.75 20.625 C-6.12145809 21.8012504 -6.12145809 21.8012504 -7 24 C-5.3603125 22.9790625 -5.3603125 22.9790625 -3.6875 21.9375 C-1.82421875 20.77734375 -1.82421875 20.77734375 0 20 C0.99 20.33 1.98 20.66 3 21 C2.67 21.66 2.34 22.32 2 23 C2.66 23.33 3.32 23.66 4 24 C4.4640625 23.071875 4.4640625 23.071875 4.9375 22.125 C5.625 20.75 6.3125 19.375 7 18 C8.32 18 9.64 18 11 18 C11 17.34 11 16.68 11 16 C11.99 15.67 12.98 15.34 14 15 C14.66 14.34 15.32 13.68 16 13 C16.495 13.495 16.495 13.495 17 14 C17.33 12.35 17.66 10.7 18 9 C20 11 20 11 21.125 13.6875 C21 17 21 17 19.48828125 18.52734375 C18.06397762 19.6369441 16.63948488 20.74630175 15.21484375 21.85546875 C11.18329365 25.75903313 9.20558828 30.91210885 7 36 C5.68 36 4.36 36 3 36 C2.505 33.525 2.505 33.525 2 31 C1.071875 31.474375 0.14375 31.94875 -0.8125 32.4375 C-4 34 -4 34 -7 35 C-7 35.66 -7 36.32 -7 37 C-9.3125 37.3125 -9.3125 37.3125 -12 37 C-14.37267301 34.62732699 -14.97794858 32.76367554 -15.07421875 29.4296875 C-15.0242951 27.50105815 -14.96554701 25.57263909 -14.8984375 23.64453125 C-14.82598381 20.78935843 -14.82598381 20.78935843 -16.625 17.75 C-18 15 -18 15 -17.1875 11.125 C-16.795625 10.09375 -16.40375 9.0625 -16 8 C-14.35 7.67 -12.7 7.34 -11 7 C-11 7.66 -11 8.32 -11 9 C-8.03191735 8.29159439 -8.03191735 8.29159439 -6.6875 6.5 C-4.31932032 4.39495139 -2.08518447 4.34279827 1 4 C0.34 3.34 -0.32 2.68 -1 2 C-0.67 1.34 -0.34 0.68 0 0 Z " fill="#7A4A29" transform="translate(45,20)"/>
<path d="M0 0 C1.8125 1.625 1.8125 1.625 3 4 C3.1875 7.75 3.1875 7.75 3 11 C3.9590625 11.2165625 3.9590625 11.2165625 4.9375 11.4375 C7 12 7 12 8 13 C8.04080783 14.99958364 8.04254356 17.00045254 8 19 C5.35261084 20.4606285 4.10551666 21 1 21 C1 21.66 1 22.32 1 23 C-0.32 23 -1.64 23 -3 23 C-3.4640625 23.928125 -3.4640625 23.928125 -3.9375 24.875 C-4.625 26.25 -5.3125 27.625 -6 29 C-6.99 28.67 -7.98 28.34 -9 28 C-8.67 27.34 -8.34 26.68 -8 26 C-9.11375 26.4640625 -9.11375 26.4640625 -10.25 26.9375 C-12.50692176 27.8094925 -14.6450153 28.47667007 -17 29 C-15.82255415 25.46766245 -15.04394359 25.13691925 -11.9375 23.3125 C-10.83728516 22.65701172 -10.83728516 22.65701172 -9.71484375 21.98828125 C-8.86599609 21.49908203 -8.86599609 21.49908203 -8 21 C-8.99 20.67 -9.98 20.34 -11 20 C-11.28875 20.639375 -11.5775 21.27875 -11.875 21.9375 C-13 24 -13 24 -15 25 C-16.99960012 25.039992 -19.00047242 25.04346799 -21 25 C-20.35740457 22.10507514 -19.46450574 19.55111562 -18.1875 16.875 C-17.87167969 16.19179688 -17.55585937 15.50859375 -17.23046875 14.8046875 C-15.75682729 12.64334669 -14.39369559 11.97353657 -12 11 C-11.67 12.65 -11.34 14.3 -11 16 C-9.68 16 -8.36 16 -7 16 C-7 15.34 -7 14.68 -7 14 C-5.35 14.33 -3.7 14.66 -2 15 C-2.33 14.34 -2.66 13.68 -3 13 C-5.02463255 12.34786708 -5.02463255 12.34786708 -7 12 C-7 10.68 -7 9.36 -7 8 C-6.34 8 -5.68 8 -5 8 C-5.33 7.34 -5.66 6.68 -6 6 C-6.99 6.495 -6.99 6.495 -8 7 C-8.33 6.01 -8.66 5.02 -9 4 C-8.34 4 -7.68 4 -7 4 C-7 2.68 -7 1.36 -7 0 C-4.24438552 -1.37780724 -2.90228766 -0.92023755 0 0 Z " fill="#976746" transform="translate(55,15)"/>
<path d="M0 0 C2.60102163 1.63768029 3.09945092 3.2486273 4.25 6.125 C5.61263609 13.16528646 4.66930047 18.77814269 1 25 C0.34 25 -0.32 25 -1 25 C-1 25.66 -1 26.32 -1 27 C-1.99 27 -2.98 27 -4 27 C-4.33 25.35 -4.66 23.7 -5 22 C-6.98 22.99 -6.98 22.99 -9 24 C-11.0556588 17.83302359 -11.12710804 9.81571646 -8.625 3.75 C-6.2845685 -0.21073023 -4.44448108 -0.43360791 0 0 Z " fill="#B3A186" transform="translate(22,30)"/>
<path d="M0 0 C0.99 0.33 1.98 0.66 3 1 C2.67257812 1.65355469 2.34515625 2.30710938 2.0078125 2.98046875 C0.7346987 6.7948756 0.78281056 10.34480837 0.875 14.3125 C0.88853516 15.42334961 0.88853516 15.42334961 0.90234375 16.55664062 C0.92575787 18.37123467 0.96162385 20.18566071 1 22 C2.65 21.01 4.3 20.02 6 19 C5.67 20.32 5.34 21.64 5 23 C2.625 23.625 2.625 23.625 0 24 C-0.66 23.34 -1.32 22.68 -2 22 C-5.08347826 21.83318891 -5.08347826 21.83318891 -8 22 C-8.33 21.01 -8.66 20.02 -9 19 C-9.66 19 -10.32 19 -11 19 C-12.28317892 15.15046324 -12.06643637 12.05261865 -12 8 C-11.01 8 -10.02 8 -9 8 C-9 7.34 -9 6.68 -9 6 C-7.13671875 4.45703125 -7.13671875 4.45703125 -4.6875 2.8125 C-3.88699219 2.26207031 -3.08648437 1.71164063 -2.26171875 1.14453125 C-1.51535156 0.76683594 -0.76898438 0.38914063 0 0 Z " fill="#1E1610" transform="translate(12,32)"/>
<path d="M0 0 C2.475 0.495 2.475 0.495 5 1 C5 1.66 5 2.32 5 3 C4.34 3 3.68 3 3 3 C3 4.32 3 5.64 3 7 C5.475 7.495 5.475 7.495 8 8 C8 8.66 8 9.32 8 10 C5.525 9.505 5.525 9.505 3 9 C3 9.66 3 10.32 3 11 C1.0625 11.5625 1.0625 11.5625 -1 12 C-2 11 -2 11 -2.0625 8.4375 C-2.041875 7.633125 -2.02125 6.82875 -2 6 C-6.20697841 9.62267585 -8.03374366 12.88654918 -9.91015625 18.109375 C-11 20 -11 20 -13.12109375 20.765625 C-13.74113281 20.84296875 -14.36117188 20.9203125 -15 21 C-17.43273978 17.1637565 -18.14061021 15.67060255 -17.1875 11.125 C-16.795625 10.09375 -16.40375 9.0625 -16 8 C-14.35 7.67 -12.7 7.34 -11 7 C-11 7.66 -11 8.32 -11 9 C-8.03191735 8.29159439 -8.03191735 8.29159439 -6.6875 6.5 C-4.31932032 4.39495139 -2.08518447 4.34279827 1 4 C0.34 3.34 -0.32 2.68 -1 2 C-0.67 1.34 -0.34 0.68 0 0 Z " fill="#936C4D" transform="translate(45,20)"/>
<path d="M0 0 C0.66 0 1.32 0 2 0 C2.33 1.65 2.66 3.3 3 5 C6.63 5 10.26 5 14 5 C14 6.32 14 7.64 14 9 C12.4840625 9.8353125 12.4840625 9.8353125 10.9375 10.6875 C8.23072949 12.21932347 5.73929163 13.88701202 3.25 15.75 C0 18 0 18 -3 18 C-1.82255415 14.46766245 -1.04394359 14.13691925 2.0625 12.3125 C3.16271484 11.65701172 3.16271484 11.65701172 4.28515625 10.98828125 C4.85105469 10.66214844 5.41695312 10.33601563 6 10 C5.01 9.67 4.02 9.34 3 9 C2.71125 9.639375 2.4225 10.27875 2.125 10.9375 C1 13 1 13 -1 14 C-2.99960012 14.039992 -5.00047242 14.04346799 -7 14 C-6.36041311 11.05921903 -5.41558421 8.56074451 -4.0625 5.875 C-3.72347656 5.19179688 -3.38445313 4.50859375 -3.03515625 3.8046875 C-2 2 -2 2 0 0 Z " fill="#552E17" transform="translate(41,26)"/>
<path d="M0 0 C3.82272074 2.62129422 4.89551992 5.9293513 6.19140625 10.1953125 C6.97147232 12.36557073 6.97147232 12.36557073 10 14 C10.6875 17.625 10.6875 17.625 11 21 C10.01 19.515 10.01 19.515 9 18 C6.73735482 14.60879196 6.73735482 14.60879196 3 13 C2.33984375 11.00390625 2.33984375 11.00390625 1.9375 8.5625 C1.36828485 4.85836343 1.36828485 4.85836343 -1 2 C-4.27947755 2.21863184 -6.50882697 2.69467623 -9.3125 4.4375 C-11.85846375 5.91771148 -13.18454522 6.2833217 -16 6.75 C-21.60870128 7.8340347 -26.17126851 10.61933113 -31.08203125 13.44140625 C-33.48462144 14.72471748 -35.34709272 15.53108419 -38 16 C-38 16.66 -38 17.32 -38 18 C-38.53109375 18.25394531 -39.0621875 18.50789063 -39.609375 18.76953125 C-43.36117635 20.59750746 -46.68323605 22.44864311 -50 25 C-50.66 25 -51.32 25 -52 25 C-52 25.66 -52 26.32 -52 27 C-52.99 26.67 -53.98 26.34 -55 26 C-54.34 26 -53.68 26 -53 26 C-52.67 25.01 -52.34 24.02 -52 23 C-49.48046875 21.203125 -49.48046875 21.203125 -46.1875 19.25 C-45.60581055 18.90291992 -45.02412109 18.55583984 -44.42480469 18.19824219 C-43.21508917 17.47843853 -42.00297134 16.76265806 -40.78857422 16.05078125 C-39.11362153 15.06675226 -37.44897533 14.06523908 -35.78515625 13.0625 C-28.04568585 8.44073132 -20.96490576 4.3945409 -12 3 C-11.01 2.484375 -10.02 1.96875 -9 1.4375 C-5.61489668 -0.18452867 -3.70283789 -0.56347533 0 0 Z " fill="#0E0301" transform="translate(55,13)"/>
<path d="M0 0 C0.495 1.485 0.495 1.485 1 3 C-0.546875 4.1446875 -0.546875 4.1446875 -2.125 5.3125 C-6.87387357 9.32631371 -9.31986553 14.48265358 -12 20 C-13.98 20 -15.96 20 -18 20 C-18.33 19.01 -18.66 18.02 -19 17 C-19.43570313 17.3609375 -19.87140625 17.721875 -20.3203125 18.09375 C-23.32633203 20.43610288 -25.3789312 21.89039962 -29.1875 22.5625 C-32.6412103 21.87175794 -33.88130502 20.77060113 -36 18 C-36 17.34 -36 16.68 -36 16 C-36.44730469 16.3609375 -36.89460938 16.721875 -37.35546875 17.09375 C-42.35506003 20.93138937 -42.35506003 20.93138937 -45.9375 21.3125 C-46.618125 21.209375 -47.29875 21.10625 -48 21 C-48 20.34 -48 19.68 -48 19 C-48.66 18.67 -49.32 18.34 -50 18 C-49.01 18 -48.02 18 -47 18 C-47 18.66 -47 19.32 -47 20 C-46.01 20 -45.02 20 -44 20 C-44 19.34 -44 18.68 -44 18 C-42.00669158 16.65668346 -40.00615134 15.32405988 -38 14 C-37.34 13.01 -36.68 12.02 -36 11 C-35.76925781 11.56589844 -35.53851563 12.13179687 -35.30078125 12.71484375 C-34.31565123 14.93041285 -33.33896798 16.97657555 -32 19 C-29.3852733 20.12815365 -29.3852733 20.12815365 -27 20 C-27 19.34 -27 18.68 -27 18 C-26.34 17.67 -25.68 17.34 -25 17 C-24.34 16.01 -23.68 15.02 -23 14 C-21.33333333 14 -19.66666667 14 -18 14 C-17.505 16.475 -17.505 16.475 -17 19 C-15.68 19 -14.36 19 -13 19 C-12.84144531 18.40832031 -12.68289062 17.81664063 -12.51953125 17.20703125 C-10.9354003 11.84199107 -9.3443307 8.72371203 -5 5 C-4.071875 4.071875 -3.14375 3.14375 -2.1875 2.1875 C-1.465625 1.465625 -0.74375 0.74375 0 0 Z " fill="#0D0907" transform="translate(65,37)"/>
<path d="M0 0 C0 1.32 0 2.64 0 4 C0.99 4 1.98 4 3 4 C3 7.3 3 10.6 3 14 C2.34 14 1.68 14 1 14 C1 14.66 1 15.32 1 16 C-1.3125 16.3125 -1.3125 16.3125 -4 16 C-6.3892066 13.6107934 -6.99088132 11.84152436 -7.02734375 8.4765625 C-6.82558636 5.91607783 -6.61453991 3.49512446 -6 1 C-4 0 -4 0 0 0 Z " fill="#B39C8A" transform="translate(37,41)"/>
<path d="M0 0 C1.8125 1.5 1.8125 1.5 3 3 C2.67 3.99 2.34 4.98 2 6 C1.34 6 0.68 6 0 6 C-0.33 6.99 -0.66 7.98 -1 9 C-1.66 8.67 -2.32 8.34 -3 8 C-3.433125 9.134375 -3.86625 10.26875 -4.3125 11.4375 C-4.869375 12.613125 -5.42625 13.78875 -6 15 C-6.99 15.33 -7.98 15.66 -9 16 C-9.05429959 14.25034642 -9.09292823 12.50020213 -9.125 10.75 C-9.15980469 9.28820312 -9.15980469 9.28820312 -9.1953125 7.796875 C-8.99645953 4.94930049 -8.55438946 3.36962868 -7 1 C-4.45132831 -0.27433584 -2.82594567 -0.27570202 0 0 Z " fill="#E2CDB2" transform="translate(22,30)"/>
<path d="M0 0 C4.75 0.75 4.75 0.75 7 3 C7.1953125 5.1640625 7.1953125 5.1640625 7.125 7.625 C7.10695313 8.44226562 7.08890625 9.25953125 7.0703125 10.1015625 C7.03550781 11.04128906 7.03550781 11.04128906 7 12 C5.35 12.33 3.7 12.66 2 13 C2 12.01 2 11.02 2 10 C1.01 10 0.02 10 -1 10 C-1.125 2.25 -1.125 2.25 0 0 Z " fill="#C6B39D" transform="translate(3,39)"/>
<path d="M0 0 C0.66 0 1.32 0 2 0 C3.55271035 7.13909214 2.50444331 11.63785614 -1 18 C-1.66 18 -2.32 18 -3 18 C-3 18.66 -3 19.32 -3 20 C-3.99 20 -4.98 20 -6 20 C-5.67 16.37 -5.34 12.74 -5 9 C-3.35 9 -1.7 9 0 9 C-0.185625 7.88625 -0.37125 6.7725 -0.5625 5.625 C-1 2 -1 2 0 0 Z " fill="#D8CEBD" transform="translate(24,37)"/>
<path d="M0 0 C1.32 0 2.64 0 4 0 C5.57170996 3.14341993 5.23175783 6.55771451 5 10 C4.67 10.99 4.34 11.98 4 13 C1.9375 13.6875 1.9375 13.6875 0 14 C-2.39775683 10.21892192 -3.13229952 8.67252256 -2.25 4.1875 C-1 1 -1 1 0 0 Z " fill="#D9CFC2" transform="translate(30,27)"/>
<path d="M0 0 C2.625 -0.1875 2.625 -0.1875 5 0 C2.49022159 2.07953068 0.05983051 3.96464561 -2.75 5.625 C-5.12145809 6.8012504 -5.12145809 6.8012504 -6 9 C-4.906875 8.319375 -3.81375 7.63875 -2.6875 6.9375 C-0.82421875 5.77734375 -0.82421875 5.77734375 1 5 C1.99 5.33 2.98 5.66 4 6 C3.8125 7.875 3.8125 7.875 3 10 C0.4375 11.25 0.4375 11.25 -2 12 C-1.01 12 -0.02 12 1 12 C1 12.66 1 13.32 1 14 C-0.32 14 -1.64 14 -3 14 C-3 15.65 -3 17.3 -3 19 C-3.33 19 -3.66 19 -4 19 C-4 16.03 -4 13.06 -4 10 C-4.99 10 -5.98 10 -7 10 C-7 8.68 -7 7.36 -7 6 C-8.98 6.33 -10.96 6.66 -13 7 C-12.67 6.34 -12.34 5.68 -12 5 C-9.46425873 4.39625208 -6.92544828 4.04218874 -4.34765625 3.66015625 C-1.64696956 3.17551797 -1.64696956 3.17551797 0 0 Z " fill="#956642" transform="translate(44,35)"/>
<path d="M0 0 C0.99 0.33 1.98 0.66 3 1 C2.938125 1.70125 2.87625 2.4025 2.8125 3.125 C2.7970907 6.10853205 2.7970907 6.10853205 4.5625 8.75 C6.46985965 13.06229137 6.43920362 16.51206919 5 21 C2.4375 23.5625 2.4375 23.5625 0 25 C-0.66 24.67 -1.32 24.34 -2 24 C-1.49855469 23.02933594 -0.99710938 22.05867188 -0.48046875 21.05859375 C1.42110344 16.62159197 1.14496532 12.78694275 0.6875 8.0625 C0.5956543 6.89364258 0.5956543 6.89364258 0.50195312 5.70117188 C0.35028352 3.79946841 0.17734191 1.8994814 0 0 Z " fill="#3F2C1D" transform="translate(25,29)"/>
<path d="M0 0 C0.33 0.66 0.66 1.32 1 2 C0.0625 4.125 0.0625 4.125 -1 6 C-1.66 6 -2.32 6 -3 6 C-2.95875 7.2375 -2.9175 8.475 -2.875 9.75 C-2.86341709 13.01637962 -3.1431298 15.2146947 -5 18 C-6.32 18 -7.64 18 -9 18 C-9.33 16.35 -9.66 14.7 -10 13 C-9.34 13 -8.68 13 -8 13 C-8 12.34 -8 11.68 -8 11 C-7.34 11 -6.68 11 -6 11 C-6 9.68 -6 8.36 -6 7 C-5.34 7 -4.68 7 -4 7 C-3.8453125 6.1028125 -3.8453125 6.1028125 -3.6875 5.1875 C-2.91123545 2.71756736 -1.92911079 1.67748765 0 0 Z " fill="#8F6648" transform="translate(57,38)"/>
<path d="M0 0 C0.33 0.66 0.66 1.32 1 2 C0.39351421 3.68949614 -0.27840576 5.35636866 -1 7 C-1.33 7.99 -1.66 8.98 -2 10 C-0.35 9.67 1.3 9.34 3 9 C1.25 12.875 1.25 12.875 -1 14 C-2.99960012 14.039992 -5.00047242 14.04346799 -7 14 C-6.36041311 11.05921903 -5.41558421 8.56074451 -4.0625 5.875 C-3.72347656 5.19179688 -3.38445313 4.50859375 -3.03515625 3.8046875 C-2 2 -2 2 0 0 Z " fill="#59351D" transform="translate(41,26)"/>
<path d="M0 0 C2 2 2 2 2 5 C-1.37097383 6.49821059 -3.20442119 7 -7 7 C-7.66 6.01 -8.32 5.02 -9 4 C-8.34 4 -7.68 4 -7 4 C-7 2.68 -7 1.36 -7 0 C-4.29393021 -1.35303489 -2.8671629 -0.7884698 0 0 Z " fill="#7E4D2C" transform="translate(55,15)"/>
<path d="M0 0 C0.25 2.8125 0.25 2.8125 0 6 C-1.625 7.9375 -1.625 7.9375 -4 9 C-7.25 8.6875 -7.25 8.6875 -10 8 C-10 6.68 -10 5.36 -10 4 C-9.34 4 -8.68 4 -8 4 C-8 3.34 -8 2.68 -8 2 C-7.21625 1.855625 -6.4325 1.71125 -5.625 1.5625 C-3.76394715 1.16370296 -1.83313854 0 0 0 Z " fill="#7A4B2B" transform="translate(58,19)"/>
<path d="M0 0 C-0.33 1.98 -0.66 3.96 -1 6 C-1.66 6 -2.32 6 -3 6 C-3 6.66 -3 7.32 -3 8 C-5.31 8.66 -7.62 9.32 -10 10 C-10.33 8.68 -10.66 7.36 -11 6 C-9.68 6 -8.36 6 -7 6 C-7 5.34 -7 4.68 -7 4 C-7.99 4 -8.98 4 -10 4 C-9.67 3.34 -9.34 2.68 -9 2 C-2.88888889 0 -2.88888889 0 0 0 Z " fill="#41230E" transform="translate(52,43)"/>
<path d="M0 0 C0.99 0.33 1.98 0.66 3 1 C2.34 2.65 1.68 4.3 1 6 C0.67 6 0.34 6 0 6 C-0.33 10.29 -0.66 14.58 -1 19 C-1.33 19 -1.66 19 -2 19 C-2.07347656 18.06027344 -2.07347656 18.06027344 -2.1484375 17.1015625 C-2.22320313 16.28429687 -2.29796875 15.46703125 -2.375 14.625 C-2.47941406 13.40683594 -2.47941406 13.40683594 -2.5859375 12.1640625 C-2.82892588 9.79665809 -2.82892588 9.79665809 -5 8 C-6.31747324 7.30251417 -7.64914193 6.63040043 -9 6 C-7.57140593 4.96674014 -6.13177617 3.94872366 -4.6875 2.9375 C-3.88699219 2.36902344 -3.08648437 1.80054688 -2.26171875 1.21484375 C-1.51535156 0.81394531 -0.76898438 0.41304687 0 0 Z " fill="#7E614B" transform="translate(12,32)"/>
<path d="M0 0 C0.33 0.99 0.66 1.98 1 3 C-0.546875 4.1446875 -0.546875 4.1446875 -2.125 5.3125 C-6.87387357 9.32631371 -9.31986553 14.48265358 -12 20 C-13.98 20 -15.96 20 -18 20 C-18.66 18.02 -19.32 16.04 -20 14 C-19.34 14 -18.68 14 -18 14 C-17.67 15.65 -17.34 17.3 -17 19 C-15.68 19 -14.36 19 -13 19 C-12.84144531 18.40832031 -12.68289062 17.81664063 -12.51953125 17.20703125 C-10.9354003 11.84199107 -9.3443307 8.72371203 -5 5 C-3.6078125 3.6078125 -3.6078125 3.6078125 -2.1875 2.1875 C-1.465625 1.465625 -0.74375 0.74375 0 0 Z " fill="#0F0402" transform="translate(65,37)"/>
<path d="M0 0 C0 2 0 2 -1.3125 3.625 C-3 5 -3 5 -6 5 C-6 7.31 -6 9.62 -6 12 C-6.556875 11.525625 -7.11375 11.05125 -7.6875 10.5625 C-10.18346074 8.87604004 -12.0446237 8.41046893 -15 8 C-11.0826156 4.57228865 -5.47848189 0 0 0 Z " fill="#6E472A" transform="translate(32,22)"/>
<path d="M0 0 C0.33 0 0.66 0 1 0 C1.33 1.65 1.66 3.3 2 5 C4.97 5.495 4.97 5.495 8 6 C8 6.66 8 7.32 8 8 C3.71 8.99 -0.58 9.98 -5 11 C-4.01 9.35 -3.02 7.7 -2 6 C-1.28856912 4.01548229 -0.61008664 2.01797888 0 0 Z " fill="#3A200E" transform="translate(42,26)"/>
<path d="M0 0 C0.66 0.66 1.32 1.32 2 2 C1.34 2 0.68 2 0 2 C-0.33 3.32 -0.66 4.64 -1 6 C-0.34 6.33 0.32 6.66 1 7 C0.67 8.32 0.34 9.64 0 11 C-1.32 11.33 -2.64 11.66 -4 12 C-5.43735246 9.12529507 -5.38172649 7.18105412 -5 4 C-2.5 1.625 -2.5 1.625 0 0 Z " fill="#C8B59A" transform="translate(24,35)"/>
<path d="M0 0 C0.99 0 1.98 0 3 0 C3 3.3 3 6.6 3 10 C2.34 10 1.68 10 1 10 C1 10.66 1 11.32 1 12 C0.34 12 -0.32 12 -1 12 C-1.0984702 7.86425173 -0.77403558 4.06368679 0 0 Z " fill="#CEB7A0" transform="translate(37,45)"/>
<path d="M0 0 C0.66 0.66 1.32 1.32 2 2 C1.875 4 1.875 4 1 6 C-0.875 7.125 -0.875 7.125 -3 8 C-3.99 8.66 -4.98 9.32 -6 10 C-8.6875 10.125 -8.6875 10.125 -11 10 C-11 9.34 -11 8.68 -11 8 C-11.66 7.67 -12.32 7.34 -13 7 C-12.01 7 -11.02 7 -10 7 C-10 7.66 -10 8.32 -10 9 C-9.01 9 -8.02 9 -7 9 C-7 8.34 -7 7.68 -7 7 C-6.030625 6.360625 -5.06125 5.72125 -4.0625 5.0625 C-0.75744775 3.28938993 -0.75744775 3.28938993 0 0 Z " fill="#0A0503" transform="translate(28,48)"/>
<path d="M0 0 C0.33 0.99 0.66 1.98 1 3 C-0.65 4.32 -2.3 5.64 -4 7 C-4 6.34 -4 5.68 -4 5 C-7.63 5.33 -11.26 5.66 -15 6 C-12.71172461 3.71172461 -11.72877489 3.57744649 -8.625 3 C-5.42284463 2.40026522 -2.86280057 1.56865785 0 0 Z " fill="#744627" transform="translate(47,16)"/>
<path d="M0 0 C4.75 0.75 4.75 0.75 7 3 C7.1953125 5.1640625 7.1953125 5.1640625 7.125 7.625 C7.10695313 8.44226562 7.08890625 9.25953125 7.0703125 10.1015625 C7.03550781 11.04128906 7.03550781 11.04128906 7 12 C5.68 12.33 4.36 12.66 3 13 C3.66 12.67 4.32 12.34 5 12 C4.75873003 6.26133714 4.75873003 6.26133714 1.9375 1.5 C1.298125 1.005 0.65875 0.51 0 0 Z " fill="#EFE3CD" transform="translate(3,39)"/>
<path d="M0 0 C2.625 -0.1875 2.625 -0.1875 5 0 C2.5105071 2.06272269 0.11146757 3.93519327 -2.6875 5.5625 C-5.25862684 6.93965374 -5.25862684 6.93965374 -7 10 C-7 8.68 -7 7.36 -7 6 C-8.98 6.33 -10.96 6.66 -13 7 C-12.67 6.34 -12.34 5.68 -12 5 C-9.46425873 4.39625208 -6.92544828 4.04218874 -4.34765625 3.66015625 C-1.64696956 3.17551797 -1.64696956 3.17551797 0 0 Z " fill="#7D5941" transform="translate(44,35)"/>
<path d="M0 0 C0.66 0 1.32 0 2 0 C2.19573608 1.43640171 2.38127816 2.87419504 2.5625 4.3125 C2.66691406 5.11300781 2.77132813 5.91351563 2.87890625 6.73828125 C3 9 3 9 2 12 C1.34 12 0.68 12 0 12 C0.020625 10.906875 0.04125 9.81375 0.0625 8.6875 C0.18544452 5.05615809 0.18544452 5.05615809 -1 2 C-0.67 1.34 -0.34 0.68 0 0 Z " fill="#DBC9B4" transform="translate(24,37)"/>
<path d="M0 0 C0.99 0.33 1.98 0.66 3 1 C0.03 4.96 0.03 4.96 -3 9 C-3.99 8.67 -4.98 8.34 -6 8 C-4.75237172 4.15314615 -3.6129609 1.97070595 0 0 Z " fill="#805031" transform="translate(52,35)"/>
<path d="M0 0 C2.64 0.33 5.28 0.66 8 1 C8.33 1.99 8.66 2.98 9 4 C7.35 3.67 5.7 3.34 4 3 C4 3.66 4 4.32 4 5 C2.68 5.33 1.36 5.66 0 6 C0 4.02 0 2.04 0 0 Z " fill="#BD9E80" transform="translate(44,26)"/>
<path d="M0 0 C1.32 0 2.64 0 4 0 C4.33 1.65 4.66 3.3 5 5 C0.25 6.125 0.25 6.125 -2 5 C-1.34 3.35 -0.68 1.7 0 0 Z " fill="#E5DACC" transform="translate(30,27)"/>
<path d="M0 0 C1.65 0 3.3 0 5 0 C4.67 1.65 4.34 3.3 4 5 C4.99 5.33 5.98 5.66 7 6 C4.69 6.66 2.38 7.32 0 8 C-0.33 6.68 -0.66 5.36 -1 4 C0.32 4 1.64 4 3 4 C3 3.34 3 2.68 3 2 C2.01 2 1.02 2 0 2 C0 1.34 0 0.68 0 0 Z " fill="#6E4326" transform="translate(42,45)"/>
<path d="M0 0 C1.32 0 2.64 0 4 0 C3.67 2.31 3.34 4.62 3 7 C2.34 7 1.68 7 1 7 C0.34 5.02 -0.32 3.04 -1 1 C-0.67 0.67 -0.34 0.34 0 0 Z " fill="#BAA595" transform="translate(31,49)"/>
<path d="M0 0 C1.32 0.66 2.64 1.32 4 2 C3.67 2.66 3.34 3.32 3 4 C2.34 4 1.68 4 1 4 C1.33 5.65 1.66 7.3 2 9 C1.01 9 0.02 9 -1 9 C-1.09765625 2.84765625 -1.09765625 2.84765625 -1 1 C-0.67 0.67 -0.34 0.34 0 0 Z " fill="#D4C7B4" transform="translate(3,40)"/>
<path d="M0 0 C-1.34710422 4.04131267 -3.38428334 4.90288434 -7 7 C-7.99 7 -8.98 7 -10 7 C-8.60449526 2.81348579 -4.64858615 0 0 0 Z " fill="#45230D" transform="translate(48,37)"/>
<path d="M0 0 C1.2065625 0.0309375 1.2065625 0.0309375 2.4375 0.0625 C2.4375 1.3825 2.4375 2.7025 2.4375 4.0625 C1.4475 4.5575 1.4475 4.5575 0.4375 5.0625 C-0.5525 6.5475 -0.5525 6.5475 -1.5625 8.0625 C-2.2225 5.7525 -2.8825 3.4425 -3.5625 1.0625 C-2.5625 0.0625 -2.5625 0.0625 0 0 Z " fill="#938374" transform="translate(30.5625,31.9375)"/>
<path d="M0 0 C0.99 0.33 1.98 0.66 3 1 C3 2.65 3 4.3 3 6 C1.68 6 0.36 6 -1 6 C-1.33 4.35 -1.66 2.7 -2 1 C-1.34 0.67 -0.68 0.34 0 0 Z " fill="#D9D2C7" transform="translate(49,50)"/>
<path d="M0 0 C0.33 0.99 0.66 1.98 1 3 C-1.35438733 4.42944945 -2.48032433 5.08661261 -5.25 4.625 C-5.8275 4.41875 -6.405 4.2125 -7 4 C-6.67 3.01 -6.34 2.02 -6 1 C-3.90006779 0.25486277 -2.22568901 0 0 0 Z " fill="#623416" transform="translate(55,23)"/>
<path d="M0 0 C0 1.65 0 3.3 0 5 C-1.98 5.99 -1.98 5.99 -4 7 C-4.33 5.35 -4.66 3.7 -5 2 C-2 0 -2 0 0 0 Z " fill="#D4C7B4" transform="translate(17,47)"/>
<path d="M0 0 C0 1.32 0 2.64 0 4 C-0.66 4 -1.32 4 -2 4 C-2.66 5.65 -3.32 7.3 -4 9 C-4.97110486 5.97878489 -5.13617383 3.99536737 -4 1 C-2 0 -2 0 0 0 Z " fill="#958678" transform="translate(35,41)"/>
<path d="M0 0 C2.31 0 4.62 0 7 0 C7.66 1.32 8.32 2.64 9 4 C8.01 4.495 8.01 4.495 7 5 C7 4.01 7 3.02 7 2 C6.01 2.495 6.01 2.495 5 3 C2.6670134 3.04022391 0.33293334 3.04320247 -2 3 C-1.34 2.67 -0.68 2.34 0 2 C0 1.34 0 0.68 0 0 Z " fill="#774926" transform="translate(48,29)"/>
<path d="M0 0 C1.9375 0.375 1.9375 0.375 4 1 C4.33 1.66 4.66 2.32 5 3 C4.01 4.485 4.01 4.485 3 6 C2.01 6 1.02 6 0 6 C0 4.02 0 2.04 0 0 Z " fill="#7F5132" transform="translate(58,26)"/>
<path d="M0 0 C1.32 0.33 2.64 0.66 4 1 C4 1.99 4 2.98 4 4 C2.35 4.66 0.7 5.32 -1 6 C-1.66 5.34 -2.32 4.68 -3 4 C-2.01 3.67 -1.02 3.34 0 3 C0 2.01 0 1.02 0 0 Z " fill="#946647" transform="translate(53,16)"/>
<path d="M0 0 C0.33 0 0.66 0 1 0 C1.36923077 7.50769231 1.36923077 7.50769231 -0.5 10 C-0.995 10.33 -1.49 10.66 -2 11 C-2.66 10.67 -3.32 10.34 -4 10 C-2.68 6.7 -1.36 3.4 0 0 Z " fill="#583E2D" transform="translate(27,43)"/>
<path d="M0 0 C1.98 0 3.96 0 6 0 C5.25 4.75 5.25 4.75 3 7 C2.87625 6.030625 2.7525 5.06125 2.625 4.0625 C2.41875 3.051875 2.2125 2.04125 2 1 C1.34 0.67 0.68 0.34 0 0 Z " fill="#CCB598" transform="translate(13,35)"/>
<path d="M0 0 C1 2 1 2 0.3125 4.5625 C-1 7 -1 7 -3.125 7.8125 C-3.74375 7.874375 -4.3625 7.93625 -5 8 C-2.25 2.25 -2.25 2.25 0 0 Z " fill="#7A4928" transform="translate(41,26)"/>
<path d="M0 0 C1.65 0.33 3.3 0.66 5 1 C5 1.66 5 2.32 5 3 C1.535 4.485 1.535 4.485 -2 6 C-2.33 5.34 -2.66 4.68 -3 4 C-2.34 3.67 -1.68 3.34 -1 3 C-0.67 2.01 -0.34 1.02 0 0 Z " fill="#2B1A0F" transform="translate(41,51)"/>
<path d="M0 0 C0.33 0.66 0.66 1.32 1 2 C1.66 2.33 2.32 2.66 3 3 C2.34 4.65 1.68 6.3 1 8 C1.66 8 2.32 8 3 8 C2.67 8.99 2.34 9.98 2 11 C1.34 11 0.68 11 0 11 C0 7.37 0 3.74 0 0 Z " fill="#B8A48C" transform="translate(12,38)"/>
<path d="M0 0 C1.32 0.33 2.64 0.66 4 1 C1.66666667 3.33333333 -0.66666667 5.66666667 -3 8 C-3 6.35 -3 4.7 -3 3 C-2.34 3 -1.68 3 -1 3 C-0.67 2.01 -0.34 1.02 0 0 Z " fill="#6E4327" transform="translate(57,41)"/>
<path d="M0 0 C0.99 0.33 1.98 0.66 3 1 C2.34 2.65 1.68 4.3 1 6 C-1.475 5.01 -1.475 5.01 -4 4 C-2.68 2.68 -1.36 1.36 0 0 Z " fill="#5F432C" transform="translate(12,32)"/>
<path d="M0 0 C0.5534764 2.07553648 1 3.84365964 1 6 C0.34 6 -0.32 6 -1 6 C-1.33 6.99 -1.66 7.98 -2 9 C-2.6875 7.3125 -2.6875 7.3125 -3 5 C-1.5625 2.25 -1.5625 2.25 0 0 Z " fill="#A58D6C" transform="translate(19,37)"/>
<path d="M0 0 C2.475 0.99 2.475 0.99 5 2 C4.34 3.32 3.68 4.64 3 6 C3 5.01 3 4.02 3 3 C1.68 2.67 0.36 2.34 -1 2 C-1 2.66 -1 3.32 -1 4 C-1.66 3.67 -2.32 3.34 -3 3 C-2.01 2.01 -1.02 1.02 0 0 Z " fill="#C4B49B" transform="translate(17,30)"/>
<path d="M0 0 C0.66 0 1.32 0 2 0 C2 1.65 2 3.3 2 5 C0.35 4.67 -1.3 4.34 -3 4 C-1.625 2 -1.625 2 0 0 Z " fill="#915D37" transform="translate(56,25)"/>
<path d="M0 0 C-0.33 0.99 -0.66 1.98 -1 3 C-1.99 3 -2.98 3 -4 3 C-4 3.66 -4 4.32 -4 5 C-4.99 5.33 -5.98 5.66 -7 6 C-7 5.01 -7 4.02 -7 3 C-2.77777778 0 -2.77777778 0 0 0 Z " fill="#140906" transform="translate(21,26)"/>
</svg>
